<svg height="32" viewBox="0 0 177 32" width="177" xmlns="http://www.w3.org/2000/svg"><g fill="none" fill-rule="evenodd"><g fill="#2e384d"><path d="m58.1625 17.0731151h-2.7465v3.0351277h2.7465c.803 0 1.3175-.5361518 1.3175-1.5072844 0-.8872744-.5535-1.5278433-1.3175-1.5278433m-.189-5.181899h-2.5575v2.6428875h2.5575c.781 0 1.221-.4961162 1.221-1.3217142 0-.8667156-.44-1.3211733-1.221-1.3211733m1.4105 11.1087839h-7.2135c-.1515 0-.1705-.0205588-.1705-.2889052v-13.50496581c0-.16447037.056-.20612899.228-.20612899h6.6785c2.348 0 3.76 1.3633729 3.76 3.6762376 0 1.5072844-.8015 2.6428875-2.291 3.0973451 1.643.1844882 2.6535 1.7956487 2.6535 3.4262859 0 2.2722881-1.373 3.8001314-3.645 3.8001314"/><path d="m75.5700771 15.4440622-1.299 3.0301071h2.6535zm6.869 7.5559378h-3.568c-.096 0-.172-.01933-.229-.158297-.2295-.5396725-.5145-1.276302-.707-1.7752248h-4.617c-.2295.5574352-.4775 1.2355523-.668 1.7151451-.0575.1588194-.096.2183767-.344.2183767h-3.168c-.152 0-.1705-.0788873-.0945-.2784564 1.9855-4.4061937 4.9985-10.7673289 6.488-13.67884395.02-.03918242.1145-.03918242.229-.03918242.1135 0 .2095-.02089729.228.03918242 1.7375 3.54992725 4.428 9.27265025 6.528 13.67884395.1145.2591264.0945.2784564-.0775.2784564z"/><path d="m95.1535 11.931365h-1.793v8.0950688h1.7545c1.909 0 2.6345-1.6718195 2.6345-4.0886536 0-2.2501932-.936-4.0064152-2.596-4.0064152m-.135 11.068635h-4.865c-.1345 0-.1535-.0200186-.1535-.1861184v-13.60774464c0-.16447673.019-.20613696.1535-.20613696h5.3055c3.6635 0 5.8585 2.4568712 5.8585 7 0 4.48145-2.5205 7-6.299 7"/><path d="m113.569159 15.4440622-1.2955 3.0301071h2.6515zm6.872 7.5559378h-3.569c-.095 0-.1725-.01933-.2295-.158297-.228-.5396725-.516-1.276302-.7055-1.7752248h-4.6185c-.2295.5574352-.4775 1.2355523-.668 1.7151451-.057.1588194-.0945.2183767-.3425.2183767h-3.168c-.1535 0-.1735-.0788873-.096-.2784564 1.984-4.4061937 5-10.7673289 6.488-13.67884395.0185-.03918242.1145-.03918242.229-.03918242.115 0 .211-.02089729.2295.03918242 1.736 3.54992725 4.4265 9.27265025 6.525 13.67884395.1145.2591264.096.2784564-.0745.2784564z"/><path d="m139.086 22.9994705h-3.4545c-.152 0-.1335-.0421979-.248-.2483187-.592-1.2378068-2.384-4.8733231-2.384-4.8733231l-1.565 2.3966276v2.5389104c0 .1660869-.019.1861038-.172.1861038h-3.092c-.1705 0-.1705.020017-.1705-.1861038v-13.62723533c0-.20612079 0-.18556281.1705-.18556281h3.092c.153 0 .172.02001698.172.18556281v6.19498483s2.6515-4.3788496 3.701-6.25665877c.0775-.10387189.133-.12388887.2295-.12388887h3.453c.192 0 .2295.06167394.1145.24777775-1.277 1.87835009-3.797 5.67833029-3.797 5.67833029s2.8625 5.5122435 4.084 7.7844412c.1145.2461548.0385.2883527-.1335.2883527"/><path d="m151.570077 15.4440622-1.299 3.0301071h2.6535zm6.869 7.5559378h-3.568c-.096 0-.172-.01933-.229-.158297-.2295-.5396725-.5145-1.276302-.707-1.7752248h-4.617c-.2295.5574352-.4775 1.2355523-.668 1.7151451-.0575.1588194-.096.2183767-.344.2183767h-3.168c-.152 0-.1705-.0788873-.0945-.2784564 1.9855-4.4061937 4.9985-10.7673289 6.488-13.67884395.02-.03918242.1145-.03918242.229-.03918242.1135 0 .2095-.02089729.228.03918242 1.7375 3.54992725 4.428 9.27265025 6.528 13.67884395.1145.2591264.0945.2784564-.0775.2784564z"/><path d="m176.866095 22.9929181c-.039.0189696-.096 0-.172-.0589593-2.881-2.2117463-7.385-6.4568227-7.385-6.4568227v5.9866856c0 .1763655 0 .1763655-.172.1763655h-2.8815c-.133 0-.192-.1174061-.192-.1953351-.0945-4.9900154-.0745-8.1005079 0-13.26688886 0-.09843655.02-.13637564.059-.15739595.037-.03793908.096-.01896954.1515.02102031 2.7295 1.9959036 7.4055 6.4378531 7.4055 6.4378531v-5.87081754c0-.21584265 0-.2348122.152-.2348122h2.901c.1895 0 .1895.03947716.1895.2348122.0775 3.81544174.0585 9.06026434 0 13.13000054 0 .1368883 0 .2337868-.056.2542944"/></g><g transform="translate(0 -.000059)"><path d="m16.501377.00031467c2.1188327.01420402 6.5000744.52560331 10.8347437 4.82135103 6.2506003 6.1943783 6.1943844 16.2517383-.0243096 22.4778671s-16.3694622 6.2850941-22.59727228.0695488c-4.25873423-4.248524-4.72365491-7.7622499-4.66895836-12.6926545l-.04558046-14.62641329s2.74303182-.00840871 5.99989481-.01837436l.00010519 12.96842005h.021l.00776918 2.1726217-.00225743.2955235c-.01105243 2.9284782.3441466 5.0677961 2.91945183 7.6374354 3.89246942 3.8848882 10.23751112 3.8476711 14.12422672-.0429428 3.8867156-3.8920453 3.9212386-10.1774337.0143846-14.04943904-2.6861948-2.66194581-5.4022016-2.99914304-6.7380912-3.01279348l-.3125345.00023728c-.7358639.0023901-2.5336245.00794905-4.4075005.01370301l-.6260922.00192112.0003108-5.99997319c2.2882086-.00698527 4.2705536-.01301906 5.1413091-.01562489z" fill="#eb4a4a"/><path d="m16.5846381 11.0000595c-.7140457.0015558-5.5846381.0171139-5.5846381.0171139l.0153889 4.8992428c.0030778 1.7316156.1046447 2.9653722 1.5758252 4.4558373 2.1529095 2.184356 5.643116 2.1641305 7.7929477-.0233371 2.1498318-2.1859118 2.1590651-5.599357 0-7.7759339-1.4942639-1.5013558-3.0116111-1.572923-3.7456625-1.572923-.0184667 0-.0369334 0-.0538612 0" fill="#1d86ff"/></g></g></svg>