<svg xmlns="http://www.w3.org/2000/svg" xmlns:xlink="http://www.w3.org/1999/xlink" width="140" zoomAndPan="magnify" viewBox="0 0 104.88 104.999996" height="140" preserveAspectRatio="xMidYMid meet" version="1.0"><defs><clipPath id="63984eea3a"><path d="M 9.1875 2.351562 L 67 2.351562 L 67 94 L 9.1875 94 Z M 9.1875 2.351562 " clip-rule="nonzero"/></clipPath><clipPath id="c7b8e2a3ae"><path d="M 40 40 L 95.339844 40 L 95.339844 102 L 40 102 Z M 40 40 " clip-rule="nonzero"/></clipPath></defs><g clip-path="url(#63984eea3a)"><path fill="#000000" d="M 15.59375 6.378906 L 59.933594 6.378906 C 61.550781 6.378906 62.785156 7.632812 62.785156 9.246094 L 62.785156 13.136719 L 12.742188 13.136719 L 12.742188 9.246094 C 12.742188 7.632812 13.976562 6.378906 15.59375 6.378906 Z M 15.59375 2.84375 C 12.097656 2.84375 9.222656 5.730469 9.222656 9.246094 L 9.222656 87.128906 C 9.222656 90.644531 12.09375 93.53125 15.59375 93.53125 L 55.179688 93.53125 C 56.167969 93.554688 56.984375 92.757812 56.984375 91.761719 C 56.984375 90.769531 56.167969 89.96875 55.179688 89.996094 L 15.59375 89.996094 C 13.976562 89.996094 12.742188 88.746094 12.742188 87.128906 L 12.742188 82.824219 L 40.667969 82.824219 C 43.015625 82.824219 43.015625 79.28125 40.667969 79.28125 L 12.742188 79.28125 L 12.742188 16.675781 L 62.785156 16.675781 L 62.785156 37.132812 C 62.761719 38.128906 63.554688 38.945312 64.546875 38.945312 C 65.535156 38.945312 66.332031 38.128906 66.304688 37.132812 L 66.304688 9.246094 C 66.304688 5.730469 63.433594 2.84375 59.933594 2.84375 Z M 15.59375 2.84375 " fill-opacity="1" fill-rule="evenodd"/></g><path fill="#000000" d="M 31.40625 29.570312 C 30.445312 29.636719 29.714844 30.050781 28.972656 30.566406 C 27.484375 31.585938 25.949219 33.203125 24.417969 35.132812 C 21.367188 38.992188 18.414062 43.882812 17.84375 47.925781 C 17.429688 50.863281 18.929688 53.042969 20.441406 53.90625 C 21.949219 54.761719 23.457031 54.757812 23.457031 54.757812 C 25.726562 54.804688 25.789062 51.265625 23.515625 51.222656 C 23.515625 51.222656 22.71875 51.171875 22.085938 50.808594 C 21.449219 50.449219 20.972656 50.214844 21.226562 48.4375 C 21.574219 45.925781 24.273438 40.898438 27.066406 37.367188 C 27.714844 36.535156 28.375 35.769531 29.011719 35.140625 C 30.898438 33.261719 31.136719 33.660156 31.273438 35.414062 C 31.304688 35.859375 31.246094 36.375 31.175781 36.960938 C 30.925781 38.929688 30.378906 41.242188 29.804688 43.472656 C 29.234375 45.691406 28.640625 47.816406 28.277344 49.5625 C 28.097656 50.421875 27.996094 51.191406 27.949219 51.929688 C 27.886719 53.070312 28.34375 53.875 29.054688 54.488281 C 29.792969 55.136719 30.960938 55.136719 31.84375 54.882812 C 32.726562 54.621094 33.464844 54.105469 34.183594 53.46875 C 35.609375 52.191406 37.015625 50.300781 38.585938 47.882812 C 39.960938 45.90625 37.015625 43.847656 35.761719 45.898438 C 34.609375 47.675781 33.746094 49.011719 32.84375 49.949219 C 31.953125 50.871094 31.570312 50.46875 31.804688 49.453125 C 32.132812 48.027344 32.632812 46.25 33.117188 44.378906 C 33.699219 42.105469 34.269531 39.679688 34.550781 37.421875 C 34.84375 35.152344 34.933594 33.027344 34.066406 31.175781 C 33.613281 30.207031 32.371094 29.503906 31.40625 29.570312 Z M 31.40625 29.570312 " fill-opacity="1" fill-rule="nonzero"/><g clip-path="url(#c7b8e2a3ae)"><path fill="#000000" d="M 90.222656 84.804688 L 91.472656 86.832031 C 92.289062 88.949219 90.878906 89.722656 89.519531 90.730469 C 85.226562 93.160156 81.289062 95.6875 77.34375 97.683594 C 75.527344 98.535156 73.960938 98.585938 73.195312 97.46875 L 71.867188 95.453125 Z M 64.355469 54.796875 L 67.226562 59.785156 C 68.035156 61.195312 67.460938 63.359375 65.382812 64.867188 L 58.242188 57.667969 C 58.511719 57.578125 58.785156 57.5 59.0625 57.375 Z M 67.175781 43.945312 C 67.882812 44.0625 68.503906 44.550781 69.023438 45.496094 L 78.328125 60.535156 C 79.464844 62.683594 81.960938 61.542969 80.675781 59.46875 L 76.816406 52.75 C 78.976562 53.890625 81.394531 55.226562 83.023438 56.296875 C 84.742188 57.425781 85.511719 58.785156 85.765625 61.136719 L 86.84375 71.097656 C 87.167969 74.046875 86.933594 78.214844 88.546875 81.699219 L 69.980469 92.464844 C 68.734375 90.527344 67.433594 89.265625 65.667969 87.894531 L 49.554688 75.382812 C 48.574219 74.621094 48.242188 72.9375 48.347656 70.75 L 48.929688 64.660156 L 48.445312 59.734375 C 48.332031 58.605469 49.90625 58.085938 50.726562 58.949219 C 51.617188 59.890625 54.050781 62.035156 53.976562 66.058594 C 53.972656 66.710938 54.476562 67.097656 54.863281 67.492188 L 70.988281 83.761719 C 75.238281 88.046875 81.820312 81.4375 77.570312 77.152344 L 67.859375 67.367188 C 70.683594 64.917969 71.886719 60.839844 70.269531 58.015625 L 66.613281 51.640625 C 66.160156 50.863281 65.195312 50.550781 64.375 50.914062 L 57.644531 54.136719 C 55.59375 55.046875 55.082031 54.472656 54.691406 53.855469 C 54.300781 53.238281 54.507812 52.453125 54.613281 52.382812 L 64.917969 44.703125 C 65.847656 44.019531 66.464844 43.832031 67.175781 43.945312 Z M 62.835938 41.847656 L 52.53125 49.523438 C 52.042969 49.882812 51.675781 50.3125 51.414062 50.785156 L 48.714844 48.070312 C 48.449219 47.796875 48.101562 47.621094 47.726562 47.5625 L 42.386719 46.324219 C 41.28125 46.269531 40.40625 47.242188 40.5625 48.34375 L 41.667969 53.710938 C 41.71875 54.09375 41.902344 54.445312 42.171875 54.71875 L 44.640625 57.199219 L 45.09375 65.070312 L 44.839844 70.582031 C 44.710938 73.167969 44.957031 76.277344 47.402344 78.183594 L 63.515625 90.683594 C 65.398438 92.15625 66.234375 92.929688 67.4375 95.019531 L 69.269531 97.964844 C 70.546875 99.632812 72.167969 101.71875 74.441406 101.941406 C 76.550781 102.152344 78.460938 101.195312 80.636719 99.949219 L 89.628906 94.765625 C 91.800781 93.519531 93.574219 92.328125 94.5 90.414062 C 95.421875 88.5 95.035156 86.183594 93.722656 83.835938 L 91.839844 80.484375 C 90.574219 78.273438 90.738281 74.351562 90.347656 70.710938 L 89.265625 60.769531 C 88.925781 57.664062 87.488281 55.007812 84.949219 53.335938 C 81.144531 50.828125 74.804688 47.734375 74.195312 47.441406 L 72.0625 43.722656 C 71.238281 42.285156 70.03125 41.003906 67.839844 40.664062 C 65.644531 40.320312 64.199219 40.84375 62.835938 41.847656 Z M 62.835938 41.847656 " fill-opacity="1" fill-rule="nonzero"/></g></svg>