<svg xmlns="http://www.w3.org/2000/svg" xmlns:xlink="http://www.w3.org/1999/xlink" width="140" zoomAndPan="magnify" viewBox="0 0 104.88 104.999996" height="140" preserveAspectRatio="xMidYMid meet" version="1.0"><defs><clipPath id="cd77c383bf"><path d="M 9.457031 12.421875 L 100 12.421875 L 100 98 L 9.457031 98 Z M 9.457031 12.421875 " clip-rule="nonzero"/></clipPath></defs><g clip-path="url(#cd77c383bf)"><path fill="#231f20" d="M 85.644531 57.976562 L 85.644531 18.273438 L 77.023438 18.273438 L 77.023438 12.492188 L 73.863281 12.492188 L 73.863281 18.273438 L 63.601562 18.273438 L 63.601562 12.492188 L 60.441406 12.492188 L 60.441406 18.273438 L 49.277344 18.273438 L 49.277344 12.492188 L 46.117188 12.492188 L 46.117188 18.273438 L 36.597656 18.273438 L 36.597656 12.492188 L 33.4375 12.492188 L 33.4375 18.273438 L 22.3125 18.273438 L 22.3125 12.492188 L 19.152344 12.492188 L 19.152344 18.273438 L 9.457031 18.273438 L 9.457031 83.574219 L 58.726562 83.574219 C 58.863281 83.984375 59.011719 84.390625 59.171875 84.792969 C 59.332031 85.195312 59.507812 85.589844 59.691406 85.980469 C 59.878906 86.371094 60.074219 86.757812 60.285156 87.132812 C 60.496094 87.511719 60.71875 87.882812 60.953125 88.246094 C 61.1875 88.613281 61.429688 88.96875 61.6875 89.316406 C 61.945312 89.664062 62.210938 90.003906 62.488281 90.335938 C 62.765625 90.667969 63.054688 90.992188 63.355469 91.308594 C 63.652344 91.621094 63.960938 91.925781 64.277344 92.21875 C 64.597656 92.515625 64.921875 92.796875 65.257812 93.074219 C 65.59375 93.347656 65.9375 93.609375 66.292969 93.863281 C 66.644531 94.113281 67.003906 94.355469 67.371094 94.585938 C 67.742188 94.816406 68.117188 95.035156 68.496094 95.242188 C 68.878906 95.445312 69.265625 95.640625 69.660156 95.824219 C 70.054688 96.003906 70.453125 96.175781 70.859375 96.332031 C 71.265625 96.488281 71.675781 96.632812 72.089844 96.765625 C 72.503906 96.894531 72.921875 97.015625 73.339844 97.117188 C 73.761719 97.222656 74.1875 97.316406 74.613281 97.394531 C 75.042969 97.472656 75.472656 97.539062 75.902344 97.589844 C 76.335938 97.640625 76.765625 97.679688 77.203125 97.703125 C 77.636719 97.726562 78.070312 97.738281 78.503906 97.734375 C 78.9375 97.734375 79.371094 97.71875 79.804688 97.6875 C 80.238281 97.65625 80.671875 97.613281 81.101562 97.554688 C 81.535156 97.5 81.960938 97.429688 82.390625 97.34375 C 82.816406 97.261719 83.238281 97.164062 83.660156 97.054688 C 84.078125 96.941406 84.496094 96.820312 84.90625 96.683594 C 85.320312 96.546875 85.726562 96.394531 86.128906 96.234375 C 86.53125 96.070312 86.929688 95.898438 87.320312 95.710938 C 87.714844 95.523438 88.097656 95.324219 88.476562 95.113281 C 88.855469 94.902344 89.230469 94.679688 89.59375 94.445312 C 89.957031 94.210938 90.316406 93.964844 90.664062 93.707031 C 91.015625 93.449219 91.355469 93.179688 91.6875 92.902344 C 92.019531 92.625 92.34375 92.335938 92.65625 92.039062 C 92.972656 91.738281 93.277344 91.429688 93.570312 91.113281 C 93.863281 90.796875 94.148438 90.46875 94.421875 90.132812 C 94.695312 89.796875 94.957031 89.453125 95.210938 89.101562 C 95.460938 88.75 95.703125 88.390625 95.933594 88.023438 C 96.160156 87.65625 96.378906 87.28125 96.582031 86.902344 C 96.789062 86.519531 96.980469 86.132812 97.164062 85.742188 C 97.34375 85.347656 97.511719 84.949219 97.667969 84.546875 C 97.824219 84.144531 97.964844 83.734375 98.09375 83.324219 C 98.222656 82.910156 98.339844 82.496094 98.445312 82.074219 C 98.546875 81.65625 98.636719 81.234375 98.714844 80.808594 C 98.789062 80.382812 98.851562 79.957031 98.902344 79.527344 C 98.949219 79.097656 98.988281 78.667969 99.007812 78.234375 C 99.03125 77.804688 99.039062 77.371094 99.035156 76.941406 C 99.027344 76.507812 99.007812 76.078125 98.976562 75.648438 C 98.941406 75.214844 98.898438 74.785156 98.835938 74.359375 C 98.777344 73.929688 98.703125 73.507812 98.617188 73.082031 C 98.527344 72.660156 98.429688 72.238281 98.3125 71.824219 C 98.199219 71.40625 98.074219 70.992188 97.933594 70.582031 C 97.792969 70.175781 97.640625 69.769531 97.476562 69.371094 C 97.308594 68.972656 97.132812 68.578125 96.941406 68.191406 C 96.75 67.800781 96.546875 67.421875 96.332031 67.042969 C 96.117188 66.667969 95.890625 66.300781 95.652344 65.941406 C 95.414062 65.578125 95.164062 65.226562 94.902344 64.878906 C 94.644531 64.535156 94.371094 64.195312 94.089844 63.867188 C 93.808594 63.539062 93.515625 63.21875 93.214844 62.910156 C 92.910156 62.597656 92.597656 62.300781 92.277344 62.007812 C 91.957031 61.71875 91.625 61.4375 91.285156 61.167969 C 90.945312 60.898438 90.601562 60.636719 90.242188 60.390625 C 89.886719 60.140625 89.523438 59.90625 89.152344 59.679688 C 88.785156 59.453125 88.40625 59.242188 88.023438 59.039062 C 87.636719 58.835938 87.246094 58.648438 86.851562 58.46875 C 86.453125 58.292969 86.054688 58.128906 85.644531 57.976562 Z M 19.152344 21.414062 L 19.152344 25.125 L 22.3125 25.125 L 22.3125 21.414062 L 33.4375 21.414062 L 33.4375 25.125 L 36.597656 25.125 L 36.597656 21.414062 L 46.117188 21.414062 L 46.117188 25.125 L 49.277344 25.125 L 49.277344 21.414062 L 60.402344 21.414062 L 60.402344 25.125 L 63.5625 25.125 L 63.5625 21.414062 L 73.824219 21.414062 L 73.824219 25.125 L 76.984375 25.125 L 76.984375 21.414062 L 82.449219 21.414062 L 82.449219 32.085938 L 12.617188 32.085938 L 12.617188 21.414062 Z M 12.617188 80.4375 L 12.617188 35.226562 L 82.488281 35.226562 L 82.488281 57.058594 C 82.179688 56.996094 81.871094 56.941406 81.554688 56.894531 L 81.492188 56.894531 C 81.035156 56.824219 80.578125 56.777344 80.109375 56.738281 L 79.769531 56.738281 C 79.304688 56.738281 78.839844 56.679688 78.367188 56.679688 C 77.6875 56.683594 77.015625 56.714844 76.339844 56.78125 C 75.667969 56.847656 75 56.945312 74.335938 57.078125 C 73.671875 57.210938 73.015625 57.375 72.367188 57.570312 C 71.722656 57.765625 71.085938 57.992188 70.460938 58.25 C 69.835938 58.507812 69.222656 58.792969 68.625 59.109375 C 68.03125 59.429688 67.449219 59.773438 66.886719 60.148438 C 66.324219 60.519531 65.78125 60.921875 65.257812 61.347656 C 64.734375 61.773438 64.234375 62.226562 63.757812 62.699219 C 63.277344 63.175781 62.824219 63.675781 62.394531 64.195312 C 61.964844 64.714844 61.5625 65.253906 61.183594 65.8125 C 60.808594 66.371094 60.460938 66.945312 60.140625 67.539062 C 59.824219 68.132812 59.535156 68.742188 59.273438 69.363281 C 59.015625 69.984375 58.785156 70.613281 58.589844 71.257812 C 58.394531 71.902344 58.226562 72.554688 58.09375 73.214844 C 57.960938 73.871094 57.863281 74.535156 57.796875 75.207031 C 57.730469 75.875 57.695312 76.546875 57.695312 77.21875 C 57.695312 77.722656 57.695312 78.222656 57.75 78.726562 L 57.796875 79.1875 C 57.796875 79.535156 57.867188 79.878906 57.921875 80.226562 C 57.921875 80.304688 57.921875 80.390625 57.921875 80.46875 Z M 78.367188 94.5625 C 77.40625 94.5625 76.453125 94.488281 75.503906 94.335938 C 74.558594 94.179688 73.628906 93.949219 72.71875 93.644531 C 71.808594 93.339844 70.933594 92.960938 70.085938 92.511719 C 69.238281 92.0625 68.433594 91.546875 67.671875 90.964844 C 66.910156 90.382812 66.203125 89.746094 65.546875 89.050781 C 64.890625 88.351562 64.296875 87.605469 63.765625 86.8125 C 63.234375 86.019531 62.769531 85.1875 62.375 84.316406 C 61.980469 83.449219 61.660156 82.550781 61.414062 81.628906 C 61.03125 80.179688 60.839844 78.707031 60.84375 77.210938 C 60.84375 76.640625 60.875 76.074219 60.929688 75.507812 C 60.988281 74.9375 61.074219 74.375 61.183594 73.816406 C 61.296875 73.257812 61.4375 72.707031 61.605469 72.160156 C 61.769531 71.617188 61.964844 71.082031 62.183594 70.554688 C 62.402344 70.027344 62.648438 69.515625 62.917969 69.011719 C 63.191406 68.511719 63.484375 68.023438 63.804688 67.546875 C 64.121094 67.074219 64.464844 66.617188 64.828125 66.175781 C 65.191406 65.738281 65.574219 65.316406 65.980469 64.914062 C 66.386719 64.511719 66.8125 64.128906 67.253906 63.765625 C 67.699219 63.40625 68.15625 63.066406 68.632812 62.75 C 69.109375 62.433594 69.601562 62.140625 70.109375 61.871094 C 70.613281 61.601562 71.128906 61.359375 71.660156 61.140625 C 72.191406 60.921875 72.730469 60.730469 73.277344 60.566406 C 73.824219 60.398438 74.382812 60.261719 74.941406 60.148438 C 75.503906 60.039062 76.070312 59.953125 76.640625 59.898438 C 77.210938 59.839844 77.785156 59.8125 78.359375 59.8125 C 78.839844 59.8125 79.3125 59.8125 79.777344 59.875 C 80.632812 59.9375 81.480469 60.0625 82.3125 60.261719 C 82.738281 60.355469 83.167969 60.472656 83.585938 60.605469 C 84.574219 60.914062 85.53125 61.308594 86.449219 61.785156 C 87.367188 62.261719 88.238281 62.816406 89.058594 63.449219 C 89.878906 64.082031 90.636719 64.78125 91.332031 65.542969 C 92.027344 66.308594 92.648438 67.128906 93.199219 68.003906 C 93.746094 68.878906 94.214844 69.796875 94.597656 70.753906 C 94.984375 71.710938 95.28125 72.695312 95.488281 73.707031 C 95.699219 74.714844 95.816406 75.738281 95.84375 76.769531 C 95.871094 77.800781 95.804688 78.824219 95.648438 79.84375 C 95.492188 80.863281 95.246094 81.859375 94.910156 82.835938 C 94.574219 83.8125 94.15625 84.75 93.652344 85.652344 C 93.148438 86.554688 92.570312 87.40625 91.914062 88.203125 C 91.257812 89.003906 90.535156 89.738281 89.75 90.414062 C 88.964844 91.085938 88.121094 91.683594 87.230469 92.207031 C 86.335938 92.730469 85.402344 93.171875 84.429688 93.53125 C 83.457031 93.886719 82.460938 94.160156 81.4375 94.34375 C 80.417969 94.523438 79.386719 94.617188 78.351562 94.617188 Z M 78.367188 94.5625 " fill-opacity="1" fill-rule="nonzero"/></g><path fill="#231f20" d="M 77.023438 68.46875 L 73.863281 68.46875 L 73.863281 80.890625 L 84.683594 87.171875 L 86.277344 84.460938 L 77.023438 79.085938 Z M 77.023438 68.46875 " fill-opacity="1" fill-rule="nonzero"/><path fill="#231f20" d="M 31.828125 50.703125 L 42.738281 50.703125 L 42.738281 39.847656 L 31.828125 39.847656 Z M 34.984375 42.988281 L 39.582031 42.988281 L 39.582031 47.5625 L 34.984375 47.5625 Z M 34.984375 42.988281 " fill-opacity="1" fill-rule="nonzero"/><path fill="#231f20" d="M 46.070312 50.703125 L 56.984375 50.703125 L 56.984375 39.847656 L 46.070312 39.847656 Z M 49.230469 42.988281 L 53.824219 42.988281 L 53.824219 47.5625 L 49.230469 47.5625 Z M 49.230469 42.988281 " fill-opacity="1" fill-rule="nonzero"/><path fill="#231f20" d="M 71.734375 39.847656 L 60.8125 39.847656 L 60.8125 50.703125 L 71.734375 50.703125 Z M 68.574219 47.5625 L 63.972656 47.5625 L 63.972656 42.988281 L 68.574219 42.988281 Z M 68.574219 47.5625 " fill-opacity="1" fill-rule="nonzero"/><path fill="#231f20" d="M 17.527344 50.703125 L 28.4375 50.703125 L 28.4375 39.847656 L 17.527344 39.847656 Z M 20.683594 42.988281 L 25.28125 42.988281 L 25.28125 47.5625 L 20.683594 47.5625 Z M 20.683594 42.988281 " fill-opacity="1" fill-rule="nonzero"/><path fill="#231f20" d="M 17.527344 71.425781 L 28.4375 71.425781 L 28.4375 60.566406 L 17.527344 60.566406 Z M 20.683594 63.722656 L 25.28125 63.722656 L 25.28125 68.289062 L 20.683594 68.289062 Z M 20.683594 63.722656 " fill-opacity="1" fill-rule="nonzero"/><path fill="#231f20" d="M 31.828125 71.425781 L 42.738281 71.425781 L 42.738281 60.566406 L 31.828125 60.566406 Z M 34.984375 63.722656 L 39.582031 63.722656 L 39.582031 68.289062 L 34.984375 68.289062 Z M 34.984375 63.722656 " fill-opacity="1" fill-rule="nonzero"/><path fill="#231f20" d="M 46.070312 71.425781 L 56.984375 71.425781 L 56.984375 60.566406 L 46.070312 60.566406 Z M 49.230469 63.722656 L 53.824219 63.722656 L 53.824219 68.289062 L 49.230469 68.289062 Z M 49.230469 63.722656 " fill-opacity="1" fill-rule="nonzero"/></svg>