<svg xmlns="http://www.w3.org/2000/svg" xmlns:xlink="http://www.w3.org/1999/xlink" width="140" zoomAndPan="magnify" viewBox="0 0 104.88 104.999996" height="140" preserveAspectRatio="xMidYMid meet" version="1.0"><defs><clipPath id="6e107ed823"><path d="M 11.246094 12 L 94 12 L 94 94 L 11.246094 94 Z M 11.246094 12 " clip-rule="nonzero"/></clipPath></defs><g clip-path="url(#6e107ed823)"><path fill="#000000" d="M 92.089844 51.382812 C 90.785156 34.214844 78.320312 19.730469 61.597656 15.925781 C 57.179688 11.003906 48.464844 11.003906 44.050781 15.925781 C 27.328125 19.730469 14.863281 34.214844 13.554688 51.382812 L 12.566406 53.101562 C 11.21875 55.441406 11.816406 58.363281 13.828125 60.027344 C 21.226562 105.050781 84.4375 105.019531 91.816406 60.027344 C 93.832031 58.363281 94.425781 55.441406 93.082031 53.101562 Z M 52.824219 14.910156 C 58.066406 14.910156 62.335938 19.191406 62.335938 24.453125 C 61.855469 37.09375 43.789062 37.089844 43.3125 24.453125 C 43.3125 19.191406 47.578125 14.910156 52.824219 14.910156 Z M 41.699219 19.390625 C 37.933594 27.195312 44.128906 36.925781 52.824219 36.722656 C 61.515625 36.925781 67.714844 27.195312 63.949219 19.390625 C 75.699219 23.136719 84.757812 32.671875 88.089844 44.429688 L 83.328125 36.15625 C 82.601562 34.894531 81.429688 33.992188 80.027344 33.617188 C 76.105469 32.566406 70.871094 36.5625 72.160156 40.890625 C 65.519531 46.035156 58.355469 34.574219 45.695312 44.859375 C 42.082031 42.417969 37.792969 41.09375 33.449219 41.042969 C 34.152344 38.722656 33.070312 36.039062 30.949219 34.859375 C 29.382812 33.820312 27.503906 33.03125 25.617188 33.617188 C 24.214844 33.992188 23.042969 34.894531 22.316406 36.15625 L 17.554688 44.429688 C 20.886719 32.671875 29.945312 23.136719 41.699219 19.390625 Z M 60.109375 64.945312 C 60.117188 64.953125 65.277344 70.132812 65.285156 70.136719 C 67.761719 72.714844 64.015625 76.476562 61.445312 73.992188 C 61.445312 73.992188 56.5 69.03125 56.5 69.03125 C 55.96875 68.5 55.109375 68.5 54.578125 69.03125 C 54.050781 69.566406 54.050781 70.429688 54.578125 70.964844 C 54.597656 70.976562 59.519531 75.925781 59.535156 75.933594 C 61.984375 78.566406 58.285156 82.1875 55.671875 79.773438 C 55.667969 79.765625 53.761719 77.859375 53.757812 77.851562 C 52.984375 77.128906 52.015625 75.605469 50.816406 76.535156 C 53.183594 72.910156 50.121094 67.859375 45.824219 68.324219 C 46.382812 63.621094 40.386719 60.582031 36.917969 63.777344 C 36.050781 59.773438 30.65625 58.269531 27.832031 61.269531 C 27.832031 61.269531 23.675781 65.4375 23.675781 65.4375 C 22.410156 64.546875 21.195312 62.699219 20.808594 61.449219 C 21.796875 60.980469 22.625 60.226562 23.1875 59.253906 L 32.070312 43.820312 C 36.097656 43.585938 40.152344 44.589844 43.582031 46.71875 C 42.722656 47.539062 41.847656 48.421875 40.9375 49.445312 C 40.664062 49.753906 40.546875 50.167969 40.613281 50.574219 C 41.378906 55.019531 45.59375 59.125 52.070312 55.660156 C 58.683594 52.34375 61.945312 55.808594 68.699219 63.960938 C 69.660156 65.183594 69.746094 65.34375 71.75 65.710938 C 72.40625 68.289062 69.070312 70.105469 67.210938 68.214844 C 67.210938 68.214844 62.035156 63.019531 62.03125 63.019531 C 60.773438 61.765625 58.855469 63.679688 60.109375 64.945312 Z M 30.820312 73.691406 C 32.625 71.878906 36.667969 67.828125 38.507812 65.980469 C 41.121094 63.558594 44.824219 67.210938 42.351562 69.835938 C 42.351562 69.835938 34.664062 77.546875 34.664062 77.546875 C 32.097656 80.03125 28.339844 76.269531 30.820312 73.691406 Z M 29.105469 71.554688 C 26.535156 74.03125 22.789062 70.269531 25.269531 67.691406 C 25.269531 67.691406 29.753906 63.195312 29.753906 63.195312 C 30.285156 62.664062 30.980469 62.398438 31.675781 62.398438 C 34 62.316406 35.328125 65.429688 33.597656 67.050781 C 32.566406 68.09375 30.164062 70.492188 29.105469 71.554688 Z M 36.585938 79.472656 L 44.273438 71.761719 C 46.835938 69.269531 50.601562 73.042969 48.117188 75.617188 C 46.367188 77.371094 42.128906 81.625 40.429688 83.328125 C 37.867188 85.8125 34.101562 82.054688 36.585938 79.472656 Z M 50.035156 77.546875 C 50.144531 77.4375 50.226562 77.3125 50.320312 77.199219 C 49.890625 78.25 51.261719 79.125 51.84375 79.785156 C 54.296875 82.414062 50.605469 86.039062 47.996094 83.628906 C 47.996094 83.628906 45.984375 81.613281 45.984375 81.613281 Z M 71.285156 62.816406 C 64.851562 55.027344 59.855469 48.582031 50.855469 53.222656 C 47.148438 55.25 44.332031 54.019531 43.445312 50.726562 C 57.722656 34.960938 63.410156 49.609375 73.335938 43.402344 L 82.265625 58.921875 L 82.488281 59.527344 C 77.375 64.203125 72.523438 63.1875 71.285156 62.816406 Z M 14.917969 54.464844 L 24.671875 37.519531 C 25.375 36.234375 27.132812 35.761719 28.382812 36.519531 C 29.335938 37.070312 30.628906 37.667969 30.859375 38.875 C 31.042969 39.578125 30.949219 40.3125 30.585938 40.945312 L 20.832031 57.890625 C 20.472656 58.523438 19.882812 58.972656 19.183594 59.160156 C 18.035156 59.558594 16.855469 58.753906 15.914062 58.191406 C 14.617188 57.4375 14.167969 55.765625 14.917969 54.464844 Z M 52.824219 91.246094 C 35.277344 91.246094 20.273438 78.730469 16.875 61.730469 C 17.273438 61.855469 17.683594 61.929688 18.097656 61.960938 C 18.585938 63.730469 20.226562 66.371094 22.132812 67.65625 C 20.636719 71.042969 23.640625 75.382812 27.363281 75.054688 C 26.878906 78.210938 29.921875 81.457031 33.113281 81.03125 C 32.632812 85.914062 38.933594 88.832031 42.351562 85.257812 C 42.351562 85.257812 44.0625 83.539062 44.0625 83.539062 L 46.074219 85.558594 C 48.941406 88.667969 54.609375 86.886719 55.246094 82.742188 C 58.804688 84.671875 63.457031 81.449219 63 77.480469 C 66.105469 77.890625 69.117188 74.796875 68.761719 71.703125 C 71.976562 72.089844 74.871094 69.011719 74.527344 65.871094 C 77.253906 65.753906 80.886719 64.757812 84.558594 61.292969 C 85.820312 62.019531 87.386719 62.183594 88.769531 61.730469 C 85.375 78.730469 70.371094 91.246094 52.824219 91.246094 Z M 89.734375 58.191406 L 88.527344 58.890625 C 87.277344 59.648438 85.515625 59.175781 84.8125 57.890625 C 84.8125 57.890625 75.0625 40.945312 75.0625 40.945312 C 74.304688 39.691406 74.773438 37.925781 76.054688 37.21875 L 77.261719 36.519531 C 78.515625 35.761719 80.269531 36.234375 80.972656 37.519531 L 90.726562 54.464844 C 91.476562 55.765625 91.03125 57.4375 89.734375 58.191406 Z M 89.734375 58.191406 " fill-opacity="1" fill-rule="nonzero"/></g><path fill="#000000" d="M 86.792969 53.078125 C 85.007812 53.113281 85.007812 55.769531 86.792969 55.804688 C 88.578125 55.769531 88.578125 53.113281 86.792969 53.078125 Z M 86.792969 53.078125 " fill-opacity="1" fill-rule="nonzero"/><path fill="#000000" d="M 18.855469 53.078125 C 17.070312 53.113281 17.070312 55.769531 18.855469 55.804688 C 20.640625 55.769531 20.640625 53.113281 18.855469 53.078125 Z M 18.855469 53.078125 " fill-opacity="1" fill-rule="nonzero"/><path fill="#000000" d="M 50.503906 28.144531 C 51.035156 28.675781 51.894531 28.675781 52.425781 28.144531 L 59.21875 21.328125 C 60.46875 20.0625 58.558594 18.144531 57.296875 19.398438 C 57.296875 19.398438 51.464844 25.25 51.464844 25.25 L 48.347656 22.125 C 47.085938 20.871094 45.175781 22.789062 46.425781 24.054688 C 46.425781 24.054688 50.503906 28.144531 50.503906 28.144531 Z M 50.503906 28.144531 " fill-opacity="1" fill-rule="nonzero"/></svg>