<svg xmlns="http://www.w3.org/2000/svg" xmlns:xlink="http://www.w3.org/1999/xlink" width="140" zoomAndPan="magnify" viewBox="0 0 104.88 104.999996" height="140" preserveAspectRatio="xMidYMid meet" version="1.0"><defs><clipPath id="4a3ab3dfd7"><path d="M 9.65625 14.808594 L 94.402344 14.808594 L 94.402344 90.449219 L 9.65625 90.449219 Z M 9.65625 14.808594 " clip-rule="nonzero"/></clipPath></defs><g clip-path="url(#4a3ab3dfd7)"><path fill="#100f0d" d="M 79.664062 55.53125 L 91.582031 55.53125 L 91.582031 67.164062 L 79.664062 67.164062 C 76.453125 67.148438 73.855469 64.53125 73.871094 61.320312 C 73.878906 58.125 76.46875 55.539062 79.664062 55.53125 Z M 12.457031 35.050781 L 86.902344 35.050781 C 89.492188 35.050781 91.582031 37.152344 91.582031 39.730469 C 91.582031 39.730469 91.582031 39.738281 91.582031 39.738281 L 91.582031 52.71875 L 79.664062 52.71875 C 74.894531 52.726562 71.042969 56.597656 71.050781 61.367188 C 71.058594 66.121094 74.910156 69.964844 79.664062 69.976562 L 91.582031 69.976562 L 91.582031 82.957031 C 91.589844 85.546875 89.492188 87.644531 86.902344 87.644531 L 17.144531 87.644531 C 14.554688 87.644531 12.457031 85.546875 12.457031 82.964844 C 12.457031 82.957031 12.457031 82.957031 12.457031 82.957031 Z M 73.960938 22.882812 L 79.386719 22.882812 C 81.976562 22.882812 84.066406 24.980469 84.066406 27.570312 L 84.066406 32.246094 L 77.445312 32.246094 Z M 17.082031 22.882812 L 47.464844 22.882812 L 22.222656 32.246094 L 17.082031 32.246094 C 14.496094 32.226562 12.417969 30.113281 12.441406 27.523438 C 12.464844 24.996094 14.488281 22.945312 17.007812 22.882812 Z M 69.101562 17.875 L 74.445312 32.246094 L 30.355469 32.246094 Z M 69.679688 14.800781 C 69.457031 14.800781 69.222656 14.835938 69.011719 14.917969 L 55.101562 20.078125 L 17.144531 20.078125 C 13.007812 20.078125 9.65625 23.433594 9.65625 27.570312 L 9.65625 82.957031 C 9.65625 87.09375 13.007812 90.449219 17.144531 90.449219 L 86.910156 90.449219 C 91.046875 90.449219 94.398438 87.09375 94.398438 82.957031 L 94.398438 39.738281 C 94.402344 35.601562 91.046875 32.246094 86.910156 32.246094 C 86.902344 32.246094 86.894531 32.246094 86.878906 32.246094 L 86.878906 27.570312 C 86.878906 23.433594 83.53125 20.078125 79.394531 20.078125 L 72.925781 20.078125 L 71.417969 16.019531 C 71.148438 15.296875 70.464844 14.8125 69.6875 14.800781 L 69.679688 14.800781 " fill-opacity="1" fill-rule="nonzero"/></g><path fill="#100f0d" d="M 83.007812 61.34375 C 83.007812 60.089844 81.984375 59.066406 80.726562 59.066406 C 79.460938 59.066406 78.4375 60.082031 78.4375 61.34375 C 78.4375 62.609375 79.460938 63.628906 80.71875 63.628906 C 81.984375 63.628906 83.007812 62.609375 83.007812 61.351562 C 83.007812 61.351562 83.007812 61.351562 83.007812 61.34375 " fill-opacity="1" fill-rule="nonzero"/></svg>