<svg xmlns="http://www.w3.org/2000/svg" xmlns:xlink="http://www.w3.org/1999/xlink" width="140" zoomAndPan="magnify" viewBox="0 0 104.88 104.999996" height="140" preserveAspectRatio="xMidYMid meet" version="1.0"><defs><clipPath id="e6944c5af5"><path d="M 10.488281 13.65625 L 94.390625 13.65625 L 94.390625 84 L 10.488281 84 Z M 10.488281 13.65625 " clip-rule="nonzero"/></clipPath><clipPath id="b611343e91"><path d="M 10.488281 86 L 94.390625 86 L 94.390625 88 L 10.488281 88 Z M 10.488281 86 " clip-rule="nonzero"/></clipPath><clipPath id="b14ef0c474"><path d="M 10.488281 89 L 94.390625 89 L 94.390625 91.566406 L 10.488281 91.566406 Z M 10.488281 89 " clip-rule="nonzero"/></clipPath></defs><g clip-path="url(#e6944c5af5)"><path fill="#000000" d="M 94.371094 26.941406 C 94.371094 23.933594 91.925781 21.484375 88.917969 21.484375 L 84.984375 21.484375 L 84.984375 16.945312 C 84.984375 15.128906 83.503906 13.648438 81.6875 13.648438 L 79.515625 13.648438 C 77.699219 13.648438 76.21875 15.128906 76.21875 16.945312 L 76.21875 21.484375 L 70.898438 21.484375 L 70.898438 16.945312 C 70.898438 15.128906 69.417969 13.648438 67.601562 13.648438 L 65.429688 13.648438 C 63.613281 13.648438 62.132812 15.128906 62.132812 16.945312 L 62.132812 21.484375 L 56.8125 21.484375 L 56.8125 16.945312 C 56.8125 15.128906 55.335938 13.648438 53.519531 13.648438 L 51.34375 13.648438 C 49.527344 13.648438 48.050781 15.128906 48.050781 16.945312 L 48.050781 21.484375 L 42.726562 21.484375 L 42.726562 16.945312 C 42.726562 15.128906 41.25 13.648438 39.433594 13.648438 L 37.257812 13.648438 C 35.441406 13.648438 33.964844 15.128906 33.964844 16.945312 L 33.964844 21.484375 L 28.644531 21.484375 L 28.644531 16.945312 C 28.644531 15.128906 27.164062 13.648438 25.347656 13.648438 L 23.175781 13.648438 C 21.359375 13.648438 19.878906 15.128906 19.878906 16.945312 L 19.878906 21.484375 L 15.945312 21.484375 C 15.945312 21.484375 15.941406 21.484375 15.941406 21.484375 C 12.9375 21.484375 10.492188 23.929688 10.492188 26.941406 L 10.492188 82.675781 C 10.492188 83.171875 10.890625 83.570312 11.386719 83.570312 L 93.476562 83.570312 C 93.972656 83.570312 94.371094 83.171875 94.371094 82.675781 Z M 78.007812 16.945312 C 78.007812 16.117188 78.683594 15.441406 79.515625 15.441406 L 81.6875 15.441406 C 82.515625 15.441406 83.191406 16.117188 83.191406 16.945312 L 83.191406 22.375 C 83.191406 22.375 83.191406 22.378906 83.191406 22.378906 C 83.191406 22.382812 83.191406 22.382812 83.191406 22.382812 L 83.191406 27.808594 C 83.191406 28.640625 82.515625 29.316406 81.6875 29.316406 L 79.515625 29.316406 C 78.683594 29.316406 78.007812 28.640625 78.007812 27.808594 Z M 63.925781 22.378906 L 63.925781 16.945312 C 63.925781 16.117188 64.597656 15.441406 65.429688 15.441406 L 67.601562 15.441406 C 68.433594 15.441406 69.105469 16.117188 69.105469 16.945312 L 69.105469 27.808594 C 69.105469 28.640625 68.433594 29.316406 67.601562 29.316406 L 65.429688 29.316406 C 64.597656 29.316406 63.925781 28.640625 63.925781 27.808594 Z M 49.839844 22.386719 C 49.839844 22.382812 49.839844 22.382812 49.839844 22.378906 C 49.839844 22.375 49.839844 22.375 49.839844 22.371094 L 49.839844 16.945312 C 49.839844 16.117188 50.515625 15.441406 51.34375 15.441406 L 53.519531 15.441406 C 54.347656 15.441406 55.023438 16.117188 55.023438 16.945312 L 55.023438 22.371094 C 55.023438 22.371094 55.019531 22.375 55.019531 22.378906 C 55.019531 22.382812 55.023438 22.382812 55.023438 22.386719 L 55.023438 27.808594 C 55.023438 28.640625 54.347656 29.3125 53.519531 29.3125 L 51.34375 29.3125 C 50.515625 29.3125 49.839844 28.640625 49.839844 27.808594 Z M 35.753906 16.945312 C 35.753906 16.117188 36.429688 15.441406 37.257812 15.441406 L 39.433594 15.441406 C 40.261719 15.441406 40.9375 16.117188 40.9375 16.945312 L 40.9375 27.808594 C 40.9375 28.640625 40.261719 29.316406 39.433594 29.316406 L 37.257812 29.316406 C 36.429688 29.316406 35.753906 28.640625 35.753906 27.808594 Z M 21.671875 22.382812 C 21.671875 22.378906 21.671875 22.378906 21.671875 22.378906 L 21.671875 16.945312 C 21.671875 16.117188 22.34375 15.441406 23.175781 15.441406 L 25.347656 15.441406 C 26.175781 15.441406 26.851562 16.117188 26.851562 16.945312 L 26.851562 27.808594 C 26.851562 28.640625 26.175781 29.316406 25.347656 29.316406 L 23.175781 29.316406 C 22.34375 29.316406 21.671875 28.640625 21.671875 27.808594 Z M 92.582031 81.777344 L 12.28125 81.777344 L 12.28125 26.941406 C 12.28125 24.921875 13.921875 23.277344 15.941406 23.277344 L 19.878906 23.277344 L 19.878906 27.808594 C 19.878906 29.628906 21.359375 31.105469 23.175781 31.105469 L 25.347656 31.105469 C 27.164062 31.105469 28.644531 29.628906 28.644531 27.808594 L 28.644531 23.273438 L 33.964844 23.273438 L 33.964844 27.808594 C 33.964844 29.628906 35.441406 31.105469 37.257812 31.105469 L 39.433594 31.105469 C 41.25 31.105469 42.726562 29.628906 42.726562 27.808594 L 42.726562 23.273438 L 48.050781 23.273438 L 48.050781 27.808594 C 48.050781 29.628906 49.527344 31.105469 51.34375 31.105469 L 53.519531 31.105469 C 55.335938 31.105469 56.8125 29.628906 56.8125 27.808594 L 56.8125 23.273438 L 62.132812 23.273438 L 62.132812 27.808594 C 62.132812 29.628906 63.613281 31.105469 65.429688 31.105469 L 67.601562 31.105469 C 69.417969 31.105469 70.898438 29.628906 70.898438 27.808594 L 70.898438 23.273438 L 76.21875 23.273438 L 76.21875 27.808594 C 76.21875 29.628906 77.699219 31.105469 79.515625 31.105469 L 81.6875 31.105469 C 83.503906 31.105469 84.984375 29.628906 84.984375 27.808594 L 84.984375 23.277344 L 88.917969 23.277344 C 90.9375 23.277344 92.582031 24.921875 92.582031 26.941406 Z M 92.582031 81.777344 " fill-opacity="1" fill-rule="nonzero"/></g><path fill="#000000" d="M 86.480469 35.136719 L 18.378906 35.136719 C 17.886719 35.136719 17.484375 35.539062 17.484375 36.03125 L 17.484375 76.390625 C 17.484375 76.886719 17.886719 77.289062 18.378906 77.289062 L 86.480469 77.289062 C 86.976562 77.289062 87.378906 76.886719 87.378906 76.390625 L 87.378906 36.03125 C 87.378906 35.539062 86.976562 35.136719 86.480469 35.136719 Z M 34.511719 75.496094 L 19.273438 75.496094 L 19.273438 63.835938 L 34.511719 63.835938 Z M 34.511719 62.042969 L 19.273438 62.042969 L 19.273438 50.382812 L 34.511719 50.382812 Z M 34.511719 48.589844 L 19.273438 48.589844 L 19.273438 36.929688 L 34.511719 36.929688 Z M 51.535156 75.496094 L 36.300781 75.496094 L 36.300781 63.835938 L 51.535156 63.835938 Z M 51.535156 62.042969 L 36.300781 62.042969 L 36.300781 50.382812 L 51.535156 50.382812 Z M 51.535156 48.589844 L 36.300781 48.589844 L 36.300781 36.929688 L 51.535156 36.929688 Z M 68.5625 75.496094 L 53.328125 75.496094 L 53.328125 63.835938 L 68.5625 63.835938 Z M 68.5625 62.042969 L 53.328125 62.042969 L 53.328125 50.382812 L 68.5625 50.382812 Z M 68.5625 48.589844 L 53.328125 48.589844 L 53.328125 36.929688 L 68.5625 36.929688 Z M 85.585938 75.496094 L 70.351562 75.496094 L 70.351562 63.835938 L 85.585938 63.835938 Z M 85.585938 62.042969 L 70.351562 62.042969 L 70.351562 50.382812 L 85.585938 50.382812 Z M 85.585938 48.589844 L 70.351562 48.589844 L 70.351562 36.929688 L 85.585938 36.929688 Z M 85.585938 48.589844 " fill-opacity="1" fill-rule="nonzero"/><path fill="#000000" d="M 41.816406 59.722656 C 41.816406 59.722656 41.816406 59.726562 41.816406 59.726562 C 41.949219 59.855469 42.109375 59.9375 42.277344 59.972656 C 42.335938 59.980469 42.390625 59.988281 42.449219 59.988281 C 42.679688 59.988281 42.90625 59.898438 43.082031 59.726562 L 48.832031 53.96875 C 49.183594 53.617188 49.183594 53.050781 48.832031 52.699219 C 48.484375 52.351562 47.917969 52.351562 47.566406 52.699219 L 42.449219 57.824219 L 40.269531 55.640625 C 39.917969 55.292969 39.351562 55.292969 39.003906 55.640625 C 38.652344 55.992188 38.652344 56.558594 39.003906 56.910156 Z M 41.816406 59.722656 " fill-opacity="1" fill-rule="nonzero"/><path fill="#000000" d="M 75.867188 73.179688 C 76.042969 73.351562 76.269531 73.441406 76.5 73.441406 C 76.558594 73.441406 76.613281 73.433594 76.671875 73.425781 C 76.839844 73.390625 77.003906 73.308594 77.132812 73.179688 C 77.132812 73.175781 77.132812 73.175781 77.132812 73.175781 L 82.882812 67.421875 C 83.234375 67.070312 83.234375 66.503906 82.882812 66.152344 C 82.535156 65.804688 81.96875 65.804688 81.617188 66.152344 L 76.5 71.277344 L 74.320312 69.09375 C 73.972656 68.746094 73.402344 68.746094 73.054688 69.09375 C 72.703125 69.445312 72.703125 70.011719 73.054688 70.363281 Z M 75.867188 73.179688 " fill-opacity="1" fill-rule="nonzero"/><path fill="#000000" d="M 58.097656 46.269531 C 58.269531 46.445312 58.5 46.535156 58.730469 46.535156 C 58.957031 46.535156 59.1875 46.445312 59.363281 46.269531 L 65.113281 40.515625 C 65.464844 40.164062 65.464844 39.597656 65.113281 39.246094 C 64.765625 38.898438 64.195312 38.898438 63.847656 39.246094 L 58.730469 44.371094 L 56.550781 42.1875 C 56.199219 41.839844 55.632812 41.839844 55.285156 42.1875 C 54.933594 42.539062 54.933594 43.105469 55.285156 43.457031 Z M 58.097656 46.269531 " fill-opacity="1" fill-rule="nonzero"/><g clip-path="url(#b611343e91)"><path fill="#000000" d="M 93.476562 86.007812 L 11.386719 86.007812 C 10.890625 86.007812 10.492188 86.410156 10.492188 86.90625 C 10.492188 87.398438 10.890625 87.800781 11.386719 87.800781 L 93.476562 87.800781 C 93.972656 87.800781 94.371094 87.398438 94.371094 86.90625 C 94.371094 86.410156 93.972656 86.007812 93.476562 86.007812 Z M 93.476562 86.007812 " fill-opacity="1" fill-rule="nonzero"/></g><g clip-path="url(#b14ef0c474)"><path fill="#000000" d="M 93.476562 89.761719 L 11.386719 89.761719 C 10.890625 89.761719 10.492188 90.164062 10.492188 90.660156 C 10.492188 91.15625 10.890625 91.554688 11.386719 91.554688 L 93.476562 91.554688 C 93.972656 91.554688 94.371094 91.15625 94.371094 90.660156 C 94.371094 90.164062 93.972656 89.761719 93.476562 89.761719 Z M 93.476562 89.761719 " fill-opacity="1" fill-rule="nonzero"/></g></svg>