<svg xmlns="http://www.w3.org/2000/svg" xmlns:xlink="http://www.w3.org/1999/xlink" width="140" zoomAndPan="magnify" viewBox="0 0 104.88 104.999996" height="140" preserveAspectRatio="xMidYMid meet" version="1.0"><defs><clipPath id="2b464d6817"><path d="M 8.019531 8.578125 L 97.917969 8.578125 L 97.917969 96.976562 L 8.019531 96.976562 Z M 8.019531 8.578125 " clip-rule="nonzero"/></clipPath></defs><g clip-path="url(#2b464d6817)"><path fill="#000000" d="M 15.359375 71.347656 C 16.105469 71.347656 17.695312 71.289062 18.40625 71.421875 C 18.632812 71.003906 19.078125 70.714844 19.59375 70.714844 L 24.238281 70.714844 C 24.945312 70.714844 25.519531 71.253906 25.578125 71.941406 L 29.054688 69.992188 C 30.671875 69.082031 32.5 68.988281 34.191406 69.734375 L 36.429688 70.714844 L 40.214844 70.714844 L 38.191406 66.621094 C 37.441406 65.101562 38.066406 63.265625 39.585938 62.519531 L 41.8125 61.429688 L 33.996094 61.429688 C 33.25 61.429688 32.648438 60.828125 32.648438 60.089844 C 32.648438 59.351562 33.25 58.753906 33.996094 58.753906 L 47.265625 58.753906 L 52.136719 56.363281 C 50.242188 55.066406 49.984375 51.65625 50.300781 49.460938 L 45.25 49.460938 C 44.507812 49.460938 43.90625 48.867188 43.90625 48.128906 C 43.90625 47.390625 44.511719 46.792969 45.25 46.792969 L 51.019531 46.792969 C 51.628906 45.28125 52.605469 43.859375 54.035156 42.78125 C 54.070312 42.761719 54.097656 42.738281 54.128906 42.722656 C 55.566406 41.8125 57.027344 40.914062 58.503906 40.023438 L 58.503906 36.207031 C 55.945312 38.101562 52.765625 39.222656 49.324219 39.222656 C 46.765625 39.222656 44.351562 38.601562 42.222656 37.5 L 36.933594 37.5 C 36.191406 37.5 35.585938 36.90625 35.585938 36.164062 C 35.585938 35.425781 36.191406 34.824219 36.933594 34.824219 L 38.523438 34.824219 C 36.414062 32.757812 34.90625 30.101562 34.261719 27.117188 L 17.03125 27.117188 C 16.117188 27.117188 15.359375 27.863281 15.359375 28.773438 Z M 21.378906 73.394531 C 21.527344 73.613281 21.652344 73.839844 21.761719 74.085938 L 22.996094 73.394531 Z M 22.140625 76.929688 L 22.191406 90.671875 L 26.046875 91.261719 L 26.046875 91.265625 L 42.042969 94.117188 C 42.808594 94.253906 43.527344 94.226562 44.21875 93.863281 L 66.265625 82.417969 C 68.128906 81.453125 69.039062 80.355469 69.207031 79.429688 C 69.304688 78.859375 69.089844 78.398438 68.597656 78.097656 C 67.796875 77.601562 66.40625 77.539062 64.578125 78.230469 L 46.578125 85.085938 C 46.285156 85.199219 45.953125 85.203125 45.636719 85.09375 L 32.492188 80.269531 C 31.792969 80.015625 31.433594 79.25 31.6875 78.558594 C 31.945312 77.863281 32.71875 77.503906 33.417969 77.761719 L 45.976562 82.363281 C 47.523438 81.390625 47.972656 80.242188 46.660156 78.800781 C 46.011719 78.085938 45.011719 77.410156 43.691406 76.832031 L 33.113281 72.179688 C 32.183594 71.773438 31.25 71.816406 30.371094 72.308594 Z M 21.886719 93.332031 C 21.214844 95.054688 19.539062 96.242188 17.621094 96.246094 L 12.796875 96.261719 C 10.277344 96.273438 8.210938 94.230469 8.203125 91.714844 L 8.144531 75.933594 C 8.140625 73.441406 10.160156 71.398438 12.667969 71.363281 L 12.667969 28.769531 C 12.667969 26.382812 14.628906 24.4375 17.03125 24.4375 L 33.9375 24.4375 C 33.636719 15.769531 40.621094 8.589844 49.328125 8.589844 C 57.835938 8.589844 64.726562 15.449219 64.726562 23.90625 C 64.726562 27.617188 63.402344 31.015625 61.199219 33.667969 L 61.199219 38.433594 C 65.871094 35.707031 71.335938 32.722656 76.058594 30.421875 L 76.070312 30.414062 C 77.078125 29.84375 78.082031 29.296875 79.085938 28.773438 C 79.859375 28.367188 80.621094 27.976562 81.367188 27.609375 C 81.414062 26.328125 82.144531 25.136719 83.351562 24.546875 L 86.503906 23.003906 C 88.265625 22.140625 90.40625 22.859375 91.269531 24.613281 L 96.953125 36.09375 C 97.820312 37.84375 97.089844 39.972656 95.332031 40.832031 L 92.175781 42.378906 C 90.714844 43.09375 88.972656 42.722656 87.925781 41.53125 C 87.429688 41.988281 86.996094 42.5 86.613281 43.054688 C 86.019531 43.925781 85.574219 44.914062 85.308594 45.972656 C 85.492188 47.484375 85.328125 48.828125 84.828125 50.011719 C 84.28125 51.285156 83.351562 52.332031 82.042969 53.140625 C 81.957031 53.195312 81.871094 53.238281 81.777344 53.269531 C 80.714844 53.730469 79.800781 54.21875 79.03125 54.722656 L 83.820312 64.386719 C 84.570312 65.898438 83.945312 67.738281 82.425781 68.484375 L 68.625 75.257812 C 72.832031 76.328125 73.554688 81.648438 67.507812 84.785156 L 45.460938 96.230469 C 44.203125 96.882812 42.945312 96.988281 41.570312 96.742188 L 25.652344 93.90625 L 25.648438 93.910156 Z M 17.542969 74.011719 L 12.722656 74.023438 C 11.6875 74.023438 10.828125 74.886719 10.828125 75.933594 L 10.882812 91.714844 C 10.886719 92.746094 11.753906 93.597656 12.800781 93.59375 L 17.621094 93.578125 C 18.667969 93.578125 19.515625 92.707031 19.515625 91.671875 L 19.460938 75.894531 C 19.460938 74.867188 18.601562 74.011719 17.542969 74.011719 Z M 45.109375 74.535156 C 47.71875 75.761719 50.425781 77.992188 50.09375 80.878906 L 54.460938 79.222656 L 59.171875 76.910156 C 59.230469 76.878906 59.289062 76.851562 59.347656 76.824219 L 81.238281 66.085938 C 81.425781 65.992188 81.511719 65.753906 81.414062 65.566406 L 76.941406 56.554688 C 76.425781 57.222656 76.125 57.914062 76.046875 58.640625 C 76.042969 58.710938 76.03125 58.773438 76.007812 58.839844 C 75.054688 62.4375 73.1875 65.746094 69.644531 66.539062 C 69.585938 66.550781 69.523438 66.558594 69.457031 66.566406 L 69.460938 66.570312 C 69.433594 66.570312 69.410156 66.570312 69.390625 66.578125 C 68.855469 71.917969 63.550781 75.417969 58.375 73.554688 C 56.324219 72.816406 54.554688 71.3125 53.492188 69.183594 C 51.40625 65.007812 52.949219 59.851562 57.167969 57.777344 C 59.125 56.816406 61.28125 56.714844 63.246094 57.316406 C 64.171875 57.597656 65.054688 58.042969 65.847656 58.632812 C 66.109375 56.742188 66.589844 54.492188 67.285156 51.902344 L 60.53125 55.21875 C 60.476562 55.253906 60.414062 55.277344 60.355469 55.304688 L 48.25 61.246094 C 48.195312 61.277344 48.136719 61.304688 48.074219 61.332031 L 40.769531 64.910156 C 40.578125 65.007812 40.496094 65.25 40.589844 65.4375 Z M 45.957031 30.082031 C 45.375 29.628906 45.273438 28.789062 45.734375 28.203125 C 46.191406 27.621094 47.035156 27.523438 47.617188 27.980469 C 49.089844 29.128906 51.648438 28.316406 51.648438 26.882812 C 51.648438 24.023438 44.320312 26.699219 44.320312 20.925781 C 44.320312 18.839844 45.972656 17.257812 47.964844 16.769531 L 47.964844 15.96875 C 47.964844 15.21875 48.554688 14.628906 49.347656 14.628906 L 49.347656 14.632812 C 50.105469 14.632812 50.707031 15.253906 50.6875 15.988281 L 50.671875 16.769531 C 51.714844 17.019531 52.667969 17.5625 53.347656 18.351562 C 53.828125 18.910156 53.761719 19.75 53.199219 20.234375 C 52.640625 20.707031 51.789062 20.644531 51.308594 20.085938 C 50.050781 18.625 47.011719 19.332031 47.011719 20.925781 C 47.011719 23.785156 54.339844 21.109375 54.339844 26.882812 C 54.339844 28.980469 52.671875 30.570312 50.664062 31.046875 L 50.65625 31.84375 C 50.65625 32.582031 50.050781 33.179688 49.308594 33.179688 C 48.5625 33.179688 47.964844 32.582031 47.964844 31.84375 L 47.964844 31.039062 C 47.222656 30.855469 46.539062 30.53125 45.957031 30.082031 Z M 49.328125 11.265625 C 42.308594 11.265625 36.617188 16.921875 36.617188 23.90625 C 36.617188 30.886719 42.308594 36.542969 49.328125 36.542969 C 56.363281 36.542969 62.042969 30.871094 62.042969 23.90625 C 62.042969 16.921875 56.347656 11.265625 49.328125 11.265625 Z M 86.601562 39.136719 L 82.175781 30.191406 C 81.542969 30.503906 80.929688 30.824219 80.332031 31.132812 C 79.332031 31.660156 78.351562 32.191406 77.394531 32.730469 C 77.347656 32.757812 77.308594 32.785156 77.257812 32.8125 C 73.476562 34.6875 69.804688 36.621094 66.253906 38.617188 C 64.378906 39.667969 62.503906 40.75 60.625 41.871094 C 60.574219 41.910156 60.515625 41.945312 60.460938 41.976562 C 58.84375 42.941406 57.230469 43.929688 55.613281 44.949219 C 54.441406 45.851562 53.695312 47.097656 53.28125 48.402344 C 53.265625 48.476562 53.242188 48.554688 53.214844 48.625 C 52.921875 49.652344 52.824219 50.714844 52.882812 51.664062 C 52.929688 52.410156 53.144531 53.636719 53.574219 54.097656 L 59.183594 51.386719 C 59.234375 51.355469 59.296875 51.328125 59.355469 51.300781 L 69.304688 46.496094 C 70.414062 45.933594 71.566406 46.96875 71.214844 48.074219 C 69.121094 54.714844 68.121094 59.539062 68.34375 62.257812 C 68.398438 62.855469 68.535156 64.003906 69.171875 63.910156 C 70.078125 63.683594 70.867188 63.144531 71.53125 62.308594 C 72.300781 61.347656 72.914062 60 73.394531 58.253906 C 73.585938 56.710938 74.332031 55.300781 75.628906 54.023438 L 76.53125 53.230469 C 77.621094 52.363281 79.007812 51.570312 80.679688 50.835938 C 81.480469 50.328125 82.035156 49.707031 82.351562 48.96875 C 82.6875 48.175781 82.773438 47.222656 82.613281 46.097656 L 82.617188 46.097656 C 82.597656 45.945312 82.597656 45.785156 82.632812 45.625 C 83.203125 43.070312 84.609375 40.792969 86.601562 39.136719 Z M 87.691406 25.394531 L 84.535156 26.941406 C 84.105469 27.152344 83.929688 27.679688 84.132812 28.105469 L 89.816406 39.585938 C 90.03125 40.007812 90.5625 40.191406 90.988281 39.980469 L 94.140625 38.4375 C 94.570312 38.222656 94.75 37.699219 94.542969 37.273438 L 88.859375 25.792969 C 88.648438 25.367188 88.117188 25.183594 87.691406 25.394531 Z M 66.75 65.527344 C 65.65625 64.265625 65.699219 62.355469 65.648438 62.222656 C 64.851562 61.066406 63.714844 60.253906 62.457031 59.863281 C 59.515625 58.960938 56.46875 60.558594 55.539062 63.480469 C 54.558594 66.550781 56.242188 69.953125 59.292969 71.046875 C 63.078125 72.414062 66.878906 69.566406 66.75 65.527344 Z M 61.210938 69.929688 C 60.46875 69.886719 59.910156 69.261719 59.949219 68.523438 C 59.996094 67.785156 60.625 67.222656 61.367188 67.265625 C 61.941406 67.296875 62.320312 66.761719 62.273438 66.660156 C 62.21875 66.5625 61.789062 66.675781 61.355469 66.792969 C 59.859375 67.195312 58.359375 67.601562 57.332031 65.523438 C 56.789062 64.417969 57.085938 63.152344 57.898438 62.265625 C 57.566406 61.570312 57.886719 60.78125 58.5625 60.472656 C 59.222656 60.167969 59.996094 60.441406 60.324219 61.074219 C 60.5625 61.058594 60.808594 61.0625 61.042969 61.09375 C 61.777344 61.191406 62.296875 61.867188 62.195312 62.59375 C 62.097656 63.328125 61.421875 63.835938 60.6875 63.738281 C 60.140625 63.660156 59.679688 64.21875 59.742188 64.339844 C 59.792969 64.445312 60.226562 64.328125 60.65625 64.210938 C 62.15625 63.804688 63.652344 63.402344 64.675781 65.476562 C 65.226562 66.59375 64.921875 67.859375 64.101562 68.753906 L 64.105469 68.761719 C 64.410156 69.417969 64.132812 70.195312 63.480469 70.515625 C 62.820312 70.839844 62.023438 70.574219 61.691406 69.925781 C 61.523438 69.941406 61.367188 69.941406 61.210938 69.929688 Z M 19.59375 37.5 C 18.851562 37.5 18.246094 36.902344 18.246094 36.160156 C 18.246094 35.425781 18.851562 34.824219 19.59375 34.824219 L 30.414062 34.824219 C 31.160156 34.824219 31.757812 35.425781 31.757812 36.160156 C 31.757812 36.902344 31.160156 37.5 30.414062 37.5 Z M 19.59375 49.460938 C 18.851562 49.460938 18.246094 48.863281 18.246094 48.128906 C 18.246094 47.386719 18.851562 46.789062 19.59375 46.789062 L 41.023438 46.789062 C 41.769531 46.789062 42.371094 47.386719 42.371094 48.128906 C 42.371094 48.867188 41.769531 49.460938 41.023438 49.460938 Z M 29.441406 58.753906 C 30.1875 58.753906 30.789062 59.351562 30.789062 60.089844 C 30.789062 60.828125 30.1875 61.429688 29.441406 61.429688 L 19.59375 61.429688 C 18.851562 61.429688 18.246094 60.828125 18.246094 60.089844 C 18.246094 59.351562 18.851562 58.753906 19.59375 58.753906 Z M 29.441406 58.753906 " fill-opacity="1" fill-rule="nonzero"/></g></svg>