<svg xmlns="http://www.w3.org/2000/svg" xmlns:xlink="http://www.w3.org/1999/xlink" width="140" zoomAndPan="magnify" viewBox="0 0 104.88 104.999996" height="140" preserveAspectRatio="xMidYMid meet" version="1.0"><defs><clipPath id="f8da323ffb"><path d="M 19.300781 2 L 76 2 L 76 103.132812 L 19.300781 103.132812 Z M 19.300781 2 " clip-rule="nonzero"/></clipPath><clipPath id="b84dc587d2"><path d="M 69 27 L 85.222656 27 L 85.222656 44 L 69 44 Z M 69 27 " clip-rule="nonzero"/></clipPath></defs><path fill="#000000" d="M 41.273438 96.8125 L 53.832031 96.8125 C 54.699219 96.8125 55.402344 96.105469 55.402344 95.230469 C 55.402344 94.359375 54.699219 93.652344 53.832031 93.652344 L 41.273438 93.652344 C 40.40625 93.652344 39.703125 94.359375 39.703125 95.230469 C 39.703125 96.105469 40.40625 96.8125 41.273438 96.8125 Z M 41.273438 96.8125 " fill-opacity="1" fill-rule="nonzero"/><path fill="#000000" d="M 42.84375 9.902344 C 42.84375 10.113281 42.804688 10.3125 42.722656 10.507812 C 42.644531 10.699219 42.53125 10.871094 42.382812 11.019531 C 42.238281 11.167969 42.066406 11.28125 41.875 11.363281 C 41.683594 11.441406 41.484375 11.480469 41.273438 11.480469 C 41.066406 11.480469 40.867188 11.441406 40.671875 11.363281 C 40.480469 11.28125 40.3125 11.167969 40.164062 11.019531 C 40.015625 10.871094 39.902344 10.699219 39.824219 10.507812 C 39.746094 10.3125 39.703125 10.113281 39.703125 9.902344 C 39.703125 9.691406 39.746094 9.492188 39.824219 9.296875 C 39.902344 9.105469 40.015625 8.933594 40.164062 8.785156 C 40.3125 8.636719 40.480469 8.523438 40.671875 8.441406 C 40.867188 8.363281 41.066406 8.320312 41.273438 8.320312 C 41.484375 8.320312 41.683594 8.363281 41.875 8.441406 C 42.066406 8.523438 42.238281 8.636719 42.382812 8.785156 C 42.53125 8.933594 42.644531 9.105469 42.722656 9.296875 C 42.804688 9.492188 42.84375 9.691406 42.84375 9.902344 Z M 42.84375 9.902344 " fill-opacity="1" fill-rule="nonzero"/><path fill="#000000" d="M 49.121094 9.902344 C 49.121094 10.113281 49.082031 10.3125 49.003906 10.507812 C 48.921875 10.699219 48.808594 10.871094 48.664062 11.019531 C 48.515625 11.167969 48.347656 11.28125 48.152344 11.363281 C 47.960938 11.441406 47.761719 11.480469 47.554688 11.480469 C 47.34375 11.480469 47.144531 11.441406 46.953125 11.363281 C 46.761719 11.28125 46.589844 11.167969 46.441406 11.019531 C 46.296875 10.871094 46.183594 10.699219 46.101562 10.507812 C 46.023438 10.3125 45.984375 10.113281 45.984375 9.902344 C 45.984375 9.691406 46.023438 9.492188 46.101562 9.296875 C 46.183594 9.105469 46.296875 8.933594 46.441406 8.785156 C 46.589844 8.636719 46.761719 8.523438 46.953125 8.441406 C 47.144531 8.363281 47.34375 8.320312 47.554688 8.320312 C 47.761719 8.320312 47.960938 8.363281 48.152344 8.441406 C 48.347656 8.523438 48.515625 8.636719 48.664062 8.785156 C 48.808594 8.933594 48.921875 9.105469 49.003906 9.296875 C 49.082031 9.492188 49.121094 9.691406 49.121094 9.902344 Z M 49.121094 9.902344 " fill-opacity="1" fill-rule="nonzero"/><path fill="#000000" d="M 55.402344 9.902344 C 55.402344 10.113281 55.359375 10.3125 55.28125 10.507812 C 55.203125 10.699219 55.089844 10.871094 54.941406 11.019531 C 54.792969 11.167969 54.625 11.28125 54.433594 11.363281 C 54.238281 11.441406 54.039062 11.480469 53.832031 11.480469 C 53.625 11.480469 53.421875 11.441406 53.230469 11.363281 C 53.039062 11.28125 52.867188 11.167969 52.722656 11.019531 C 52.574219 10.871094 52.460938 10.699219 52.382812 10.507812 C 52.300781 10.3125 52.261719 10.113281 52.261719 9.902344 C 52.261719 9.691406 52.300781 9.492188 52.382812 9.296875 C 52.460938 9.105469 52.574219 8.933594 52.722656 8.785156 C 52.867188 8.636719 53.039062 8.523438 53.230469 8.441406 C 53.421875 8.363281 53.625 8.320312 53.832031 8.320312 C 54.039062 8.320312 54.238281 8.363281 54.433594 8.441406 C 54.625 8.523438 54.792969 8.636719 54.941406 8.785156 C 55.089844 8.933594 55.203125 9.105469 55.28125 9.296875 C 55.359375 9.492188 55.402344 9.691406 55.402344 9.902344 Z M 55.402344 9.902344 " fill-opacity="1" fill-rule="nonzero"/><path fill="#000000" d="M 44.414062 77.851562 C 44.414062 81.339844 47.226562 84.171875 50.691406 84.171875 L 75.804688 84.171875 C 79.273438 84.171875 82.085938 81.339844 82.085938 77.851562 L 82.085938 52.566406 C 82.085938 49.078125 79.273438 46.246094 75.804688 46.246094 L 50.691406 46.246094 C 47.226562 46.246094 44.414062 49.078125 44.414062 52.566406 Z M 47.554688 52.566406 C 47.554688 50.824219 48.960938 49.40625 50.691406 49.40625 L 75.804688 49.40625 C 77.539062 49.40625 78.945312 50.824219 78.945312 52.566406 L 78.945312 77.851562 C 78.945312 79.59375 77.539062 81.011719 75.804688 81.011719 L 50.691406 81.011719 C 48.960938 81.011719 47.554688 79.59375 47.554688 77.851562 Z M 47.554688 52.566406 " fill-opacity="1" fill-rule="nonzero"/><path fill="#000000" d="M 60.21875 43.085938 C 63.625 43.085938 66.386719 40.304688 66.386719 36.875 L 66.386719 27.171875 C 66.386719 23.742188 63.625 20.964844 60.21875 20.964844 L 50.582031 20.964844 C 47.175781 20.964844 44.414062 23.742188 44.414062 27.171875 L 44.414062 36.875 C 44.414062 40.304688 47.175781 43.085938 50.582031 43.085938 Z M 47.554688 36.875 L 47.554688 27.171875 C 47.554688 25.492188 48.910156 24.125 50.582031 24.125 L 60.21875 24.125 C 61.890625 24.125 63.25 25.492188 63.25 27.171875 L 63.25 36.875 C 63.25 38.558594 61.890625 39.925781 60.21875 39.925781 L 50.582031 39.925781 C 48.910156 39.925781 47.554688 38.558594 47.554688 36.875 Z M 47.554688 36.875 " fill-opacity="1" fill-rule="nonzero"/><g clip-path="url(#f8da323ffb)"><path fill="#000000" d="M 25.523438 103.132812 L 69.582031 103.132812 C 73.019531 103.132812 75.804688 100.304688 75.804688 96.8125 L 75.804688 87.332031 L 22.4375 87.332031 L 22.4375 17.804688 L 72.667969 17.804688 L 72.667969 24.238281 C 73.078125 24.167969 75.804688 24.125 75.804688 24.125 L 75.804688 8.320312 C 75.804688 4.832031 73.019531 2 69.582031 2 L 25.523438 2 C 22.085938 2 19.300781 4.832031 19.300781 8.320312 L 19.300781 96.8125 C 19.300781 100.304688 22.085938 103.132812 25.523438 103.132812 Z M 22.4375 8.320312 C 22.4375 6.578125 23.824219 5.160156 25.523438 5.160156 L 69.582031 5.160156 C 71.28125 5.160156 72.667969 6.578125 72.667969 8.320312 L 72.667969 14.644531 L 22.4375 14.644531 Z M 22.4375 90.492188 L 72.667969 90.492188 L 72.667969 96.8125 C 72.667969 98.554688 71.28125 99.972656 69.582031 99.972656 L 25.523438 99.972656 C 23.824219 99.972656 22.4375 98.554688 22.4375 96.8125 Z M 22.4375 90.492188 " fill-opacity="1" fill-rule="nonzero"/></g><g clip-path="url(#b84dc587d2)"><path fill="#000000" d="M 69.527344 31.71875 L 69.527344 38.648438 C 69.527344 41.101562 71.5 43.085938 73.933594 43.085938 L 80.820312 43.085938 C 83.25 43.085938 85.222656 41.101562 85.222656 38.648438 L 85.222656 31.71875 C 85.222656 29.269531 83.25 27.285156 80.820312 27.285156 L 73.933594 27.285156 C 71.5 27.285156 69.527344 29.269531 69.527344 31.71875 Z M 82.085938 31.71875 L 82.085938 38.648438 C 82.085938 39.355469 81.515625 39.925781 80.820312 39.925781 L 73.933594 39.925781 C 73.234375 39.925781 72.667969 39.355469 72.667969 38.648438 L 72.667969 31.71875 C 72.667969 31.015625 73.234375 30.445312 73.933594 30.445312 L 80.820312 30.445312 C 81.515625 30.445312 82.085938 31.015625 82.085938 31.71875 Z M 82.085938 31.71875 " fill-opacity="1" fill-rule="nonzero"/></g><path fill="#000000" d="M 29.984375 46.246094 C 27.550781 46.246094 25.578125 48.234375 25.578125 50.683594 L 25.578125 57.613281 C 25.578125 60.0625 27.550781 62.046875 29.984375 62.046875 L 36.867188 62.046875 C 39.300781 62.046875 41.273438 60.0625 41.273438 57.613281 L 41.273438 50.683594 C 41.273438 48.234375 39.300781 46.246094 36.867188 46.246094 Z M 38.136719 50.683594 L 38.136719 57.613281 C 38.136719 58.316406 37.566406 58.886719 36.867188 58.886719 L 29.984375 58.886719 C 29.285156 58.886719 28.71875 58.316406 28.71875 57.613281 L 28.71875 50.683594 C 28.71875 49.980469 29.285156 49.40625 29.984375 49.40625 L 36.867188 49.40625 C 37.566406 49.40625 38.136719 49.980469 38.136719 50.683594 Z M 38.136719 50.683594 " fill-opacity="1" fill-rule="nonzero"/></svg>