<svg xmlns="http://www.w3.org/2000/svg" xmlns:xlink="http://www.w3.org/1999/xlink" width="140" zoomAndPan="magnify" viewBox="0 0 104.88 104.999996" height="140" preserveAspectRatio="xMidYMid meet" version="1.0"><defs><clipPath id="67c397e0be"><path d="M 43 45 L 98.953125 45 L 98.953125 96.921875 L 43 96.921875 Z M 43 45 " clip-rule="nonzero"/></clipPath><clipPath id="a0f20b2c4e"><path d="M 6.808594 8.523438 L 92 8.523438 L 92 96.921875 L 6.808594 96.921875 Z M 6.808594 8.523438 " clip-rule="nonzero"/></clipPath></defs><path fill="#000000" d="M 13.597656 80.972656 L 37.96875 80.972656 L 37.96875 83.285156 L 13.597656 83.285156 Z M 13.597656 80.972656 " fill-opacity="1" fill-rule="nonzero"/><path fill="#000000" d="M 13.597656 75.671875 L 37.96875 75.671875 L 37.96875 77.984375 L 13.597656 77.984375 Z M 13.597656 75.671875 " fill-opacity="1" fill-rule="nonzero"/><path fill="#000000" d="M 13.597656 86.277344 L 37.96875 86.277344 L 37.96875 88.589844 L 13.597656 88.589844 Z M 13.597656 86.277344 " fill-opacity="1" fill-rule="nonzero"/><path fill="#000000" d="M 13.21875 28.472656 L 15.542969 28.472656 L 15.542969 31.363281 L 13.21875 31.363281 Z M 13.21875 28.472656 " fill-opacity="1" fill-rule="nonzero"/><path fill="#000000" d="M 13.21875 34.253906 L 15.542969 34.253906 L 15.542969 37.144531 L 13.21875 37.144531 Z M 13.21875 34.253906 " fill-opacity="1" fill-rule="nonzero"/><path fill="#000000" d="M 15.617188 25.582031 L 15.617188 22.765625 L 13.21875 22.765625 L 13.21875 25.582031 Z M 15.617188 25.582031 " fill-opacity="1" fill-rule="nonzero"/><path fill="#000000" d="M 18.519531 22.765625 L 21.425781 22.765625 L 21.425781 25.078125 L 18.519531 25.078125 Z M 18.519531 22.765625 " fill-opacity="1" fill-rule="nonzero"/><path fill="#000000" d="M 24.328125 22.765625 L 27.234375 22.765625 L 27.234375 25.078125 L 24.328125 25.078125 Z M 24.328125 22.765625 " fill-opacity="1" fill-rule="nonzero"/><path fill="#000000" d="M 30.136719 22.765625 L 33.042969 22.765625 L 33.042969 25.078125 L 30.136719 25.078125 Z M 30.136719 22.765625 " fill-opacity="1" fill-rule="nonzero"/><path fill="#000000" d="M 35.945312 22.765625 L 38.851562 22.765625 L 38.851562 25.078125 L 35.945312 25.078125 Z M 35.945312 22.765625 " fill-opacity="1" fill-rule="nonzero"/><path fill="#000000" d="M 36.902344 53.003906 L 39.226562 53.003906 L 39.226562 55.894531 L 36.902344 55.894531 Z M 36.902344 53.003906 " fill-opacity="1" fill-rule="nonzero"/><path fill="#000000" d="M 13.597656 65.070312 L 16.5 65.070312 L 16.5 67.382812 L 13.597656 67.382812 Z M 13.597656 65.070312 " fill-opacity="1" fill-rule="nonzero"/><path fill="#000000" d="M 19.40625 65.070312 L 22.308594 65.070312 L 22.308594 67.382812 L 19.40625 67.382812 Z M 19.40625 65.070312 " fill-opacity="1" fill-rule="nonzero"/><path fill="#000000" d="M 36.902344 58.785156 L 39.226562 58.785156 L 39.226562 61.675781 L 36.902344 61.675781 Z M 36.902344 58.785156 " fill-opacity="1" fill-rule="nonzero"/><path fill="#000000" d="M 39.226562 64.566406 L 36.828125 64.566406 L 36.828125 67.382812 L 39.226562 67.382812 Z M 39.226562 64.566406 " fill-opacity="1" fill-rule="nonzero"/><path fill="#000000" d="M 31.019531 65.070312 L 33.925781 65.070312 L 33.925781 67.382812 L 31.019531 67.382812 Z M 31.019531 65.070312 " fill-opacity="1" fill-rule="nonzero"/><path fill="#000000" d="M 25.214844 65.070312 L 28.117188 65.070312 L 28.117188 67.382812 L 25.214844 67.382812 Z M 25.214844 65.070312 " fill-opacity="1" fill-rule="nonzero"/><g clip-path="url(#67c397e0be)"><path fill="#000000" d="M 55.292969 78.324219 L 55.292969 79.480469 C 55.292969 82.09375 53.1875 84.226562 50.574219 84.285156 C 47.964844 84.230469 45.851562 82.078125 45.851562 79.480469 L 45.851562 45.339844 L 43.527344 45.339844 L 43.527344 79.480469 C 43.527344 83.308594 46.632812 86.484375 50.464844 86.59375 L 50.464844 86.601562 C 50.496094 86.601562 50.527344 86.597656 50.558594 86.597656 C 50.601562 86.597656 50.640625 86.601562 50.679688 86.601562 L 73.617188 86.601562 L 73.617188 94.621094 L 56.035156 94.621094 L 56.035156 96.933594 L 75.941406 96.933594 L 75.941406 86.601562 L 91.765625 86.601562 C 95.710938 86.601562 98.917969 83.40625 98.917969 79.480469 L 98.917969 78.324219 Z M 91.765625 84.289062 L 55.734375 84.289062 C 56.65625 83.289062 57.292969 82.03125 57.523438 80.636719 L 96.453125 80.636719 C 95.933594 82.730469 94.027344 84.289062 91.765625 84.289062 Z M 91.765625 84.289062 " fill-opacity="1" fill-rule="nonzero"/></g><g clip-path="url(#a0f20b2c4e)"><path fill="#000000" d="M 9.152344 19.019531 L 73.617188 19.019531 L 73.617188 25.4375 L 43.527344 25.4375 L 43.527344 36 L 45.847656 36 L 45.847656 27.75 L 89.460938 27.75 L 89.460938 72.917969 L 91.785156 72.917969 L 91.785156 25.4375 L 75.941406 25.4375 L 75.941406 8.53125 L 6.828125 8.53125 L 6.828125 96.933594 L 52.109375 96.933594 L 52.109375 94.621094 L 9.152344 94.621094 Z M 68.773438 10.84375 L 73.617188 10.84375 L 73.617188 16.707031 L 68.773438 16.707031 Z M 61.761719 10.84375 L 66.449219 10.84375 L 66.449219 16.707031 L 61.761719 16.707031 Z M 9.152344 10.84375 L 59.4375 10.84375 L 59.4375 16.707031 L 9.152344 16.707031 Z M 9.152344 10.84375 " fill-opacity="1" fill-rule="nonzero"/></g><path fill="#000000" d="M 66.828125 69.296875 C 75.46875 69.296875 82.5 62.296875 82.5 53.695312 L 82.5 52.539062 L 67.988281 52.539062 L 67.988281 38.09375 L 66.828125 38.09375 C 58.183594 38.09375 51.152344 45.09375 51.152344 53.695312 C 51.152344 62.296875 58.183594 69.296875 66.828125 69.296875 Z M 80.128906 54.851562 C 79.742188 59.28125 77.164062 63.097656 73.480469 65.210938 L 68.648438 54.851562 Z M 71.371094 66.1875 C 69.953125 66.703125 68.421875 66.984375 66.828125 66.984375 C 63.800781 66.984375 61.007812 65.976562 58.765625 64.277344 L 66.511719 55.765625 Z M 65.664062 40.457031 L 65.664062 53.25 L 57.042969 62.726562 C 54.832031 60.351562 53.476562 57.179688 53.476562 53.695312 C 53.476562 46.757812 58.84375 41.042969 65.664062 40.457031 Z M 65.664062 40.457031 " fill-opacity="1" fill-rule="nonzero"/><path fill="#000000" d="M 86.535156 49.757812 C 86.535156 41.152344 79.503906 34.15625 70.859375 34.15625 L 69.699219 34.15625 L 69.699219 50.914062 L 86.535156 50.914062 Z M 72.023438 48.601562 L 72.023438 36.519531 C 78.460938 37.074219 83.605469 42.195312 84.160156 48.601562 Z M 72.023438 48.601562 " fill-opacity="1" fill-rule="nonzero"/><path fill="#000000" d="M 51.804688 37.65625 C 53.902344 37.65625 55.609375 35.960938 55.609375 33.871094 C 55.609375 31.785156 53.902344 30.085938 51.804688 30.085938 C 49.707031 30.085938 48 31.785156 48 33.871094 C 48 34.40625 48.113281 34.914062 48.316406 35.375 L 40.21875 43.164062 C 39.589844 42.714844 38.824219 42.445312 37.996094 42.445312 C 37.003906 42.445312 36.105469 42.828125 35.425781 43.449219 L 29.453125 40.757812 C 29.535156 40.445312 29.585938 40.113281 29.585938 39.773438 C 29.585938 37.6875 27.878906 35.988281 25.78125 35.988281 C 23.6875 35.988281 21.980469 37.6875 21.980469 39.773438 C 21.980469 40.355469 22.117188 40.90625 22.351562 41.398438 L 15.8125 47.691406 C 15.371094 47.511719 14.886719 47.410156 14.382812 47.410156 C 12.285156 47.410156 10.578125 49.109375 10.578125 51.195312 C 10.578125 53.285156 12.285156 54.980469 14.382812 54.980469 C 16.480469 54.980469 18.1875 53.285156 18.1875 51.195312 C 18.1875 50.457031 17.96875 49.769531 17.597656 49.1875 L 23.941406 43.085938 C 24.488281 43.386719 25.117188 43.558594 25.78125 43.558594 C 26.6875 43.558594 27.515625 43.246094 28.167969 42.71875 L 34.273438 45.46875 C 34.21875 45.714844 34.195312 45.96875 34.195312 46.230469 C 34.195312 48.320312 35.898438 50.019531 37.996094 50.019531 C 40.09375 50.019531 41.800781 48.320312 41.800781 46.230469 C 41.800781 45.816406 41.730469 45.417969 41.605469 45.042969 L 49.851562 37.113281 C 50.421875 37.457031 51.089844 37.65625 51.804688 37.65625 Z M 51.804688 32.398438 C 52.621094 32.398438 53.285156 33.058594 53.285156 33.871094 C 53.285156 34.683594 52.621094 35.34375 51.804688 35.34375 C 50.988281 35.34375 50.324219 34.683594 50.324219 33.871094 C 50.324219 33.058594 50.988281 32.398438 51.804688 32.398438 Z M 14.382812 52.667969 C 13.566406 52.667969 12.902344 52.007812 12.902344 51.195312 C 12.902344 50.382812 13.566406 49.722656 14.382812 49.722656 C 15.199219 49.722656 15.863281 50.382812 15.863281 51.195312 C 15.863281 52.007812 15.199219 52.667969 14.382812 52.667969 Z M 25.78125 41.246094 C 24.964844 41.246094 24.304688 40.585938 24.304688 39.773438 C 24.304688 38.960938 24.964844 38.300781 25.78125 38.300781 C 26.597656 38.300781 27.261719 38.960938 27.261719 39.773438 C 27.261719 40.585938 26.597656 41.246094 25.78125 41.246094 Z M 37.996094 47.707031 C 37.179688 47.707031 36.515625 47.042969 36.515625 46.230469 C 36.515625 45.417969 37.179688 44.757812 37.996094 44.757812 C 38.8125 44.757812 39.476562 45.417969 39.476562 46.230469 C 39.476562 47.042969 38.8125 47.707031 37.996094 47.707031 Z M 37.996094 47.707031 " fill-opacity="1" fill-rule="nonzero"/></svg>