<svg xmlns="http://www.w3.org/2000/svg" xmlns:xlink="http://www.w3.org/1999/xlink" width="140" zoomAndPan="magnify" viewBox="0 0 104.88 104.999996" height="140" preserveAspectRatio="xMidYMid meet" version="1.0"><defs><clipPath id="bb2febd308"><path d="M 5.1875 58 L 10 58 L 10 64 L 5.1875 64 Z M 5.1875 58 " clip-rule="nonzero"/></clipPath><clipPath id="15d9b487b1"><path d="M 5.1875 49 L 9 49 L 9 54 L 5.1875 54 Z M 5.1875 49 " clip-rule="nonzero"/></clipPath><clipPath id="be66442186"><path d="M 41 5.246094 L 47 5.246094 L 47 10 L 41 10 Z M 41 5.246094 " clip-rule="nonzero"/></clipPath><clipPath id="16856712a9"><path d="M 50 5.246094 L 56 5.246094 L 56 9 L 50 9 Z M 50 5.246094 " clip-rule="nonzero"/></clipPath><clipPath id="4db9aa4176"><path d="M 96 50 L 99.578125 50 L 99.578125 56 L 96 56 Z M 96 50 " clip-rule="nonzero"/></clipPath><clipPath id="420eef2fc1"><path d="M 58 95 L 63 95 L 63 99.640625 L 58 99.640625 Z M 58 95 " clip-rule="nonzero"/></clipPath><clipPath id="619486867c"><path d="M 49 96 L 54 96 L 54 99.640625 L 49 99.640625 Z M 49 96 " clip-rule="nonzero"/></clipPath></defs><path fill="#000000" d="M 20.082031 18.078125 C 19.714844 18.449219 19.347656 18.816406 18.976562 19.183594 C 18.09375 20.070312 18.757812 21.691406 20.011719 21.691406 C 20.378906 21.691406 20.746094 21.546875 21.042969 21.25 C 21.410156 20.882812 21.707031 20.585938 22.074219 20.21875 C 22.664062 19.628906 22.664062 18.742188 22.148438 18.152344 C 21.558594 17.5625 20.671875 17.488281 20.082031 18.078125 Z M 20.082031 18.078125 " fill-opacity="1" fill-rule="nonzero"/><path fill="#000000" d="M 16.027344 24.640625 C 15.363281 24.199219 14.480469 24.347656 13.964844 25.011719 C 13.667969 25.453125 13.375 25.820312 13.078125 26.265625 C 12.636719 26.929688 12.785156 27.886719 13.519531 28.328125 C 14.183594 28.773438 15.144531 28.550781 15.585938 27.886719 C 15.878906 27.519531 16.101562 27.074219 16.398438 26.707031 C 16.839844 26.042969 16.691406 25.160156 16.027344 24.640625 Z M 16.027344 24.640625 " fill-opacity="1" fill-rule="nonzero"/><path fill="#000000" d="M 26.941406 15.941406 C 27.679688 15.941406 28.34375 15.277344 29.007812 14.90625 C 29.671875 14.464844 29.890625 13.582031 29.449219 12.84375 C 29.007812 12.105469 28.046875 11.957031 27.382812 12.402344 C 26.941406 12.695312 26.5 12.917969 26.058594 13.210938 C 25.394531 13.65625 25.171875 14.613281 25.6875 15.277344 C 25.984375 15.71875 26.425781 15.941406 26.941406 15.941406 Z M 26.941406 15.941406 " fill-opacity="1" fill-rule="nonzero"/><g clip-path="url(#bb2febd308)"><path fill="#000000" d="M 9.023438 61.144531 C 8.949219 60.703125 8.875 60.1875 8.726562 59.746094 C 8.578125 58.933594 7.84375 58.417969 7.03125 58.5625 C 6.21875 58.710938 5.703125 59.449219 5.851562 60.261719 C 5.925781 60.777344 6 61.292969 6.144531 61.808594 C 6.292969 62.621094 7.105469 63.136719 7.917969 62.988281 C 8.652344 62.695312 9.167969 61.957031 9.023438 61.144531 Z M 9.023438 61.144531 " fill-opacity="1" fill-rule="nonzero"/></g><path fill="#000000" d="M 11.011719 68.078125 C 10.71875 67.339844 9.90625 66.898438 9.097656 67.191406 C 8.359375 67.488281 7.917969 68.296875 8.210938 69.109375 C 8.359375 69.625 8.578125 70.070312 8.800781 70.511719 C 9.097656 71.25 9.980469 71.617188 10.71875 71.320312 C 11.457031 71.027344 11.824219 70.140625 11.53125 69.40625 C 11.308594 68.960938 11.160156 68.519531 11.011719 68.078125 Z M 11.011719 68.078125 " fill-opacity="1" fill-rule="nonzero"/><path fill="#000000" d="M 7.253906 45.070312 C 8.0625 45.214844 8.800781 44.699219 8.949219 43.890625 C 9.023438 43.445312 9.167969 42.929688 9.242188 42.488281 C 9.390625 41.675781 8.949219 40.941406 8.136719 40.71875 C 7.328125 40.570312 6.589844 41.011719 6.367188 41.824219 C 6.21875 42.339844 6.144531 42.855469 6.074219 43.300781 C 5.925781 44.109375 6.441406 44.921875 7.253906 45.070312 Z M 7.253906 45.070312 " fill-opacity="1" fill-rule="nonzero"/><path fill="#000000" d="M 34.757812 11.664062 C 35.421875 11.664062 36.085938 11.222656 36.675781 11 C 37.414062 10.703125 37.855469 9.894531 37.5625 9.082031 C 37.265625 8.269531 36.453125 7.902344 35.644531 8.199219 C 35.128906 8.34375 34.683594 8.566406 34.242188 8.789062 C 33.503906 9.082031 33.136719 9.96875 33.429688 10.703125 C 33.652344 11.367188 34.167969 11.738281 34.757812 11.664062 Z M 34.757812 11.664062 " fill-opacity="1" fill-rule="nonzero"/><g clip-path="url(#15d9b487b1)"><path fill="#000000" d="M 8.136719 52.515625 C 8.136719 52.515625 8.136719 51.558594 8.136719 51.042969 C 8.136719 50.230469 7.546875 49.566406 6.734375 49.492188 C 5.925781 49.492188 5.261719 50.082031 5.1875 50.894531 C 5.1875 51.410156 5.1875 52.445312 5.1875 52.445312 C 5.1875 53.253906 5.851562 53.917969 6.664062 53.917969 C 7.472656 53.992188 8.136719 53.328125 8.136719 52.515625 Z M 8.136719 52.515625 " fill-opacity="1" fill-rule="nonzero"/></g><path fill="#000000" d="M 11.308594 32.3125 C 10.570312 31.941406 9.6875 32.3125 9.390625 33.050781 C 9.167969 33.492188 8.949219 34.007812 8.800781 34.449219 C 8.507812 35.1875 8.875 36.074219 9.613281 36.367188 C 10.351562 36.664062 11.234375 36.292969 11.53125 35.554688 C 11.75 35.113281 11.898438 34.671875 12.121094 34.230469 C 12.339844 33.492188 12.046875 32.605469 11.308594 32.3125 Z M 11.308594 32.3125 " fill-opacity="1" fill-rule="nonzero"/><path fill="#000000" d="M 79.742188 14.023438 C 79.300781 13.726562 78.929688 13.433594 78.488281 13.136719 C 77.824219 12.695312 76.867188 12.84375 76.425781 13.582031 C 75.980469 14.246094 76.128906 15.203125 76.867188 15.644531 C 77.234375 15.941406 77.675781 16.160156 78.046875 16.457031 C 78.710938 16.898438 79.667969 16.75 80.109375 16.089844 C 80.628906 15.425781 80.40625 14.464844 79.742188 14.023438 Z M 79.742188 14.023438 " fill-opacity="1" fill-rule="nonzero"/><g clip-path="url(#be66442186)"><path fill="#000000" d="M 43.3125 9.082031 C 43.902344 9.082031 44.492188 8.859375 45.007812 8.789062 C 45.820312 8.640625 46.335938 7.902344 46.1875 7.089844 C 46.042969 6.28125 45.304688 5.765625 44.492188 5.910156 C 44.050781 5.984375 43.535156 6.058594 43.09375 6.132812 C 42.28125 6.28125 41.765625 7.089844 41.910156 7.902344 C 42.058594 8.640625 42.648438 9.082031 43.3125 9.082031 Z M 43.3125 9.082031 " fill-opacity="1" fill-rule="nonzero"/></g><path fill="#000000" d="M 85.640625 18.964844 C 85.050781 18.375 84.167969 18.375 83.578125 18.964844 C 82.988281 19.554688 82.988281 20.4375 83.578125 21.027344 C 83.945312 21.398438 84.242188 21.691406 84.609375 22.0625 C 85.125 22.652344 86.085938 22.652344 86.675781 22.136719 C 87.265625 21.546875 87.265625 20.660156 86.75 20.070312 C 86.378906 19.703125 86.011719 19.332031 85.640625 18.964844 Z M 85.640625 18.964844 " fill-opacity="1" fill-rule="nonzero"/><path fill="#000000" d="M 95.746094 43.667969 C 95.820312 44.109375 95.890625 44.625 96.039062 45.070312 C 96.1875 45.878906 96.925781 46.398438 97.734375 46.25 C 98.546875 46.101562 99.0625 45.363281 98.914062 44.554688 C 98.84375 44.035156 98.769531 43.519531 98.621094 43.003906 C 98.472656 42.191406 97.664062 41.675781 96.851562 41.824219 C 96.113281 42.121094 95.597656 42.855469 95.746094 43.667969 Z M 95.746094 43.667969 " fill-opacity="1" fill-rule="nonzero"/><path fill="#000000" d="M 93.753906 36.734375 C 94.050781 37.472656 94.933594 37.84375 95.671875 37.621094 C 96.410156 37.324219 96.777344 36.515625 96.554688 35.703125 C 96.410156 35.1875 96.1875 34.746094 95.964844 34.300781 C 95.671875 33.566406 94.785156 33.195312 94.046875 33.492188 C 93.3125 33.785156 92.941406 34.671875 93.238281 35.410156 C 93.386719 35.851562 93.605469 36.292969 93.753906 36.734375 Z M 93.753906 36.734375 " fill-opacity="1" fill-rule="nonzero"/><g clip-path="url(#16856712a9)"><path fill="#000000" d="M 52.234375 8.199219 C 52.234375 8.199219 53.710938 8.199219 53.710938 8.199219 C 54.523438 8.199219 55.1875 7.535156 55.1875 6.796875 C 55.1875 5.984375 54.597656 5.320312 53.785156 5.246094 C 53.34375 5.246094 52.234375 5.246094 52.234375 5.246094 C 51.425781 5.246094 50.761719 5.910156 50.761719 6.722656 C 50.761719 7.535156 51.425781 8.199219 52.234375 8.199219 Z M 52.234375 8.199219 " fill-opacity="1" fill-rule="nonzero"/></g><path fill="#000000" d="M 60.9375 9.007812 C 61.527344 9.082031 62.117188 9.378906 62.707031 9.378906 C 63.371094 9.378906 63.960938 8.933594 64.109375 8.199219 C 64.257812 7.386719 63.8125 6.648438 63.003906 6.425781 C 62.488281 6.28125 61.96875 6.207031 61.527344 6.132812 C 60.644531 5.984375 59.90625 6.5 59.757812 7.3125 C 59.609375 8.050781 60.125 8.859375 60.9375 9.007812 Z M 60.9375 9.007812 " fill-opacity="1" fill-rule="nonzero"/><path fill="#000000" d="M 69.195312 11.515625 C 69.789062 11.738281 70.449219 12.253906 71.113281 12.253906 C 71.703125 12.253906 72.21875 11.957031 72.441406 11.367188 C 72.8125 10.632812 72.441406 9.746094 71.703125 9.449219 C 71.261719 9.230469 70.746094 9.007812 70.304688 8.859375 C 69.566406 8.566406 68.679688 8.933594 68.386719 9.671875 C 68.089844 10.335938 68.460938 11.222656 69.195312 11.515625 Z M 69.195312 11.515625 " fill-opacity="1" fill-rule="nonzero"/><path fill="#000000" d="M 77.015625 89.242188 C 76.644531 89.535156 76.203125 89.757812 75.835938 90.054688 C 75.171875 90.496094 74.949219 91.378906 75.390625 92.117188 C 75.835938 92.78125 76.71875 93.003906 77.457031 92.558594 C 77.898438 92.265625 78.339844 92.042969 78.785156 91.75 C 79.449219 91.304688 79.667969 90.347656 79.152344 89.683594 C 78.5625 88.945312 77.675781 88.800781 77.015625 89.242188 Z M 77.015625 89.242188 " fill-opacity="1" fill-rule="nonzero"/><path fill="#000000" d="M 83.652344 83.710938 C 83.28125 84.078125 82.988281 84.375 82.617188 84.742188 C 82.027344 85.332031 82.027344 86.21875 82.542969 86.808594 C 83.0625 87.398438 84.019531 87.398438 84.609375 86.882812 C 84.976562 86.511719 85.347656 86.144531 85.714844 85.777344 C 86.304688 85.1875 86.304688 84.300781 85.714844 83.710938 C 85.199219 83.121094 84.242188 83.121094 83.652344 83.710938 Z M 83.652344 83.710938 " fill-opacity="1" fill-rule="nonzero"/><path fill="#000000" d="M 91.246094 76.632812 C 90.582031 76.1875 89.625 76.335938 89.183594 77 C 88.886719 77.367188 88.664062 77.8125 88.371094 78.179688 C 87.929688 78.84375 88.074219 79.730469 88.738281 80.246094 C 89.402344 80.6875 90.363281 80.539062 90.804688 79.875 C 91.097656 79.433594 91.394531 79.066406 91.6875 78.621094 C 92.058594 77.957031 91.910156 77.074219 91.246094 76.632812 Z M 91.246094 76.632812 " fill-opacity="1" fill-rule="nonzero"/><path fill="#000000" d="M 14.847656 75.820312 C 14.40625 75.15625 13.519531 74.933594 12.785156 75.378906 C 12.121094 75.820312 11.898438 76.707031 12.339844 77.441406 C 12.636719 77.886719 12.855469 78.328125 13.152344 78.769531 C 13.59375 79.433594 14.554688 79.65625 15.214844 79.140625 C 15.878906 78.695312 16.101562 77.738281 15.585938 77.074219 C 15.363281 76.707031 15.070312 76.261719 14.847656 75.820312 Z M 14.847656 75.820312 " fill-opacity="1" fill-rule="nonzero"/><path fill="#000000" d="M 69.34375 93.296875 C 68.902344 93.519531 68.460938 93.667969 68.015625 93.8125 C 67.28125 94.109375 66.835938 94.921875 67.132812 95.730469 C 67.425781 96.46875 68.3125 96.835938 69.050781 96.617188 C 69.566406 96.46875 70.007812 96.246094 70.449219 96.027344 C 71.1875 95.730469 71.558594 94.847656 71.261719 94.109375 C 70.96875 93.371094 70.082031 93.003906 69.34375 93.296875 Z M 69.34375 93.296875 " fill-opacity="1" fill-rule="nonzero"/><path fill="#000000" d="M 97.515625 59.890625 C 96.703125 59.746094 95.964844 60.261719 95.746094 61.070312 C 95.671875 61.515625 95.523438 62.03125 95.449219 62.472656 C 95.230469 63.285156 95.746094 64.09375 96.554688 64.242188 C 97.367188 64.390625 98.179688 63.949219 98.324219 63.136719 C 98.472656 62.621094 98.546875 62.105469 98.621094 61.660156 C 98.84375 60.851562 98.324219 60.039062 97.515625 59.890625 Z M 97.515625 59.890625 " fill-opacity="1" fill-rule="nonzero"/><g clip-path="url(#4db9aa4176)"><path fill="#000000" d="M 98.105469 50.820312 C 97.292969 50.820312 96.628906 51.484375 96.628906 52.296875 C 96.628906 52.296875 96.628906 53.402344 96.628906 53.917969 C 96.628906 54.730469 97.21875 55.394531 98.03125 55.46875 C 98.695312 55.46875 99.285156 55.023438 99.507812 54.433594 C 99.507812 54.289062 99.578125 54.214844 99.578125 54.066406 C 99.578125 53.550781 99.578125 52.371094 99.578125 52.371094 C 99.578125 51.484375 98.914062 50.820312 98.105469 50.820312 Z M 98.105469 50.820312 " fill-opacity="1" fill-rule="nonzero"/></g><path fill="#000000" d="M 95.230469 68.59375 C 94.492188 68.296875 93.605469 68.667969 93.3125 69.40625 C 93.089844 69.847656 92.941406 70.289062 92.722656 70.730469 C 92.351562 71.46875 92.722656 72.355469 93.457031 72.648438 C 94.195312 72.945312 95.082031 72.648438 95.375 71.910156 C 95.597656 71.46875 95.820312 70.953125 95.964844 70.511719 C 96.335938 69.773438 95.964844 68.886719 95.230469 68.59375 Z M 95.230469 68.59375 " fill-opacity="1" fill-rule="nonzero"/><g clip-path="url(#420eef2fc1)"><path fill="#000000" d="M 61.085938 95.804688 C 60.644531 95.878906 60.125 95.953125 59.683594 96.101562 C 58.875 96.246094 58.355469 96.984375 58.503906 97.796875 C 58.652344 98.535156 59.242188 99.050781 59.980469 99.050781 C 60.570312 99.050781 61.160156 98.902344 61.75 98.753906 C 62.558594 98.605469 63.078125 97.796875 62.929688 96.984375 C 62.632812 96.171875 61.824219 95.65625 61.085938 95.804688 Z M 61.085938 95.804688 " fill-opacity="1" fill-rule="nonzero"/></g><path fill="#000000" d="M 92.425781 27.371094 C 92.132812 26.929688 91.835938 26.484375 91.617188 26.042969 C 91.171875 25.378906 90.214844 25.160156 89.550781 25.675781 C 88.886719 26.117188 88.664062 27.074219 89.183594 27.738281 C 89.476562 28.109375 89.699219 28.550781 89.992188 28.917969 C 90.433594 29.582031 91.320312 29.804688 92.058594 29.363281 C 92.648438 28.992188 92.796875 28.109375 92.425781 27.371094 Z M 92.425781 27.371094 " fill-opacity="1" fill-rule="nonzero"/><path fill="#000000" d="M 20.15625 82.753906 C 19.566406 82.164062 18.683594 82.164062 18.09375 82.679688 C 17.503906 83.269531 17.503906 84.152344 18.019531 84.742188 C 18.386719 85.113281 18.757812 85.480469 19.125 85.847656 C 19.714844 86.441406 20.671875 86.441406 21.191406 85.847656 C 21.78125 85.257812 21.78125 84.375 21.191406 83.785156 C 20.820312 83.414062 20.453125 83.046875 20.15625 82.753906 Z M 20.15625 82.753906 " fill-opacity="1" fill-rule="nonzero"/><g clip-path="url(#619486867c)"><path fill="#000000" d="M 52.382812 96.691406 C 51.941406 96.691406 51.425781 96.691406 50.984375 96.691406 C 50.171875 96.691406 49.507812 97.28125 49.433594 98.089844 C 49.433594 98.902344 50.023438 99.566406 50.835938 99.640625 C 51.351562 99.640625 52.382812 99.640625 52.382812 99.640625 C 53.195312 99.640625 53.859375 98.976562 53.859375 98.164062 C 53.859375 97.355469 53.195312 96.691406 52.382812 96.691406 Z M 52.382812 96.691406 " fill-opacity="1" fill-rule="nonzero"/></g><path fill="#000000" d="M 27.828125 89.242188 C 27.457031 88.945312 27.015625 88.726562 26.648438 88.429688 C 25.984375 87.988281 25.097656 88.136719 24.582031 88.800781 C 24.140625 89.464844 24.289062 90.347656 24.949219 90.863281 C 25.394531 91.160156 25.761719 91.453125 26.203125 91.75 C 26.867188 92.191406 27.828125 92.042969 28.269531 91.304688 C 28.710938 90.644531 28.492188 89.683594 27.828125 89.242188 Z M 27.828125 89.242188 " fill-opacity="1" fill-rule="nonzero"/><path fill="#000000" d="M 43.753906 95.878906 C 43.3125 95.804688 42.796875 95.65625 42.355469 95.582031 C 41.542969 95.4375 40.804688 95.878906 40.585938 96.691406 C 40.4375 97.5 40.878906 98.3125 41.691406 98.460938 C 42.207031 98.605469 42.722656 98.679688 43.164062 98.753906 C 43.976562 98.902344 44.714844 98.386719 44.863281 97.574219 C 45.082031 96.761719 44.566406 96.027344 43.753906 95.878906 Z M 43.753906 95.878906 " fill-opacity="1" fill-rule="nonzero"/><path fill="#000000" d="M 35.496094 93.371094 C 35.054688 93.148438 34.613281 93.003906 34.167969 92.78125 C 33.429688 92.414062 32.546875 92.78125 32.25 93.519531 C 31.882812 94.257812 32.25 95.140625 32.988281 95.4375 C 33.429688 95.65625 33.949219 95.878906 34.390625 96.027344 C 35.128906 96.320312 36.011719 95.953125 36.308594 95.214844 C 36.601562 94.550781 36.234375 93.667969 35.496094 93.371094 Z M 35.496094 93.371094 " fill-opacity="1" fill-rule="nonzero"/><path fill="#000000" d="M 37.855469 70.214844 C 37.855469 70.214844 45.597656 75.746094 45.597656 75.746094 C 46.042969 76.042969 46.632812 76.117188 47.074219 75.894531 C 47.589844 75.671875 47.886719 75.15625 47.886719 74.640625 L 48.253906 66.011719 C 48.328125 65.273438 48.253906 64.609375 47.957031 63.949219 L 35.71875 33.121094 C 34.832031 30.835938 32.25 29.730469 29.964844 30.6875 C 29.964844 30.6875 26.792969 31.941406 26.792969 31.941406 C 24.582031 32.828125 23.476562 35.484375 24.359375 37.695312 L 36.675781 68.519531 C 36.898438 69.183594 37.339844 69.773438 37.855469 70.214844 Z M 40.660156 68.59375 L 45.378906 66.308594 L 45.15625 71.765625 Z M 27.902344 34.671875 L 31.070312 33.417969 C 31.808594 33.121094 32.695312 33.492188 32.988281 34.230469 L 44.640625 63.429688 L 38.886719 66.234375 C 38.886719 66.234375 27.089844 36.664062 27.089844 36.664062 C 26.5 35.1875 27.53125 34.820312 27.902344 34.671875 Z M 27.902344 34.671875 " fill-opacity="1" fill-rule="nonzero"/><path fill="#000000" d="M 68.605469 71.617188 C 74.285156 71.617188 78.929688 66.972656 78.929688 61.292969 C 78.929688 55.613281 74.285156 50.96875 68.605469 50.96875 C 62.929688 50.96875 58.28125 55.613281 58.28125 61.292969 C 58.28125 66.972656 62.929688 71.617188 68.605469 71.617188 Z M 68.605469 53.917969 C 72.664062 53.917969 75.980469 57.238281 75.980469 61.292969 C 75.980469 65.347656 72.664062 68.667969 68.605469 68.667969 C 64.550781 68.667969 61.234375 65.347656 61.234375 61.292969 C 61.234375 57.238281 64.550781 53.917969 68.605469 53.917969 Z M 68.605469 53.917969 " fill-opacity="1" fill-rule="nonzero"/><path fill="#000000" d="M 65.804688 64.316406 C 66.246094 64.980469 67.132812 65.128906 67.796875 64.757812 L 72.738281 61.808594 C 73.402344 61.367188 73.695312 60.480469 73.253906 59.816406 C 72.8125 59.152344 71.925781 58.859375 71.261719 59.300781 L 67.574219 61.515625 L 66.617188 60.113281 C 66.171875 59.449219 65.214844 59.300781 64.550781 59.746094 C 63.886719 60.1875 63.738281 61.144531 64.183594 61.808594 C 64.035156 61.808594 65.804688 64.316406 65.804688 64.316406 Z M 65.804688 64.316406 " fill-opacity="1" fill-rule="nonzero"/><path fill="#000000" d="M 67.871094 44.332031 C 67.871094 43.519531 67.207031 42.855469 66.394531 42.855469 L 42.796875 42.855469 L 43.976562 45.808594 L 66.394531 45.808594 C 67.207031 45.808594 67.871094 45.144531 67.871094 44.332031 Z M 67.871094 44.332031 " fill-opacity="1" fill-rule="nonzero"/><path fill="#000000" d="M 75.246094 72.796875 C 74.359375 73.3125 73.328125 73.753906 72.292969 74.050781 L 72.292969 77.8125 C 72.292969 78.476562 71.777344 78.992188 71.113281 78.992188 L 33.652344 78.992188 C 32.988281 78.992188 32.472656 78.476562 32.472656 77.8125 L 32.472656 66.011719 L 29.523438 58.636719 L 29.523438 77.738281 C 29.523438 80.023438 31.367188 81.867188 33.652344 81.867188 L 71.113281 81.867188 C 73.402344 81.867188 75.246094 80.023438 75.246094 77.738281 Z M 75.246094 72.796875 " fill-opacity="1" fill-rule="nonzero"/><path fill="#000000" d="M 29.523438 27.664062 C 30.480469 27.371094 31.515625 27.296875 32.472656 27.445312 L 32.472656 27.148438 C 32.472656 26.484375 32.988281 25.96875 33.652344 25.96875 L 57.839844 25.96875 L 57.839844 34.230469 C 57.839844 36.515625 59.683594 38.359375 61.96875 38.359375 L 72.292969 38.359375 L 72.292969 48.609375 C 73.328125 48.902344 74.359375 49.347656 75.246094 49.863281 L 75.246094 36.589844 C 75.246094 36.144531 75.023438 35.777344 74.726562 35.484375 L 60.421875 23.316406 C 60.125 23.09375 59.832031 22.945312 59.464844 22.945312 L 33.652344 22.945312 C 31.367188 22.945312 29.523438 24.789062 29.523438 27.074219 Z M 60.789062 34.15625 L 60.789062 27.519531 L 70.082031 35.335938 L 61.96875 35.335938 C 61.304688 35.335938 60.789062 34.820312 60.789062 34.15625 Z M 60.789062 34.15625 " fill-opacity="1" fill-rule="nonzero"/><path fill="#000000" d="M 64.257812 48.757812 L 45.082031 48.757812 L 46.261719 51.707031 L 59.390625 51.707031 C 60.789062 50.378906 62.488281 49.421875 64.257812 48.757812 Z M 64.257812 48.757812 " fill-opacity="1" fill-rule="nonzero"/><path fill="#000000" d="M 55.847656 57.605469 C 56.144531 56.574219 56.585938 55.539062 57.101562 54.65625 L 47.515625 54.65625 L 48.695312 57.605469 Z M 55.847656 57.605469 " fill-opacity="1" fill-rule="nonzero"/></svg>