<svg xmlns="http://www.w3.org/2000/svg" xmlns:xlink="http://www.w3.org/1999/xlink" width="140" zoomAndPan="magnify" viewBox="0 0 104.88 104.999996" height="140" preserveAspectRatio="xMidYMid meet" version="1.0"><defs><clipPath id="bdb18baaeb"><path d="M 16.191406 8 L 88.859375 8 L 88.859375 102.484375 L 16.191406 102.484375 Z M 16.191406 8 " clip-rule="nonzero"/></clipPath><clipPath id="1be1a2429e"><path d="M 48 2.847656 L 57 2.847656 L 57 10 L 48 10 Z M 48 2.847656 " clip-rule="nonzero"/></clipPath></defs><path fill="#202124" d="M 46.601562 44.359375 L 29.394531 44.359375 C 28.867188 44.359375 28.441406 43.933594 28.441406 43.410156 L 28.441406 42 C 28.441406 38.179688 31.546875 35.074219 35.359375 35.074219 L 40.632812 35.074219 C 44.449219 35.074219 47.550781 38.179688 47.550781 42 L 47.550781 43.410156 C 47.550781 43.933594 47.125 44.359375 46.601562 44.359375 Z M 30.34375 42.457031 L 45.648438 42.457031 L 45.648438 42 C 45.648438 39.230469 43.398438 36.976562 40.632812 36.976562 L 35.359375 36.976562 C 32.59375 36.976562 30.34375 39.230469 30.34375 42 Z M 30.34375 42.457031 " fill-opacity="1" fill-rule="nonzero"/><path fill="#202124" d="M 37.996094 36.886719 C 35.140625 36.886719 32.820312 34.5625 32.820312 31.703125 C 32.820312 28.84375 35.140625 26.519531 37.996094 26.519531 C 40.851562 26.519531 43.175781 28.84375 43.175781 31.703125 C 43.175781 34.5625 40.851562 36.886719 37.996094 36.886719 Z M 37.996094 28.425781 C 36.191406 28.425781 34.722656 29.894531 34.722656 31.703125 C 34.722656 33.511719 36.191406 34.984375 37.996094 34.984375 C 39.804688 34.984375 41.273438 33.511719 41.273438 31.703125 C 41.273438 29.894531 39.804688 28.425781 37.996094 28.425781 Z M 37.996094 28.425781 " fill-opacity="1" fill-rule="nonzero"/><path fill="#202124" d="M 68.988281 44.359375 L 61.890625 44.359375 C 58.933594 44.359375 56.527344 41.953125 56.527344 38.992188 L 56.527344 31.886719 C 56.527344 28.929688 58.933594 26.519531 61.890625 26.519531 L 68.988281 26.519531 C 71.945312 26.519531 74.347656 28.925781 74.347656 31.886719 L 74.347656 38.992188 C 74.347656 41.953125 71.945312 44.359375 68.988281 44.359375 Z M 61.890625 28.425781 C 59.980469 28.425781 58.429688 29.976562 58.429688 31.886719 L 58.429688 38.992188 C 58.429688 40.902344 59.980469 42.457031 61.890625 42.457031 L 68.988281 42.457031 C 70.894531 42.457031 72.449219 40.902344 72.449219 38.992188 L 72.449219 31.886719 C 72.449219 29.976562 70.894531 28.425781 68.988281 28.425781 Z M 61.890625 28.425781 " fill-opacity="1" fill-rule="nonzero"/><path fill="#202124" d="M 46.601562 68.875 L 29.394531 68.875 C 28.867188 68.875 28.441406 68.449219 28.441406 67.921875 L 28.441406 66.511719 C 28.441406 62.695312 31.546875 59.589844 35.359375 59.589844 L 40.632812 59.589844 C 44.449219 59.589844 47.550781 62.695312 47.550781 66.511719 L 47.550781 67.921875 C 47.550781 68.449219 47.125 68.875 46.601562 68.875 Z M 30.34375 66.972656 L 45.648438 66.972656 L 45.648438 66.511719 C 45.648438 63.746094 43.398438 61.492188 40.632812 61.492188 L 35.359375 61.492188 C 32.59375 61.492188 30.34375 63.746094 30.34375 66.511719 Z M 30.34375 66.972656 " fill-opacity="1" fill-rule="nonzero"/><path fill="#202124" d="M 37.996094 61.402344 C 35.140625 61.402344 32.820312 59.078125 32.820312 56.21875 C 32.820312 53.359375 35.140625 51.035156 37.996094 51.035156 C 40.851562 51.035156 43.175781 53.359375 43.175781 56.21875 C 43.175781 59.078125 40.851562 61.402344 37.996094 61.402344 Z M 37.996094 52.9375 C 36.191406 52.9375 34.722656 54.410156 34.722656 56.21875 C 34.722656 58.027344 36.191406 59.496094 37.996094 59.496094 C 39.804688 59.496094 41.273438 58.027344 41.273438 56.21875 C 41.273438 54.410156 39.804688 52.9375 37.996094 52.9375 Z M 37.996094 52.9375 " fill-opacity="1" fill-rule="nonzero"/><path fill="#202124" d="M 68.988281 68.875 L 61.890625 68.875 C 58.933594 68.875 56.527344 66.46875 56.527344 63.507812 L 56.527344 56.402344 C 56.527344 53.441406 58.933594 51.035156 61.890625 51.035156 L 68.988281 51.035156 C 71.945312 51.035156 74.347656 53.441406 74.347656 56.402344 L 74.347656 63.507812 C 74.347656 66.46875 71.945312 68.875 68.988281 68.875 Z M 61.890625 52.9375 C 59.980469 52.9375 58.429688 54.492188 58.429688 56.402344 L 58.429688 63.507812 C 58.429688 65.417969 59.980469 66.972656 61.890625 66.972656 L 68.988281 66.972656 C 70.894531 66.972656 72.449219 65.417969 72.449219 63.507812 L 72.449219 56.402344 C 72.449219 54.492188 70.894531 52.9375 68.988281 52.9375 Z M 61.890625 52.9375 " fill-opacity="1" fill-rule="nonzero"/><path fill="#202124" d="M 46.601562 93.390625 L 29.394531 93.390625 C 28.867188 93.390625 28.441406 92.964844 28.441406 92.4375 L 28.441406 91.027344 C 28.441406 87.210938 31.546875 84.105469 35.359375 84.105469 L 40.632812 84.105469 C 44.449219 84.105469 47.550781 87.210938 47.550781 91.027344 L 47.550781 92.4375 C 47.550781 92.964844 47.125 93.390625 46.601562 93.390625 Z M 30.34375 91.488281 L 45.648438 91.488281 L 45.648438 91.027344 C 45.648438 88.261719 43.398438 86.007812 40.632812 86.007812 L 35.359375 86.007812 C 32.59375 86.007812 30.34375 88.261719 30.34375 91.027344 Z M 30.34375 91.488281 " fill-opacity="1" fill-rule="nonzero"/><path fill="#202124" d="M 37.996094 85.917969 C 35.140625 85.917969 32.820312 83.589844 32.820312 80.734375 C 32.820312 77.875 35.140625 75.550781 37.996094 75.550781 C 40.851562 75.550781 43.175781 77.875 43.175781 80.734375 C 43.175781 83.589844 40.851562 85.917969 37.996094 85.917969 Z M 37.996094 77.453125 C 36.191406 77.453125 34.722656 78.925781 34.722656 80.734375 C 34.722656 82.542969 36.191406 84.011719 37.996094 84.011719 C 39.804688 84.011719 41.273438 82.542969 41.273438 80.734375 C 41.273438 78.925781 39.804688 77.453125 37.996094 77.453125 Z M 37.996094 77.453125 " fill-opacity="1" fill-rule="nonzero"/><path fill="#202124" d="M 68.988281 93.390625 L 61.890625 93.390625 C 58.933594 93.390625 56.527344 90.984375 56.527344 88.023438 L 56.527344 80.917969 C 56.527344 77.957031 58.933594 75.550781 61.890625 75.550781 L 68.988281 75.550781 C 71.945312 75.550781 74.347656 77.957031 74.347656 80.917969 L 74.347656 88.023438 C 74.347656 90.984375 71.945312 93.390625 68.988281 93.390625 Z M 61.890625 77.453125 C 59.980469 77.453125 58.429688 79.007812 58.429688 80.917969 L 58.429688 88.023438 C 58.429688 89.933594 59.980469 91.488281 61.890625 91.488281 L 68.988281 91.488281 C 70.894531 91.488281 72.449219 89.933594 72.449219 88.023438 L 72.449219 80.917969 C 72.449219 79.007812 70.894531 77.453125 68.988281 77.453125 Z M 61.890625 77.453125 " fill-opacity="1" fill-rule="nonzero"/><g clip-path="url(#bdb18baaeb)"><path fill="#202124" d="M 82.484375 102.488281 L 22.558594 102.488281 C 19.050781 102.488281 16.199219 99.632812 16.199219 96.125 L 16.199219 14.386719 C 16.199219 10.878906 19.050781 8.023438 22.558594 8.023438 L 82.484375 8.023438 C 85.988281 8.023438 88.839844 10.878906 88.839844 14.386719 L 88.839844 96.125 C 88.839844 99.632812 85.988281 102.488281 82.484375 102.488281 Z M 22.558594 9.929688 C 20.101562 9.929688 18.101562 11.929688 18.101562 14.386719 L 18.101562 96.125 C 18.101562 98.582031 20.101562 100.582031 22.558594 100.582031 L 82.484375 100.582031 C 84.941406 100.582031 86.9375 98.582031 86.9375 96.125 L 86.9375 14.386719 C 86.9375 11.929688 84.941406 9.929688 82.484375 9.929688 Z M 22.558594 9.929688 " fill-opacity="1" fill-rule="nonzero"/></g><path fill="#202124" d="M 62.742188 19.84375 L 42.296875 19.84375 C 40.207031 19.84375 38.507812 18.144531 38.507812 16.050781 L 38.507812 8.976562 C 38.507812 8.449219 38.933594 8.023438 39.457031 8.023438 L 65.582031 8.023438 C 66.109375 8.023438 66.535156 8.449219 66.535156 8.976562 L 66.535156 16.050781 C 66.535156 18.144531 64.835938 19.84375 62.742188 19.84375 Z M 40.410156 9.929688 L 40.410156 16.050781 C 40.410156 17.09375 41.257812 17.941406 42.296875 17.941406 L 62.742188 17.941406 C 63.785156 17.941406 64.632812 17.09375 64.632812 16.050781 L 64.632812 9.929688 Z M 40.410156 9.929688 " fill-opacity="1" fill-rule="nonzero"/><g clip-path="url(#1be1a2429e)"><path fill="#202124" d="M 55.359375 9.929688 L 49.679688 9.929688 C 49.15625 9.929688 48.730469 9.5 48.730469 8.976562 L 48.730469 6.640625 C 48.730469 4.546875 50.429688 2.847656 52.519531 2.847656 C 54.609375 2.847656 56.3125 4.546875 56.3125 6.640625 L 56.3125 8.976562 C 56.3125 9.5 55.886719 9.929688 55.359375 9.929688 Z M 50.632812 8.023438 L 54.410156 8.023438 L 54.410156 6.640625 C 54.410156 5.597656 53.5625 4.75 52.519531 4.75 C 51.480469 4.75 50.632812 5.597656 50.632812 6.640625 Z M 50.632812 8.023438 " fill-opacity="1" fill-rule="nonzero"/></g><path fill="#202124" d="M 64.621094 39.769531 C 64.371094 39.769531 64.128906 39.667969 63.949219 39.488281 L 60.578125 36.113281 C 60.207031 35.742188 60.207031 35.140625 60.578125 34.765625 C 60.949219 34.394531 61.550781 34.394531 61.921875 34.765625 L 64.621094 37.46875 L 75.535156 26.546875 C 75.90625 26.175781 76.507812 26.175781 76.878906 26.546875 C 77.25 26.917969 77.25 27.519531 76.878906 27.894531 L 65.292969 39.488281 C 65.117188 39.667969 64.875 39.769531 64.621094 39.769531 Z M 64.621094 39.769531 " fill-opacity="1" fill-rule="nonzero"/><path fill="#202124" d="M 64.621094 89.050781 C 64.378906 89.050781 64.136719 88.957031 63.949219 88.769531 L 60.578125 85.394531 C 60.207031 85.023438 60.207031 84.421875 60.578125 84.050781 C 60.949219 83.679688 61.550781 83.679688 61.921875 84.050781 L 64.621094 86.75 L 75.535156 75.828125 C 75.90625 75.457031 76.507812 75.457031 76.878906 75.828125 C 77.25 76.199219 77.25 76.804688 76.878906 77.175781 L 65.292969 88.769531 C 65.109375 88.957031 64.867188 89.050781 64.621094 89.050781 Z M 64.621094 89.050781 " fill-opacity="1" fill-rule="nonzero"/><path fill="#202124" d="M 61.683594 64.664062 C 61.441406 64.664062 61.199219 64.570312 61.011719 64.386719 C 60.640625 64.015625 60.640625 63.410156 61.011719 63.039062 L 68.519531 55.523438 C 68.890625 55.152344 69.492188 55.152344 69.863281 55.523438 C 70.234375 55.894531 70.234375 56.5 69.863281 56.871094 L 62.355469 64.386719 C 62.171875 64.570312 61.925781 64.664062 61.683594 64.664062 Z M 61.683594 64.664062 " fill-opacity="1" fill-rule="nonzero"/><path fill="#202124" d="M 69.191406 64.664062 C 68.949219 64.664062 68.707031 64.570312 68.519531 64.386719 L 61.011719 56.871094 C 60.640625 56.5 60.640625 55.894531 61.011719 55.523438 C 61.382812 55.152344 61.984375 55.152344 62.355469 55.523438 L 69.863281 63.039062 C 70.234375 63.410156 70.234375 64.015625 69.863281 64.386719 C 69.679688 64.570312 69.433594 64.664062 69.191406 64.664062 Z M 69.191406 64.664062 " fill-opacity="1" fill-rule="nonzero"/></svg>