<svg xmlns="http://www.w3.org/2000/svg" xmlns:xlink="http://www.w3.org/1999/xlink" width="140" zoomAndPan="magnify" viewBox="0 0 104.88 104.999996" height="140" preserveAspectRatio="xMidYMid meet" version="1.0"><defs><clipPath id="4bbf886021"><path d="M 16 67 L 89.324219 67 L 89.324219 99.886719 L 16 99.886719 Z M 16 67 " clip-rule="nonzero"/></clipPath></defs><path fill="#100f0d" d="M 79.21875 36.398438 C 79.015625 35.667969 78.515625 35.066406 77.8125 34.699219 C 77.964844 33.050781 77.738281 31.03125 77.347656 29.367188 C 77.019531 28 76.5 26.46875 75.707031 24.875 C 74.871094 23.300781 73.835938 21.621094 72.386719 20.078125 C 71.011719 18.480469 69.238281 17.023438 67.234375 15.742188 C 49.773438 4.761719 25.664062 17.75 27.535156 34.703125 C 26.835938 35.070312 26.339844 35.667969 26.136719 36.394531 C 22.003906 36.46875 18.679688 39.511719 18.679688 43.277344 C 18.679688 47.039062 22.003906 50.085938 26.136719 50.160156 C 26.464844 51.347656 27.59375 52.246094 29.007812 52.246094 C 30.679688 52.246094 32.027344 51.019531 32.027344 49.503906 L 32.027344 37.054688 C 32.027344 36.191406 31.566406 35.453125 30.886719 34.953125 C 31.640625 30.667969 33.886719 26.136719 37.039062 23.328125 C 41.660156 18.859375 49.683594 16.277344 58.507812 18.222656 C 61.902344 19.226562 65.242188 20.910156 68.027344 23.613281 C 71.125 26.371094 73.640625 30.511719 74.460938 34.953125 C 72.679688 36.265625 73.316406 37.402344 73.316406 49.503906 C 73.316406 50.449219 73.882812 51.246094 74.683594 51.738281 L 74.683594 52.792969 C 74.683594 53.457031 74.496094 54.117188 74.128906 54.679688 C 70.183594 60.78125 69.921875 61.402344 63.960938 63.292969 C 62.082031 63.886719 59.964844 64.144531 57.824219 64.660156 C 55.851562 62.726562 52.371094 64 52.371094 66.585938 C 52.371094 69.851562 57.515625 70.601562 58.511719 67.335938 C 59.957031 66.984375 61.445312 66.78125 62.84375 66.355469 C 70.535156 64.039062 73.050781 62.660156 77.121094 54.957031 C 77.507812 54.226562 77.710938 53.417969 77.710938 52.59375 L 77.710938 51.914062 C 78.46875 51.558594 79.007812 50.929688 79.21875 50.15625 C 83.347656 50.082031 86.664062 47.039062 86.664062 43.277344 C 86.664062 39.519531 83.347656 36.476562 79.21875 36.398438 " fill-opacity="1" fill-rule="nonzero"/><g clip-path="url(#4bbf886021)"><path fill="#100f0d" d="M 52.683594 80.898438 C 55.152344 77.464844 57.300781 74.511719 59.410156 71.527344 C 61.878906 68.035156 64.367188 66.902344 68.269531 68.207031 C 73.226562 69.867188 78.132812 71.722656 82.933594 73.792969 C 87.050781 75.570312 89.363281 78.75 89.105469 83.460938 C 88.976562 85.78125 89.105469 88.109375 89.074219 90.433594 C 88.992188 96.839844 86.050781 99.820312 79.652344 99.851562 C 71.390625 99.902344 63.128906 99.871094 54.871094 99.871094 C 45.269531 99.871094 35.667969 99.890625 26.070312 99.855469 C 19.203125 99.824219 16.308594 96.917969 16.273438 90.144531 C 16.257812 87.929688 16.382812 85.714844 16.246094 83.507812 C 15.9375 78.601562 18.488281 75.453125 22.6875 73.652344 C 27.492188 71.59375 32.421875 69.804688 37.390625 68.175781 C 41.625 66.78125 42.933594 67.402344 45.558594 71.046875 C 47.8125 74.183594 50.089844 77.3125 52.683594 80.898438 " fill-opacity="1" fill-rule="nonzero"/></g><path fill="#100f0d" d="M 70.183594 40.027344 C 69.726562 45.804688 67.886719 53.1875 61.777344 58.875 C 56.597656 63.691406 48.695312 63.8125 43.597656 58.878906 C 36.535156 52.039062 34.308594 43.34375 35.402344 33.957031 C 35.972656 29.046875 38.992188 25.179688 44.066406 23.535156 C 51.609375 21.085938 58.914062 20.84375 65.554688 26.074219 C 69.429688 29.125 70.316406 33.3125 70.183594 40.027344 " fill-opacity="1" fill-rule="nonzero"/></svg>