<svg xmlns="http://www.w3.org/2000/svg" xmlns:xlink="http://www.w3.org/1999/xlink" width="140" zoomAndPan="magnify" viewBox="0 0 104.88 104.999996" height="140" preserveAspectRatio="xMidYMid meet" version="1.0"><defs><clipPath id="6e3edc87dc"><path d="M 43 10.546875 L 63 10.546875 L 63 21 L 43 21 Z M 43 10.546875 " clip-rule="nonzero"/></clipPath><clipPath id="51ad87f97b"><path d="M 86 51 L 97.945312 51 L 97.945312 60 L 86 60 Z M 86 51 " clip-rule="nonzero"/></clipPath><clipPath id="b37c2a2eb7"><path d="M 7.296875 72 L 13 72 L 13 75 L 7.296875 75 Z M 7.296875 72 " clip-rule="nonzero"/></clipPath><clipPath id="1f682f341b"><path d="M 24.59375 79.425781 L 62.953125 79.425781 L 62.953125 93.703125 L 24.59375 93.703125 Z M 24.59375 79.425781 " clip-rule="nonzero"/></clipPath></defs><path fill="#231f20" d="M 34.140625 74.523438 C 34.128906 74.375 34.117188 74.230469 34.117188 74.082031 C 34.117188 73.632812 34.179688 73.199219 34.28125 72.777344 L 23.46875 72.777344 C 23.570312 73.199219 23.628906 73.632812 23.628906 74.082031 C 23.628906 74.230469 23.621094 74.375 23.609375 74.523438 L 34.140625 74.523438 " fill-opacity="1" fill-rule="nonzero"/><path fill="#231f20" d="M 32.191406 71.0625 L 32.191406 52.207031 L 9.183594 52.207031 L 9.183594 71.0625 L 13.359375 71.0625 C 14.355469 69.53125 16.082031 68.515625 18.046875 68.515625 C 20.007812 68.515625 21.734375 69.53125 22.730469 71.0625 L 32.191406 71.0625 " fill-opacity="1" fill-rule="nonzero"/><path fill="#231f20" d="M 46.003906 71.0625 L 47.945312 71.0625 L 47.945312 70.230469 L 46.003906 70.230469 C 45.527344 70.230469 45.144531 69.847656 45.144531 69.371094 C 45.144531 68.898438 45.527344 68.515625 46.003906 68.515625 L 47.945312 68.515625 L 47.945312 66.382812 L 40.316406 66.382812 C 39.839844 66.382812 39.453125 66 39.453125 65.527344 L 39.453125 56.820312 L 33.910156 56.820312 L 33.910156 71.0625 L 35.019531 71.0625 C 36.015625 69.53125 37.742188 68.515625 39.703125 68.515625 C 41.667969 68.515625 43.394531 69.53125 44.390625 71.0625 L 46.003906 71.0625 " fill-opacity="1" fill-rule="nonzero"/><path fill="#231f20" d="M 57.007812 36.382812 C 57.03125 36.367188 57.058594 36.351562 57.085938 36.335938 L 57.085938 32.914062 C 55.804688 33.402344 54.421875 33.679688 52.972656 33.679688 C 51.546875 33.679688 50.1875 33.410156 48.925781 32.9375 L 48.925781 36.378906 C 48.933594 36.386719 48.945312 36.390625 48.957031 36.402344 L 52.855469 39.738281 L 57.007812 36.382812 " fill-opacity="1" fill-rule="nonzero"/><g clip-path="url(#6e3edc87dc)"><path fill="#231f20" d="M 43.464844 17.851562 C 45.132812 17.761719 48.679688 17.050781 50.78125 12.816406 C 50.992188 12.390625 51.507812 12.214844 51.933594 12.425781 C 52.359375 12.636719 52.535156 13.152344 52.324219 13.574219 C 49.707031 18.851562 45.039062 19.519531 43.167969 19.566406 C 43.144531 19.832031 43.125 20.097656 43.125 20.367188 L 43.125 20.878906 C 44.644531 20.957031 51.386719 20.863281 55.097656 13.386719 C 55.253906 13.066406 55.597656 12.878906 55.953125 12.914062 C 56.308594 12.949219 56.605469 13.203125 56.699219 13.546875 C 56.734375 13.675781 57.660156 16.6875 62.457031 17.765625 C 61.308594 13.609375 57.5 10.546875 52.972656 10.546875 C 48.417969 10.546875 44.585938 13.652344 43.464844 17.851562 " fill-opacity="1" fill-rule="nonzero"/></g><path fill="#231f20" d="M 59.355469 38.175781 C 58.941406 38.007812 58.519531 37.851562 58.09375 37.71875 C 58.09375 37.71875 58.089844 37.71875 58.089844 37.71875 L 54.140625 40.90625 L 56.144531 42.820312 L 59.355469 38.175781 " fill-opacity="1" fill-rule="nonzero"/><path fill="#231f20" d="M 66.429688 44.765625 C 66.429688 43.96875 66.15625 43.222656 65.664062 42.660156 C 64.316406 41.125 62.714844 39.859375 60.9375 38.910156 L 56.988281 44.625 C 56.84375 44.832031 56.617188 44.964844 56.367188 44.992188 C 56.335938 44.996094 56.308594 44.996094 56.28125 44.996094 C 56.058594 44.996094 55.84375 44.910156 55.683594 44.757812 L 52.90625 42.105469 L 50.125 44.757812 C 49.964844 44.910156 49.75 44.996094 49.53125 44.996094 C 49.5 44.996094 49.46875 44.992188 49.4375 44.992188 C 49.183594 44.964844 48.957031 44.824219 48.816406 44.613281 L 45 38.914062 C 43.234375 39.863281 41.636719 41.121094 40.292969 42.648438 C 39.800781 43.210938 39.527344 43.957031 39.527344 44.753906 L 39.527344 45.550781 L 66.429688 45.550781 L 66.429688 44.765625 " fill-opacity="1" fill-rule="nonzero"/><path fill="#231f20" d="M 39.703125 70.230469 C 37.574219 70.230469 35.839844 71.957031 35.839844 74.082031 C 35.839844 76.207031 37.574219 77.9375 39.703125 77.9375 C 41.835938 77.9375 43.566406 76.207031 43.566406 74.082031 C 43.566406 71.957031 41.835938 70.230469 39.703125 70.230469 " fill-opacity="1" fill-rule="nonzero"/><path fill="#231f20" d="M 95.878906 76.707031 L 95.878906 59.886719 C 95.703125 59.984375 95.519531 60.074219 95.332031 60.15625 C 94.378906 60.578125 93.359375 60.789062 92.308594 60.789062 C 89.589844 60.789062 87.125 59.292969 85.804688 57.03125 C 84.488281 59.292969 82.023438 60.789062 79.304688 60.789062 C 76.585938 60.789062 74.125 59.296875 72.804688 57.039062 C 71.464844 59.296875 68.949219 60.789062 66.164062 60.789062 C 65.113281 60.789062 64.09375 60.578125 63.136719 60.15625 C 63.101562 60.140625 63.066406 60.121094 63.03125 60.105469 L 63.03125 76.707031 L 71.964844 76.707031 L 71.964844 64.390625 C 71.964844 63.914062 72.351562 63.53125 72.828125 63.53125 L 85.683594 63.53125 C 86.160156 63.53125 86.546875 63.914062 86.546875 64.390625 L 86.546875 76.707031 L 95.878906 76.707031 " fill-opacity="1" fill-rule="nonzero"/><g clip-path="url(#51ad87f97b)"><path fill="#231f20" d="M 97.941406 53.320312 L 97.941406 51.964844 L 86.65625 51.964844 L 86.65625 54.566406 C 87.242188 57.179688 89.617188 59.074219 92.308594 59.074219 C 93.117188 59.074219 93.902344 58.910156 94.640625 58.585938 C 96.644531 57.707031 97.941406 55.640625 97.941406 53.320312 " fill-opacity="1" fill-rule="nonzero"/></g><path fill="#231f20" d="M 84.824219 65.246094 L 80.089844 65.246094 L 80.089844 76.707031 L 84.824219 76.707031 L 84.824219 65.246094 " fill-opacity="1" fill-rule="nonzero"/><path fill="#231f20" d="M 78.367188 65.246094 L 73.6875 65.246094 L 73.6875 76.707031 L 78.367188 76.707031 L 78.367188 65.246094 " fill-opacity="1" fill-rule="nonzero"/><g clip-path="url(#b37c2a2eb7)"><path fill="#231f20" d="M 8.324219 72.777344 L 8.179688 72.777344 C 7.695312 72.777344 7.304688 73.167969 7.304688 73.648438 C 7.304688 74.132812 7.695312 74.523438 8.179688 74.523438 L 12.484375 74.523438 C 12.472656 74.375 12.460938 74.230469 12.460938 74.082031 C 12.460938 73.632812 12.519531 73.199219 12.621094 72.777344 L 8.324219 72.777344 " fill-opacity="1" fill-rule="nonzero"/></g><path fill="#231f20" d="M 48.925781 74.523438 C 49.410156 74.523438 49.800781 74.132812 49.800781 73.648438 C 49.800781 73.167969 49.410156 72.777344 48.925781 72.777344 L 45.128906 72.777344 C 45.230469 73.199219 45.289062 73.632812 45.289062 74.082031 C 45.289062 74.230469 45.277344 74.378906 45.265625 74.523438 L 48.925781 74.523438 " fill-opacity="1" fill-rule="nonzero"/><path fill="#231f20" d="M 43.03125 56.820312 L 41.175781 56.820312 L 41.175781 64.667969 L 47.417969 64.667969 L 44.148438 57.53125 C 43.949219 57.097656 43.511719 56.820312 43.03125 56.820312 " fill-opacity="1" fill-rule="nonzero"/><path fill="#231f20" d="M 62.820312 22.144531 L 62.820312 20.367188 C 62.820312 20.101562 62.800781 19.839844 62.78125 19.582031 C 58.785156 18.875 56.789062 16.988281 55.835938 15.59375 C 51.890625 21.988281 45.652344 22.59375 43.441406 22.59375 C 43.332031 22.59375 43.238281 22.589844 43.148438 22.589844 C 43.382812 27.796875 47.695312 31.964844 52.972656 31.964844 C 58.402344 31.964844 62.820312 27.558594 62.820312 22.144531 " fill-opacity="1" fill-rule="nonzero"/><path fill="#231f20" d="M 18.046875 70.230469 C 15.914062 70.230469 14.179688 71.957031 14.179688 74.082031 C 14.179688 76.207031 15.914062 77.9375 18.046875 77.9375 C 20.175781 77.9375 21.910156 76.207031 21.910156 74.082031 C 21.910156 71.957031 20.175781 70.230469 18.046875 70.230469 " fill-opacity="1" fill-rule="nonzero"/><path fill="#231f20" d="M 73.671875 54.632812 C 74.28125 57.210938 76.636719 59.074219 79.304688 59.074219 C 81.972656 59.074219 84.324219 57.210938 84.9375 54.632812 L 84.9375 51.964844 L 73.671875 51.964844 L 73.671875 54.632812 " fill-opacity="1" fill-rule="nonzero"/><path fill="#231f20" d="M 46.578125 38.179688 L 49.675781 42.8125 L 51.628906 40.949219 L 47.851562 37.71875 C 47.421875 37.855469 46.996094 38.011719 46.578125 38.179688 " fill-opacity="1" fill-rule="nonzero"/><path fill="#231f20" d="M 60.53125 53.320312 C 60.53125 55.640625 61.828125 57.707031 63.832031 58.585938 C 64.566406 58.910156 65.351562 59.074219 66.164062 59.074219 C 68.875 59.074219 71.347656 57.167969 71.949219 54.628906 L 71.949219 51.964844 L 60.53125 51.964844 L 60.53125 53.320312 " fill-opacity="1" fill-rule="nonzero"/><path fill="#231f20" d="M 67.917969 23.148438 C 67.707031 23.574219 67.882812 24.089844 68.3125 24.296875 C 70.625 25.425781 72.820312 26.820312 74.832031 28.4375 C 74.992188 28.5625 75.183594 28.625 75.371094 28.625 C 75.625 28.625 75.871094 28.515625 76.042969 28.304688 C 76.339844 27.9375 76.28125 27.398438 75.914062 27.101562 C 73.800781 25.402344 71.496094 23.941406 69.070312 22.753906 C 68.640625 22.546875 68.125 22.722656 67.917969 23.148438 " fill-opacity="1" fill-rule="nonzero"/><path fill="#231f20" d="M 77.75 29.839844 C 77.414062 30.175781 77.410156 30.71875 77.746094 31.054688 C 81.164062 34.492188 83.839844 38.636719 85.566406 43.136719 L 84.0625 41.652344 C 83.726562 41.320312 83.183594 41.324219 82.847656 41.660156 C 82.511719 41.996094 82.515625 42.539062 82.851562 42.875 L 87.070312 47.035156 C 87.234375 47.199219 87.453125 47.285156 87.675781 47.285156 C 87.777344 47.285156 87.882812 47.265625 87.980469 47.230469 C 88.296875 47.109375 88.511719 46.816406 88.535156 46.480469 L 88.929688 40.265625 C 88.960938 39.792969 88.601562 39.386719 88.125 39.355469 C 87.644531 39.324219 87.242188 39.683594 87.210938 40.15625 L 87.078125 42.285156 C 85.265625 37.65625 82.492188 33.390625 78.96875 29.847656 C 78.632812 29.511719 78.085938 29.507812 77.75 29.839844 " fill-opacity="1" fill-rule="nonzero"/><g clip-path="url(#1f682f341b)"><path fill="#231f20" d="M 62.304688 92.511719 C 62.765625 92.390625 63.039062 91.921875 62.921875 91.460938 C 62.800781 91.003906 62.328125 90.730469 61.871094 90.851562 C 58.988281 91.605469 56.003906 91.988281 52.996094 91.988281 C 44.003906 91.988281 35.421875 88.523438 28.96875 82.394531 L 30.8125 83.023438 C 31.265625 83.175781 31.753906 82.9375 31.90625 82.488281 C 32.0625 82.039062 31.820312 81.554688 31.371094 81.398438 L 25.757812 79.484375 C 25.4375 79.378906 25.082031 79.464844 24.851562 79.710938 C 24.621094 79.953125 24.554688 80.3125 24.679688 80.621094 L 27.042969 86.386719 C 27.175781 86.71875 27.5 86.921875 27.839844 86.921875 C 27.945312 86.921875 28.058594 86.902344 28.164062 86.859375 C 28.601562 86.679688 28.8125 86.179688 28.632812 85.738281 L 27.769531 83.625 C 34.542969 90.0625 43.554688 93.703125 52.996094 93.703125 C 56.152344 93.703125 59.285156 93.300781 62.304688 92.511719 " fill-opacity="1" fill-rule="nonzero"/></g><path fill="#231f20" d="M 80.066406 80.480469 C 79.710938 80.160156 79.167969 80.1875 78.847656 80.539062 C 75.144531 84.621094 70.472656 87.804688 65.335938 89.746094 C 64.894531 89.914062 64.667969 90.410156 64.835938 90.851562 C 64.96875 91.195312 65.296875 91.40625 65.640625 91.40625 C 65.742188 91.40625 65.847656 91.386719 65.945312 91.351562 C 71.335938 89.3125 76.242188 85.972656 80.125 81.691406 C 80.445312 81.339844 80.417969 80.796875 80.066406 80.480469 " fill-opacity="1" fill-rule="nonzero"/><path fill="#231f20" d="M 23.300781 35.949219 C 23.023438 36.335938 23.109375 36.871094 23.496094 37.148438 C 23.648438 37.257812 23.824219 37.308594 23.996094 37.308594 C 24.265625 37.308594 24.527344 37.1875 24.695312 36.953125 C 27.558594 32.988281 31.28125 29.640625 35.511719 27.1875 L 34.296875 28.945312 C 34.027344 29.335938 34.125 29.871094 34.519531 30.136719 C 34.667969 30.242188 34.835938 30.289062 35.003906 30.289062 C 35.277344 30.289062 35.546875 30.160156 35.714844 29.917969 L 39.078125 25.042969 C 39.269531 24.765625 39.277344 24.402344 39.105469 24.113281 C 38.929688 23.824219 38.601562 23.667969 38.269531 23.703125 L 32.066406 24.414062 C 31.59375 24.46875 31.253906 24.894531 31.308594 25.367188 C 31.363281 25.835938 31.792969 26.175781 32.261719 26.121094 L 34.324219 25.882812 C 30.019531 28.441406 26.230469 31.890625 23.300781 35.949219 " fill-opacity="1" fill-rule="nonzero"/><path fill="#231f20" d="M 21.289062 41.695312 C 21.601562 41.695312 21.902344 41.523438 22.054688 41.230469 C 22.320312 40.71875 22.605469 40.203125 22.902344 39.703125 C 23.140625 39.292969 23.003906 38.769531 22.59375 38.527344 C 22.183594 38.289062 21.65625 38.425781 21.417969 38.835938 C 21.105469 39.363281 20.808594 39.902344 20.527344 40.441406 C 20.308594 40.859375 20.472656 41.378906 20.894531 41.597656 C 21.023438 41.664062 21.15625 41.695312 21.289062 41.695312 " fill-opacity="1" fill-rule="nonzero"/><path fill="#231f20" d="M 19.246094 43.167969 C 18.636719 44.621094 18.117188 46.132812 17.703125 47.65625 C 17.578125 48.113281 17.847656 48.585938 18.304688 48.707031 C 18.382812 48.730469 18.457031 48.738281 18.53125 48.738281 C 18.910156 48.738281 19.257812 48.488281 19.363281 48.105469 C 19.757812 46.65625 20.253906 45.214844 20.835938 43.828125 C 21.019531 43.390625 20.8125 42.890625 20.375 42.707031 C 19.9375 42.523438 19.429688 42.730469 19.246094 43.167969 " fill-opacity="1" fill-rule="nonzero"/></svg>