<svg xmlns="http://www.w3.org/2000/svg" xmlns:xlink="http://www.w3.org/1999/xlink" width="140" zoomAndPan="magnify" viewBox="0 0 104.88 104.999996" height="140" preserveAspectRatio="xMidYMid meet" version="1.0"><defs><clipPath id="42721eb555"><path d="M 46 91 L 49 91 L 49 97.039062 L 46 97.039062 Z M 46 91 " clip-rule="nonzero"/></clipPath><clipPath id="19d97fed53"><path d="M 55 91 L 59 91 L 59 97.039062 L 55 97.039062 Z M 55 91 " clip-rule="nonzero"/></clipPath><clipPath id="4046b3bff3"><path d="M 39 82 L 48 82 L 48 97.039062 L 39 97.039062 Z M 39 82 " clip-rule="nonzero"/></clipPath><clipPath id="730da3d87b"><path d="M 28 7.890625 L 77 7.890625 L 77 34 L 28 34 Z M 28 7.890625 " clip-rule="nonzero"/></clipPath><clipPath id="26ab451f2c"><path d="M 7.773438 44 L 33 44 L 33 74 L 7.773438 74 Z M 7.773438 44 " clip-rule="nonzero"/></clipPath><clipPath id="ba262eba4b"><path d="M 71 46 L 96.921875 46 L 96.921875 74 L 71 74 Z M 71 46 " clip-rule="nonzero"/></clipPath></defs><g clip-path="url(#42721eb555)"><path fill="#000000" d="M 47.550781 91.449219 C 46.785156 91.449219 46.160156 92.078125 46.160156 92.84375 L 46.160156 95.628906 C 46.160156 96.394531 46.785156 97.019531 47.550781 97.019531 C 48.3125 97.019531 48.941406 96.394531 48.941406 95.628906 L 48.941406 92.84375 C 48.941406 92.078125 48.3125 91.449219 47.550781 91.449219 Z M 47.550781 91.449219 " fill-opacity="1" fill-rule="nonzero"/></g><g clip-path="url(#19d97fed53)"><path fill="#000000" d="M 57.285156 91.449219 C 56.519531 91.449219 55.894531 92.078125 55.894531 92.84375 L 55.894531 95.628906 C 55.894531 96.394531 56.519531 97.019531 57.285156 97.019531 C 58.050781 97.019531 58.675781 96.394531 58.675781 95.628906 L 58.675781 92.84375 C 58.675781 92.078125 58.050781 91.449219 57.285156 91.449219 Z M 57.285156 91.449219 " fill-opacity="1" fill-rule="nonzero"/></g><path fill="#000000" d="M 62.082031 84.070312 C 62.082031 84.070312 59.441406 82.957031 59.441406 82.957031 C 58.8125 83.792969 58.117188 84.488281 57.285156 85.046875 L 60.902344 86.507812 C 61.109375 86.648438 62.707031 87.550781 62.847656 89.222656 L 62.847656 95.558594 C 62.847656 96.324219 63.472656 96.949219 64.238281 96.949219 C 65.003906 96.949219 65.628906 96.324219 65.628906 95.558594 C 65.628906 95.558594 65.628906 89.152344 65.628906 89.082031 C 65.421875 85.671875 62.222656 84.140625 62.082031 84.070312 Z M 62.082031 84.070312 " fill-opacity="1" fill-rule="nonzero"/><g clip-path="url(#4046b3bff3)"><path fill="#000000" d="M 45.394531 82.957031 C 45.394531 82.957031 42.75 84 42.75 84.070312 C 42.613281 84.140625 39.414062 85.742188 39.203125 89.152344 C 39.203125 89.152344 39.203125 95.628906 39.203125 95.628906 C 39.203125 96.394531 39.832031 97.019531 40.59375 97.019531 C 41.359375 97.019531 41.984375 96.394531 41.984375 95.628906 L 41.984375 89.292969 C 42.125 87.621094 43.722656 86.714844 43.933594 86.578125 L 47.550781 85.046875 C 46.714844 84.488281 45.949219 83.792969 45.394531 82.957031 Z M 45.394531 82.957031 " fill-opacity="1" fill-rule="nonzero"/></g><path fill="#000000" d="M 58.328125 77.875 L 58.328125 74.394531 C 58.328125 71.121094 55.683594 68.476562 52.417969 68.476562 C 49.148438 68.476562 46.507812 71.121094 46.507812 74.394531 L 46.507812 77.875 C 46.507812 81.148438 49.148438 83.792969 52.417969 83.792969 C 55.683594 83.792969 58.328125 81.148438 58.328125 77.875 Z M 55.546875 77.875 C 55.546875 79.613281 54.15625 81.007812 52.417969 81.007812 C 50.679688 81.007812 49.289062 79.613281 49.289062 77.875 L 49.289062 74.394531 C 49.289062 72.652344 50.679688 71.261719 52.417969 71.261719 C 54.15625 71.261719 55.546875 72.652344 55.546875 74.394531 Z M 55.546875 77.875 " fill-opacity="1" fill-rule="nonzero"/><g clip-path="url(#730da3d87b)"><path fill="#000000" d="M 71.609375 30.949219 L 72.582031 30.949219 C 74.460938 30.949219 76.058594 29.417969 76.058594 27.609375 L 76.058594 21.691406 C 76.058594 21.132812 75.921875 20.648438 75.574219 20.160156 C 75.574219 20.160156 71.816406 14.730469 71.679688 14.589844 C 70.984375 13.546875 69.941406 12.015625 68.273438 12.015625 L 61.316406 12.015625 L 61.316406 11.316406 C 61.386719 9.4375 59.859375 7.90625 57.980469 7.90625 L 31.902344 7.90625 C 30.164062 7.90625 28.773438 9.296875 28.773438 10.96875 L 28.773438 27.816406 C 28.773438 29.488281 30.164062 30.878906 31.902344 30.878906 L 34.613281 30.878906 C 35.171875 32.480469 36.703125 33.597656 38.507812 33.597656 C 40.316406 33.597656 41.847656 32.480469 42.402344 30.878906 L 63.75 30.878906 C 64.308594 32.480469 65.835938 33.597656 67.644531 33.597656 C 69.523438 33.664062 71.054688 32.550781 71.609375 30.949219 Z M 38.507812 30.878906 C 37.746094 30.878906 37.117188 30.253906 37.117188 29.488281 C 37.117188 28.722656 37.746094 28.097656 38.507812 28.097656 C 39.273438 28.097656 39.898438 28.722656 39.898438 29.488281 C 39.898438 30.253906 39.273438 30.878906 38.507812 30.878906 Z M 58.605469 28.164062 L 42.472656 28.164062 C 41.917969 26.496094 40.386719 25.3125 38.507812 25.3125 C 36.703125 25.3125 35.101562 26.496094 34.546875 28.164062 L 31.902344 28.164062 C 31.695312 28.164062 31.554688 28.027344 31.554688 27.886719 L 31.554688 10.96875 C 31.554688 10.832031 31.695312 10.691406 31.902344 10.691406 L 57.980469 10.691406 C 58.398438 10.691406 58.605469 11.039062 58.605469 11.316406 Z M 61.386719 14.730469 L 68.339844 14.730469 C 68.621094 14.796875 73.347656 21.621094 73.347656 21.621094 L 73.347656 27.539062 C 73.347656 27.886719 73.070312 28.097656 72.652344 28.097656 L 71.679688 28.097656 C 71.121094 26.425781 69.59375 25.242188 67.714844 25.242188 C 65.90625 25.242188 64.308594 26.425781 63.75 28.097656 L 61.386719 28.097656 Z M 67.714844 30.878906 C 66.949219 30.878906 66.324219 30.253906 66.324219 29.488281 C 66.324219 28.722656 66.949219 28.097656 67.714844 28.097656 C 68.480469 28.097656 69.105469 28.722656 69.105469 29.488281 C 69.105469 30.253906 68.480469 30.878906 67.714844 30.878906 Z M 67.714844 30.878906 " fill-opacity="1" fill-rule="nonzero"/></g><g clip-path="url(#26ab451f2c)"><path fill="#000000" d="M 28.773438 73.347656 C 30.304688 73.347656 31.554688 72.097656 31.554688 70.5625 L 31.554688 58.730469 C 31.902344 58.730469 32.25 58.589844 32.527344 58.3125 C 33.085938 57.753906 33.085938 56.917969 32.527344 56.363281 L 21.402344 45.222656 C 21.125 44.945312 20.777344 44.804688 20.429688 44.804688 C 20.082031 44.804688 19.734375 44.945312 19.457031 45.222656 L 8.328125 56.363281 C 7.773438 56.917969 7.773438 57.753906 8.328125 58.3125 C 8.609375 58.589844 8.957031 58.730469 9.304688 58.730469 L 9.304688 70.5625 C 9.304688 72.097656 10.554688 73.347656 12.085938 73.347656 Z M 23.90625 70.5625 L 16.953125 70.5625 L 16.953125 63.601562 L 23.90625 63.601562 Z M 12.085938 56.5 L 20.429688 48.148438 L 28.773438 56.5 C 28.773438 56.570312 28.773438 70.5625 28.773438 70.5625 L 26.6875 70.5625 L 26.6875 63.601562 C 26.6875 62.070312 25.4375 60.816406 23.90625 60.816406 L 16.953125 60.816406 C 15.421875 60.816406 14.171875 62.070312 14.171875 63.601562 L 14.171875 70.5625 L 12.085938 70.5625 C 12.085938 70.5625 12.085938 56.570312 12.085938 56.5 Z M 12.085938 56.5 " fill-opacity="1" fill-rule="nonzero"/></g><path fill="#000000" d="M 62.917969 46.683594 C 63.265625 46.058594 63.402344 45.363281 63.335938 44.664062 C 63.265625 43.691406 62.847656 42.785156 62.152344 42.089844 L 61.316406 41.324219 C 60.554688 40.558594 59.511719 40.140625 58.464844 40.140625 C 57.839844 40.140625 57.214844 40.28125 56.726562 40.558594 C 56.242188 39.027344 54.710938 37.84375 52.972656 37.84375 L 51.792969 37.84375 C 49.984375 37.84375 48.523438 38.957031 48.035156 40.558594 C 47.480469 40.28125 46.921875 40.140625 46.296875 40.140625 C 45.253906 40.140625 44.210938 40.558594 43.445312 41.324219 L 42.679688 42.160156 C 41.429688 43.414062 41.152344 45.292969 41.917969 46.753906 C 40.316406 47.242188 39.203125 48.773438 39.203125 50.515625 L 39.203125 51.699219 C 39.203125 53.507812 40.316406 54.96875 41.917969 55.457031 C 41.152344 56.917969 41.429688 58.796875 42.679688 60.050781 L 43.515625 60.886719 C 44.28125 61.652344 45.324219 62.070312 46.367188 62.070312 C 46.992188 62.070312 47.617188 61.929688 48.105469 61.652344 C 48.59375 63.183594 50.121094 64.367188 51.859375 64.367188 L 53.042969 64.367188 C 54.851562 64.367188 56.3125 63.253906 56.796875 61.652344 C 57.355469 61.929688 57.910156 62.070312 58.535156 62.070312 C 59.578125 62.070312 60.621094 61.652344 61.386719 60.886719 L 62.222656 60.050781 C 62.988281 59.285156 63.402344 58.242188 63.402344 57.199219 C 63.402344 56.570312 63.265625 55.945312 62.988281 55.457031 C 64.515625 54.96875 65.699219 53.4375 65.699219 51.699219 L 65.699219 50.515625 C 65.628906 48.703125 64.515625 47.171875 62.917969 46.683594 Z M 62.847656 51.628906 C 62.847656 52.253906 62.359375 52.8125 61.804688 52.8125 L 60.761719 52.8125 C 60.484375 52.8125 60.273438 53.019531 60.207031 53.230469 C 59.996094 53.855469 59.789062 54.480469 59.441406 55.039062 C 59.300781 55.246094 59.371094 55.527344 59.507812 55.734375 L 60.207031 56.429688 C 60.621094 56.847656 60.554688 57.546875 60.136719 57.964844 L 59.371094 58.867188 C 59.09375 59.078125 58.8125 59.214844 58.535156 59.214844 C 58.257812 59.214844 58.050781 59.148438 57.839844 58.9375 C 57.839844 58.9375 57.144531 58.242188 57.144531 58.242188 C 56.9375 58.03125 56.660156 58.03125 56.449219 58.171875 C 55.894531 58.519531 55.269531 58.730469 54.640625 58.9375 C 54.363281 59.007812 54.226562 59.214844 54.226562 59.496094 L 54.226562 60.539062 C 54.226562 61.097656 53.738281 61.582031 53.042969 61.582031 L 51.859375 61.582031 C 51.234375 61.582031 50.679688 61.097656 50.679688 60.539062 L 50.679688 59.425781 C 50.679688 59.148438 50.46875 58.9375 50.261719 58.867188 C 49.636719 58.660156 49.007812 58.449219 48.453125 58.101562 C 48.246094 57.964844 47.964844 58.03125 47.757812 58.171875 L 47.0625 58.867188 C 46.855469 59.078125 46.644531 59.148438 46.367188 59.148438 C 46.089844 59.148438 45.742188 59.007812 45.53125 58.796875 L 44.628906 58.03125 C 44.140625 57.546875 44.140625 56.917969 44.558594 56.5 L 45.253906 55.804688 C 45.464844 55.597656 45.464844 55.316406 45.324219 55.109375 C 44.976562 54.550781 44.769531 53.925781 44.558594 53.296875 C 44.488281 53.019531 44.28125 52.882812 44.003906 52.882812 L 42.960938 52.882812 C 42.402344 52.882812 41.917969 52.394531 41.917969 51.699219 L 41.917969 50.515625 C 41.917969 49.886719 42.402344 49.332031 42.960938 49.332031 L 44.074219 49.332031 C 44.351562 49.332031 44.558594 49.121094 44.628906 48.914062 C 44.835938 48.285156 45.046875 47.660156 45.394531 47.101562 C 45.53125 46.894531 45.464844 46.613281 45.324219 46.40625 L 44.628906 45.710938 C 44.210938 45.292969 44.28125 44.597656 44.699219 44.179688 L 45.53125 43.34375 C 45.949219 42.925781 46.644531 42.785156 47.0625 43.273438 C 47.0625 43.273438 47.757812 43.96875 47.757812 43.96875 C 47.964844 44.179688 48.246094 44.179688 48.453125 44.039062 C 49.007812 43.691406 49.636719 43.480469 50.261719 43.273438 C 50.539062 43.203125 50.679688 42.996094 50.679688 42.714844 L 50.679688 41.671875 C 50.679688 41.113281 51.164062 40.628906 51.859375 40.628906 L 53.042969 40.628906 C 53.667969 40.628906 54.226562 41.113281 54.226562 41.671875 L 54.226562 42.714844 C 54.226562 42.996094 54.433594 43.203125 54.640625 43.273438 C 55.269531 43.480469 55.894531 43.691406 56.449219 44.039062 C 56.660156 44.179688 56.9375 44.109375 57.144531 43.96875 C 57.144531 43.96875 57.839844 43.273438 57.839844 43.273438 C 58.257812 42.855469 59.023438 42.996094 59.371094 43.34375 L 60.207031 44.179688 C 60.691406 44.664062 60.691406 45.292969 60.273438 45.710938 L 59.578125 46.40625 C 59.371094 46.613281 59.371094 46.894531 59.507812 47.101562 C 59.859375 47.660156 60.066406 48.285156 60.273438 48.914062 C 60.34375 49.191406 60.554688 49.332031 60.832031 49.332031 L 61.875 49.332031 C 62.429688 49.332031 62.917969 49.816406 62.917969 50.515625 L 62.917969 51.628906 Z M 62.847656 51.628906 " fill-opacity="1" fill-rule="nonzero"/><path fill="#000000" d="M 52.417969 46.199219 C 49.703125 46.199219 47.550781 48.355469 47.550781 51.070312 C 47.550781 53.785156 49.703125 55.945312 52.417969 55.945312 C 55.128906 55.945312 57.285156 53.785156 57.285156 51.070312 C 57.285156 48.355469 55.128906 46.199219 52.417969 46.199219 Z M 52.417969 53.160156 C 51.234375 53.160156 50.332031 52.253906 50.332031 51.070312 C 50.332031 49.886719 51.234375 48.980469 52.417969 48.980469 C 53.597656 48.980469 54.503906 49.886719 54.503906 51.070312 C 54.503906 52.253906 53.597656 53.160156 52.417969 53.160156 Z M 52.417969 53.160156 " fill-opacity="1" fill-rule="nonzero"/><g clip-path="url(#ba262eba4b)"><path fill="#000000" d="M 95.460938 51.976562 L 85.726562 46.546875 C 84.890625 46.058594 83.847656 46.058594 83.015625 46.546875 L 73.277344 51.976562 C 72.375 52.464844 71.816406 53.367188 71.816406 54.414062 L 71.816406 65.132812 C 71.816406 66.179688 72.375 67.082031 73.277344 67.570312 C 73.277344 67.570312 83.015625 73 83.015625 73 C 83.777344 73.417969 84.890625 73.488281 85.726562 73 L 95.460938 67.570312 C 96.363281 67.082031 96.921875 66.179688 96.921875 65.132812 L 96.921875 54.414062 C 96.921875 53.367188 96.363281 52.464844 95.460938 51.976562 Z M 84.40625 48.980469 L 92.679688 53.578125 L 84.40625 58.171875 L 76.128906 53.578125 Z M 74.667969 55.945312 L 83.015625 60.609375 L 83.015625 69.796875 L 74.667969 65.132812 Z M 85.796875 69.796875 L 85.796875 60.609375 L 94.140625 55.945312 L 94.140625 65.132812 Z M 85.796875 69.796875 " fill-opacity="1" fill-rule="nonzero"/></g><path fill="#000000" d="M 83.988281 78.78125 C 83.292969 78.429688 82.457031 78.710938 82.109375 79.40625 C 80.230469 83.164062 76.894531 84.90625 75.226562 85.601562 C 75.226562 85.253906 75.085938 84.835938 74.808594 84.558594 C 74.25 84 73.347656 84.070312 72.859375 84.628906 L 70.496094 87.132812 C 70.148438 87.480469 70.011719 88.039062 70.148438 88.457031 C 70.289062 88.945312 70.707031 89.292969 71.121094 89.429688 C 71.121094 89.429688 74.460938 90.265625 74.460938 90.265625 C 75.15625 90.476562 75.992188 89.988281 76.128906 89.222656 C 76.199219 88.875 76.128906 88.597656 76.058594 88.316406 C 78.144531 87.480469 82.25 85.394531 84.613281 80.660156 C 84.960938 79.964844 84.683594 79.128906 83.988281 78.78125 Z M 83.988281 78.78125 " fill-opacity="1" fill-rule="nonzero"/><path fill="#000000" d="M 33.222656 89.78125 C 29.398438 87.898438 27.589844 84.628906 26.828125 82.886719 C 27.242188 82.886719 27.589844 82.746094 27.871094 82.46875 C 28.425781 81.914062 28.355469 81.007812 27.800781 80.519531 L 25.296875 78.152344 C 24.949219 77.804688 24.394531 77.664062 23.976562 77.804688 C 23.488281 77.945312 23.140625 78.363281 23.003906 78.78125 C 23.003906 78.78125 22.167969 82.121094 22.167969 82.121094 C 21.960938 82.957031 22.65625 83.863281 23.488281 83.863281 C 23.699219 83.863281 23.90625 83.792969 24.113281 83.722656 C 24.949219 85.8125 27.105469 89.917969 31.902344 92.285156 C 32.597656 92.632812 33.433594 92.355469 33.78125 91.660156 C 34.199219 90.964844 33.917969 90.128906 33.222656 89.78125 Z M 33.222656 89.78125 " fill-opacity="1" fill-rule="nonzero"/><path fill="#000000" d="M 14.589844 43.691406 C 15.351562 43.761719 16.046875 43.203125 16.117188 42.507812 C 16.605469 38.332031 19.175781 35.546875 20.570312 34.363281 C 20.707031 34.710938 20.917969 35.058594 21.332031 35.199219 C 22.027344 35.476562 22.863281 35.199219 23.140625 34.5 L 24.53125 31.367188 C 24.742188 30.878906 24.671875 30.394531 24.394531 29.976562 C 24.113281 29.558594 23.628906 29.347656 23.140625 29.417969 L 19.734375 29.699219 C 18.96875 29.765625 18.414062 30.464844 18.480469 31.230469 C 18.480469 31.578125 18.691406 31.855469 18.898438 32.0625 C 17.230469 33.527344 14.03125 36.867188 13.335938 42.160156 C 13.265625 42.855469 13.824219 43.550781 14.589844 43.691406 Z M 14.589844 43.691406 " fill-opacity="1" fill-rule="nonzero"/><path fill="#000000" d="M 81.207031 30.8125 C 81.273438 30.8125 85.378906 33.664062 86.421875 38.886719 C 86.074219 38.886719 85.726562 38.957031 85.378906 39.234375 C 84.820312 39.722656 84.753906 40.628906 85.238281 41.183594 C 85.238281 41.183594 87.535156 43.761719 87.535156 43.761719 C 87.882812 44.109375 88.367188 44.316406 88.855469 44.179688 C 89.339844 44.109375 89.757812 43.761719 89.898438 43.273438 L 91.011719 40 C 91.289062 39.304688 90.871094 38.46875 90.105469 38.261719 C 89.757812 38.121094 89.410156 38.191406 89.132812 38.332031 C 87.882812 31.925781 82.945312 28.652344 82.734375 28.515625 C 82.109375 28.097656 81.207031 28.304688 80.789062 28.929688 C 80.441406 29.488281 80.578125 30.324219 81.207031 30.8125 Z M 81.207031 30.8125 " fill-opacity="1" fill-rule="nonzero"/><path fill="#000000" d="M 21.820312 56.640625 C 21.820312 56.824219 21.785156 57.003906 21.714844 57.171875 C 21.644531 57.34375 21.542969 57.496094 21.414062 57.625 C 21.28125 57.753906 21.132812 57.855469 20.960938 57.925781 C 20.792969 57.996094 20.613281 58.03125 20.429688 58.03125 C 20.246094 58.03125 20.066406 57.996094 19.898438 57.925781 C 19.726562 57.855469 19.578125 57.753906 19.445312 57.625 C 19.316406 57.496094 19.214844 57.34375 19.144531 57.171875 C 19.074219 57.003906 19.039062 56.824219 19.039062 56.640625 C 19.039062 56.457031 19.074219 56.277344 19.144531 56.109375 C 19.214844 55.9375 19.316406 55.785156 19.445312 55.65625 C 19.578125 55.523438 19.726562 55.425781 19.898438 55.355469 C 20.066406 55.285156 20.246094 55.246094 20.429688 55.246094 C 20.613281 55.246094 20.792969 55.285156 20.960938 55.355469 C 21.132812 55.425781 21.28125 55.523438 21.414062 55.65625 C 21.542969 55.785156 21.644531 55.9375 21.714844 56.109375 C 21.785156 56.277344 21.820312 56.457031 21.820312 56.640625 Z M 21.820312 56.640625 " fill-opacity="1" fill-rule="nonzero"/></svg>