<svg xmlns="http://www.w3.org/2000/svg" xmlns:xlink="http://www.w3.org/1999/xlink" width="140" zoomAndPan="magnify" viewBox="0 0 104.88 104.999996" height="140" preserveAspectRatio="xMidYMid meet" version="1.0"><defs><clipPath id="84a92a50bd"><path d="M 56 86 L 77 86 L 77 97.074219 L 56 97.074219 Z M 56 86 " clip-rule="nonzero"/></clipPath><clipPath id="c6a49bf985"><path d="M 28 86 L 49 86 L 49 97.074219 L 28 97.074219 Z M 28 86 " clip-rule="nonzero"/></clipPath></defs><g clip-path="url(#84a92a50bd)"><path fill="#000000" d="M 74.558594 86.996094 C 74.386719 86.992188 58.503906 86.917969 58.644531 86.917969 C 57.484375 86.917969 56.53125 87.890625 56.523438 89.125 L 56.5 94.839844 C 56.496094 96.0625 57.441406 97.058594 58.609375 97.0625 C 59.132812 97.066406 74.664062 97.140625 74.527344 97.140625 C 75.71875 97.140625 76.636719 96.128906 76.644531 94.9375 L 76.664062 89.21875 C 76.667969 88 75.726562 87.003906 74.558594 86.996094 Z M 74.527344 95.109375 C 67.039062 95.074219 67.164062 95.074219 58.617188 95.03125 C 58.601562 95.03125 58.535156 94.972656 58.535156 94.847656 C 58.574219 89.023438 58.5 88.949219 58.640625 88.949219 L 74.546875 89.027344 C 74.558594 89.027344 74.632812 89.082031 74.632812 89.210938 C 74.554688 94.519531 74.707031 95.070312 74.527344 95.109375 Z M 74.527344 95.109375 " fill-opacity="1" fill-rule="nonzero"/></g><path fill="#000000" d="M 72.515625 74.554688 C 72.082031 74.910156 72.019531 75.550781 72.375 75.984375 C 72.730469 76.417969 73.371094 76.480469 73.804688 76.125 L 80.015625 71.019531 C 81.867188 69.496094 82.171875 66.726562 80.695312 64.839844 C 79.21875 62.957031 76.542969 62.570312 74.601562 63.960938 L 64 71.546875 C 60.148438 74.304688 57.847656 78.777344 57.847656 83.515625 C 57.847656 84.074219 58.300781 84.53125 58.863281 84.53125 C 59.425781 84.53125 59.878906 84.074219 59.878906 83.515625 C 59.878906 79.433594 61.863281 75.578125 65.179688 73.203125 L 75.78125 65.617188 C 76.839844 64.859375 78.292969 65.066406 79.09375 66.09375 C 79.898438 67.117188 79.730469 68.625 78.722656 69.453125 Z M 72.515625 74.554688 " fill-opacity="1" fill-rule="nonzero"/><path fill="#000000" d="M 87.308594 49.738281 L 84.9375 59.796875 C 84.480469 61.753906 83.175781 62.550781 82.589844 63.242188 C 82.191406 63.640625 82.191406 64.285156 82.589844 64.679688 C 82.988281 65.078125 83.628906 65.074219 84.027344 64.679688 C 84.566406 64.027344 86.300781 62.886719 86.917969 60.265625 L 89.285156 50.203125 C 89.796875 48.042969 92.632812 47.582031 93.824219 49.40625 C 94.195312 49.96875 94.320312 50.644531 94.179688 51.304688 L 90.53125 68.3125 C 90.121094 70.308594 88.476562 71.484375 87.171875 72.121094 C 83.351562 73.980469 78.140625 77.316406 75.011719 82.632812 C 74.726562 83.117188 74.890625 83.742188 75.371094 84.023438 C 75.851562 84.308594 76.476562 84.152344 76.761719 83.664062 C 79.632812 78.785156 84.492188 75.6875 88.0625 73.949219 C 90.488281 72.765625 92.070312 70.914062 92.519531 68.730469 L 96.164062 51.730469 C 96.421875 50.535156 96.191406 49.316406 95.523438 48.292969 C 93.382812 45.023438 88.246094 45.78125 87.308594 49.738281 Z M 87.308594 49.738281 " fill-opacity="1" fill-rule="nonzero"/><g clip-path="url(#c6a49bf985)"><path fill="#000000" d="M 46.484375 86.917969 L 30.578125 86.996094 C 29.410156 87.003906 28.464844 88 28.472656 89.21875 L 28.492188 94.9375 C 28.5 96.144531 29.433594 97.140625 30.605469 97.140625 C 30.746094 97.140625 46.386719 97.070312 46.527344 97.0625 C 47.691406 97.058594 48.640625 96.0625 48.632812 94.839844 L 48.609375 89.125 C 48.605469 87.960938 47.714844 86.902344 46.484375 86.917969 Z M 46.515625 95.03125 C 33.699219 95.09375 38.734375 95.070312 30.609375 95.109375 C 30.425781 95.0625 30.582031 94.425781 30.503906 89.210938 C 30.503906 89.089844 30.574219 89.027344 30.589844 89.027344 L 46.496094 88.949219 C 46.511719 88.953125 46.578125 89.011719 46.578125 89.132812 C 46.542969 94.375 46.699219 94.996094 46.515625 95.03125 Z M 46.515625 95.03125 " fill-opacity="1" fill-rule="nonzero"/></g><path fill="#000000" d="M 29.351562 65.617188 L 39.953125 73.203125 C 43.273438 75.578125 45.253906 79.433594 45.253906 83.515625 C 45.253906 84.074219 45.710938 84.53125 46.273438 84.53125 C 46.832031 84.53125 47.289062 84.074219 47.289062 83.515625 C 47.289062 78.777344 44.988281 74.304688 41.136719 71.546875 L 30.535156 63.960938 C 28.585938 62.570312 25.914062 62.957031 24.445312 64.839844 C 22.964844 66.722656 23.265625 69.496094 25.121094 71.019531 L 31.332031 76.125 C 31.765625 76.480469 32.40625 76.417969 32.761719 75.984375 C 33.117188 75.550781 33.054688 74.910156 32.621094 74.554688 L 26.410156 69.453125 C 25.402344 68.625 25.238281 67.117188 26.042969 66.089844 C 26.84375 65.070312 28.292969 64.859375 29.351562 65.617188 Z M 29.351562 65.617188 " fill-opacity="1" fill-rule="nonzero"/><path fill="#000000" d="M 29.730469 82.632812 C 26.601562 77.316406 21.390625 73.980469 17.570312 72.117188 C 16.265625 71.484375 14.621094 70.308594 14.207031 68.304688 L 10.566406 51.304688 C 10.273438 49.941406 11.144531 48.601562 12.515625 48.320312 C 13.855469 48.050781 15.144531 48.875 15.457031 50.203125 L 17.824219 60.265625 C 18.445312 62.894531 20.1875 64.042969 20.714844 64.679688 C 21.113281 65.074219 21.753906 65.078125 22.152344 64.679688 C 22.550781 64.285156 22.550781 63.640625 22.152344 63.242188 L 21.179688 62.265625 C 20.5 61.589844 20.023438 60.734375 19.804688 59.796875 L 17.433594 49.738281 C 16.867188 47.332031 14.535156 45.835938 12.105469 46.332031 C 9.632812 46.835938 8.050781 49.257812 8.578125 51.730469 L 12.21875 68.722656 C 12.671875 70.914062 14.257812 72.765625 16.679688 73.945312 C 20.25 75.6875 25.109375 78.785156 27.980469 83.664062 C 28.167969 83.988281 28.507812 84.164062 28.855469 84.164062 C 29.632812 84.164062 30.128906 83.3125 29.730469 82.632812 Z M 29.730469 82.632812 " fill-opacity="1" fill-rule="nonzero"/><path fill="#000000" d="M 52.890625 53.390625 C 52.894531 53.390625 52.898438 53.390625 52.902344 53.390625 C 56.191406 53.382812 58.53125 49.09375 59.117188 47.90625 C 62.011719 45.75 62.175781 43.015625 60.476562 40.753906 C 61.613281 38.683594 60.988281 36.746094 59.117188 35.519531 L 60.496094 33.253906 C 60.945312 32.515625 60.335938 31.582031 59.460938 31.722656 L 54.207031 32.609375 C 50.242188 32.542969 48.933594 33.898438 48.457031 34.753906 C 45.71875 35.804688 45.175781 38.714844 45.875 41.589844 C 44.152344 44.046875 46 46.992188 47.402344 48.390625 C 48.976562 51.707031 50.824219 53.390625 52.890625 53.390625 Z M 48.941406 47.050781 C 48.910156 47.023438 46.078125 44.316406 47.742188 42.507812 C 47.992188 42.234375 48.074219 41.847656 47.957031 41.496094 C 47.742188 40.855469 47.332031 38.917969 47.988281 37.679688 C 48.285156 37.121094 48.777344 36.75 49.488281 36.550781 C 49.871094 36.445312 50.152344 36.125 50.21875 35.734375 C 50.21875 35.722656 50.78125 34.640625 53.972656 34.640625 C 54.5625 34.640625 53.894531 34.722656 57.605469 34.097656 L 56.816406 35.390625 C 56.488281 35.929688 56.734375 36.648438 57.335938 36.871094 C 57.707031 37.007812 58.71875 37.542969 58.957031 38.335938 C 59.117188 38.859375 58.925781 39.507812 58.386719 40.253906 C 58.089844 40.671875 58.144531 41.246094 58.523438 41.59375 C 58.535156 41.605469 59.613281 42.636719 59.527344 43.894531 C 59.472656 44.757812 58.863281 45.601562 57.726562 46.40625 C 57.578125 46.507812 57.460938 46.648438 57.386719 46.8125 C 56.847656 47.988281 54.859375 51.351562 52.898438 51.355469 C 52.761719 51.28125 51.179688 51.703125 49.164062 47.363281 C 49.109375 47.246094 49.035156 47.140625 48.941406 47.050781 Z M 48.941406 47.050781 " fill-opacity="1" fill-rule="nonzero"/><path fill="#000000" d="M 48.507812 53.839844 C 48.378906 53.292969 47.839844 52.953125 47.289062 53.074219 C 36.167969 55.625 36.230469 64.328125 36.230469 64.414062 C 36.246094 64.96875 36.695312 65.410156 37.25 65.410156 C 37.253906 65.410156 37.261719 65.410156 37.269531 65.410156 C 37.832031 65.394531 38.277344 64.929688 38.265625 64.371094 C 38.261719 64.296875 38.21875 57.238281 47.742188 55.058594 C 48.289062 54.933594 48.632812 54.386719 48.507812 53.839844 Z M 48.507812 53.839844 " fill-opacity="1" fill-rule="nonzero"/><path fill="#000000" d="M 58.238281 53.839844 C 58.113281 54.386719 58.453125 54.933594 59 55.058594 C 68.457031 57.222656 68.480469 64.082031 68.476562 64.371094 C 68.464844 64.929688 68.910156 65.394531 69.472656 65.410156 C 69.480469 65.410156 69.488281 65.410156 69.492188 65.410156 C 70.046875 65.410156 70.496094 64.96875 70.507812 64.414062 C 70.511719 64.328125 70.574219 55.625 59.453125 53.074219 C 58.90625 52.953125 58.363281 53.292969 58.238281 53.839844 Z M 58.238281 53.839844 " fill-opacity="1" fill-rule="nonzero"/><path fill="#000000" d="M 57.246094 58.382812 C 57.679688 58.03125 57.75 57.390625 57.398438 56.953125 C 57.042969 56.515625 56.402344 56.449219 55.96875 56.800781 L 53.371094 58.894531 L 50.773438 56.800781 C 50.335938 56.449219 49.699219 56.515625 49.34375 56.953125 C 48.992188 57.390625 49.0625 58.03125 49.496094 58.382812 L 52.355469 60.683594 L 52.355469 65.679688 C 52.355469 66.242188 52.808594 66.695312 53.371094 66.695312 C 53.933594 66.695312 54.386719 66.242188 54.386719 65.679688 L 54.386719 60.683594 Z M 57.246094 58.382812 " fill-opacity="1" fill-rule="nonzero"/><path fill="#000000" d="M 8.808594 42.988281 C 8.820312 43.542969 9.273438 43.984375 9.824219 43.984375 C 9.832031 43.984375 9.839844 43.984375 9.847656 43.984375 C 10.410156 43.96875 10.851562 43.507812 10.839844 42.945312 C 10.839844 42.875 10.796875 36.078125 19.976562 33.976562 C 20.523438 33.851562 20.867188 33.304688 20.742188 32.757812 C 20.617188 32.210938 20.0625 31.871094 19.523438 31.992188 C 8.746094 34.460938 8.808594 42.90625 8.808594 42.988281 Z M 8.808594 42.988281 " fill-opacity="1" fill-rule="nonzero"/><path fill="#000000" d="M 31.300781 31.992188 C 30.761719 31.871094 30.210938 32.210938 30.082031 32.757812 C 29.960938 33.304688 30.300781 33.851562 30.847656 33.976562 C 39.964844 36.0625 39.988281 42.667969 39.984375 42.945312 C 39.972656 43.507812 40.417969 43.96875 40.980469 43.984375 C 40.988281 43.984375 40.996094 43.984375 41.003906 43.984375 C 41.554688 43.984375 42.007812 43.542969 42.019531 42.988281 C 42.019531 42.90625 42.082031 34.460938 31.300781 31.992188 Z M 31.300781 31.992188 " fill-opacity="1" fill-rule="nonzero"/><path fill="#000000" d="M 25.414062 43.421875 C 25.972656 43.421875 26.429688 42.96875 26.429688 42.40625 L 26.429688 38.273438 L 28.777344 36.378906 C 29.214844 36.027344 29.285156 35.386719 28.929688 34.949219 C 28.578125 34.511719 27.9375 34.445312 27.503906 34.796875 L 25.414062 36.480469 L 23.324219 34.796875 C 22.886719 34.449219 22.246094 34.511719 21.894531 34.949219 C 21.542969 35.386719 21.609375 36.027344 22.046875 36.378906 L 24.398438 38.273438 L 24.398438 42.40625 C 24.398438 42.96875 24.851562 43.421875 25.414062 43.421875 Z M 25.414062 43.421875 " fill-opacity="1" fill-rule="nonzero"/><path fill="#000000" d="M 65.722656 42.96875 C 65.722656 43.527344 66.175781 43.984375 66.738281 43.984375 C 67.300781 43.984375 67.753906 43.527344 67.753906 42.96875 C 67.753906 42.667969 67.839844 35.644531 75.269531 34.410156 C 75.628906 34.351562 75.90625 34.390625 76.109375 34.527344 C 79.863281 37.027344 82.035156 37.027344 85.789062 34.527344 C 85.992188 34.394531 86.277344 34.359375 86.652344 34.414062 C 94.605469 35.5625 94.171875 42.585938 94.148438 42.886719 C 94.105469 43.480469 94.570312 43.984375 95.164062 43.984375 C 95.6875 43.984375 96.132812 43.582031 96.175781 43.050781 C 96.183594 42.957031 96.8125 33.828125 86.941406 32.402344 C 86.058594 32.269531 85.289062 32.417969 84.664062 32.835938 C 81.609375 34.867188 80.289062 34.871094 77.234375 32.835938 C 76.59375 32.40625 75.800781 32.265625 74.9375 32.402344 C 65.828125 33.921875 65.722656 42.878906 65.722656 42.96875 Z M 65.722656 42.96875 " fill-opacity="1" fill-rule="nonzero"/><path fill="#000000" d="M 16.503906 22.25 L 16.585938 22.667969 C 16.8125 23.820312 17.742188 24.6875 18.871094 24.867188 C 19.269531 26.28125 20.429688 29.082031 23.546875 30.320312 C 24.535156 30.710938 25.648438 30.75 26.660156 30.425781 C 28.382812 29.882812 31.246094 28.445312 32.011719 24.859375 C 33.117188 24.660156 34.015625 23.796875 34.238281 22.667969 L 34.324219 22.246094 C 34.546875 21.101562 34.015625 19.964844 33.042969 19.363281 L 33.234375 18.292969 C 35.050781 15.441406 33.835938 12.875 30.941406 11.523438 C 29.683594 9.148438 26.921875 7.945312 24.34375 8.714844 C 22.742188 9.191406 21.246094 9.902344 19.894531 10.835938 C 17.660156 12.386719 16.828125 15.316406 17.914062 17.804688 L 17.914062 19.273438 C 16.875 19.835938 16.265625 21.035156 16.503906 22.25 Z M 19.070312 20.992188 L 19.148438 20.976562 C 19.617188 20.875 19.949219 20.460938 19.949219 19.984375 L 19.949219 17.59375 C 19.949219 17.296875 19.835938 17.144531 19.785156 17.007812 C 19.074219 15.398438 19.609375 13.507812 21.050781 12.507812 C 22.21875 11.703125 24.507812 10.515625 25.925781 10.515625 C 27.328125 10.515625 28.664062 11.355469 29.265625 12.71875 C 29.378906 12.972656 29.589844 13.171875 29.851562 13.265625 C 30.296875 13.425781 31.644531 14.113281 31.980469 15.140625 C 32.179688 15.761719 31.996094 16.503906 31.429688 17.339844 C 31.222656 17.648438 31.28125 17.8125 30.894531 19.804688 C 30.796875 20.34375 31.222656 20.878906 31.761719 20.996094 C 32.152344 21.078125 32.40625 21.464844 32.328125 21.855469 L 32.246094 22.277344 C 32.175781 22.621094 31.875 22.871094 31.523438 22.871094 L 31.140625 22.871094 C 30.621094 22.871094 30.1875 23.261719 30.128906 23.777344 C 29.8125 26.703125 27.734375 27.953125 26.046875 28.492188 C 25.46875 28.671875 24.851562 28.652344 24.296875 28.429688 C 21.246094 27.214844 20.714844 23.882812 20.691406 23.746094 C 20.621094 23.242188 20.195312 22.871094 19.6875 22.871094 L 19.304688 22.871094 C 18.953125 22.871094 18.648438 22.621094 18.582031 22.273438 L 18.5 21.855469 C 18.421875 21.464844 18.675781 21.078125 19.070312 20.992188 Z M 19.070312 20.992188 " fill-opacity="1" fill-rule="nonzero"/><path fill="#000000" d="M 87.519531 30.664062 C 90.257812 30.664062 92.484375 28.4375 92.484375 25.699219 L 92.484375 21.4375 C 92.484375 15.074219 87.3125 9.898438 80.949219 9.898438 C 74.589844 9.898438 69.414062 15.074219 69.414062 21.4375 L 69.414062 25.699219 C 69.414062 28.4375 71.640625 30.664062 74.378906 30.664062 C 74.941406 30.664062 75.398438 30.210938 75.398438 29.648438 C 75.398438 29.085938 74.941406 28.632812 74.378906 28.632812 C 72.761719 28.632812 71.445312 27.316406 71.445312 25.699219 L 71.445312 21.4375 C 71.445312 16.195312 75.710938 11.929688 80.949219 11.929688 C 86.191406 11.929688 90.453125 16.195312 90.453125 21.4375 L 90.453125 25.699219 C 90.453125 27.316406 89.136719 28.632812 87.519531 28.632812 C 86.960938 28.632812 86.503906 29.085938 86.503906 29.648438 C 86.503906 30.210938 86.960938 30.664062 87.519531 30.664062 Z M 87.519531 30.664062 " fill-opacity="1" fill-rule="nonzero"/><path fill="#000000" d="M 88.011719 20.691406 C 87.9375 20.234375 87.5625 19.886719 87.105469 19.84375 C 81.867188 19.347656 81.652344 15.484375 81.648438 15.484375 C 81.671875 14.9375 81.253906 14.472656 80.707031 14.429688 C 80.210938 14.410156 79.683594 14.792969 79.625 15.335938 C 79.246094 18.90625 74.570312 20.496094 74.519531 20.511719 C 74.140625 20.636719 73.792969 21.0625 73.792969 21.867188 C 73.792969 25.636719 76.648438 31.332031 80.953125 31.332031 C 85.253906 31.332031 88.105469 25.636719 88.105469 21.867188 C 88.105469 21.453125 88.074219 21.066406 88.011719 20.691406 Z M 80.953125 29.296875 C 78.421875 29.296875 76.03125 25.453125 75.847656 22.175781 C 76.984375 21.683594 79.257812 20.503906 80.605469 18.433594 C 81.507812 19.84375 83.15625 21.277344 86.070312 21.757812 C 86.179688 24.699219 83.765625 29.296875 80.953125 29.296875 Z M 80.953125 29.296875 " fill-opacity="1" fill-rule="nonzero"/><path fill="#000000" d="M 55.582031 14.8125 L 51.023438 14.8125 C 50.464844 14.8125 50.007812 15.265625 50.007812 15.828125 L 50.007812 18.875 L 46.960938 18.875 C 46.402344 18.875 45.945312 19.328125 45.945312 19.890625 L 45.945312 24.449219 C 45.945312 25.007812 46.402344 25.464844 46.960938 25.464844 L 50.007812 25.464844 L 50.007812 28.519531 C 50.007812 29.082031 50.464844 29.535156 51.023438 29.535156 L 55.582031 29.535156 C 56.144531 29.535156 56.601562 29.082031 56.601562 28.519531 L 56.601562 25.464844 L 59.65625 25.464844 C 60.21875 25.464844 60.671875 25.007812 60.671875 24.449219 L 60.671875 19.890625 C 60.671875 19.328125 60.21875 18.875 59.65625 18.875 L 56.601562 18.875 L 56.601562 15.828125 C 56.601562 15.265625 56.144531 14.8125 55.582031 14.8125 Z M 58.640625 20.90625 L 58.640625 23.433594 L 55.582031 23.433594 C 55.023438 23.433594 54.566406 23.886719 54.566406 24.449219 L 54.566406 27.503906 L 52.039062 27.503906 L 52.039062 24.449219 C 52.039062 23.886719 51.585938 23.433594 51.023438 23.433594 L 47.980469 23.433594 L 47.980469 20.90625 L 51.023438 20.90625 C 51.585938 20.90625 52.039062 20.453125 52.039062 19.890625 L 52.039062 16.84375 L 54.566406 16.84375 L 54.566406 19.890625 C 54.566406 20.453125 55.023438 20.90625 55.582031 20.90625 Z M 58.640625 20.90625 " fill-opacity="1" fill-rule="nonzero"/><path fill="#000000" d="M 53.371094 8.398438 C 45.597656 8.398438 39.269531 14.726562 39.269531 22.503906 C 39.269531 25.820312 40.449219 29.042969 42.589844 31.582031 C 42.953125 32.015625 43.59375 32.066406 44.019531 31.707031 C 44.449219 31.34375 44.503906 30.703125 44.144531 30.273438 C 42.3125 28.101562 41.300781 25.339844 41.300781 22.503906 C 41.300781 15.847656 46.714844 10.429688 53.371094 10.429688 C 60.027344 10.429688 65.441406 15.847656 65.441406 22.503906 C 65.441406 25.339844 64.429688 28.101562 62.597656 30.273438 C 62.039062 30.9375 62.519531 31.945312 63.375 31.945312 C 63.664062 31.945312 63.949219 31.820312 64.152344 31.582031 C 66.292969 29.042969 67.472656 25.820312 67.472656 22.503906 C 67.472656 14.726562 61.148438 8.398438 53.371094 8.398438 Z M 53.371094 8.398438 " fill-opacity="1" fill-rule="nonzero"/></svg>