<svg xmlns="http://www.w3.org/2000/svg" xmlns:xlink="http://www.w3.org/1999/xlink" width="140" zoomAndPan="magnify" viewBox="0 0 104.88 104.999996" height="140" preserveAspectRatio="xMidYMid meet" version="1.0"><defs><clipPath id="d199e22987"><path d="M 17.558594 5.679688 L 87 5.679688 L 87 99.320312 L 17.558594 99.320312 Z M 17.558594 5.679688 " clip-rule="nonzero"/></clipPath></defs><g clip-path="url(#d199e22987)"><path fill="#000000" d="M 80.886719 85.898438 L 74.03125 80.894531 L 74.03125 70.386719 C 74.03125 69.601562 73.398438 68.964844 72.613281 68.964844 C 71.832031 68.964844 71.199219 69.601562 71.199219 70.386719 L 71.199219 81.613281 C 71.199219 82.066406 71.414062 82.492188 71.78125 82.757812 L 79.21875 88.191406 C 79.46875 88.375 79.765625 88.464844 80.054688 88.464844 C 80.488281 88.464844 80.921875 88.261719 81.199219 87.878906 C 81.660156 87.246094 81.519531 86.359375 80.886719 85.898438 Z M 71.1875 63.855469 C 70.804688 50.753906 60.480469 40.113281 47.523438 39.246094 L 52.414062 65.933594 C 52.480469 66.304688 52.398438 66.691406 52.179688 67 L 46.976562 74.46875 C 46.710938 74.847656 46.277344 75.074219 45.8125 75.074219 C 45.351562 75.074219 44.914062 74.847656 44.652344 74.46875 L 39.445312 67 C 39.226562 66.691406 39.144531 66.304688 39.214844 65.933594 L 44.101562 39.246094 C 30.898438 40.128906 20.425781 51.164062 20.425781 64.601562 L 20.425781 82.542969 C 20.425781 84.933594 22.371094 86.878906 24.757812 86.878906 L 55.617188 86.878906 C 55.09375 85.183594 54.820312 83.40625 54.820312 81.613281 C 54.820312 72.269531 62.039062 64.585938 71.1875 63.855469 Z M 45.8125 36.347656 C 53.476562 36.347656 59.710938 30.105469 59.710938 22.429688 C 59.710938 14.757812 53.476562 8.511719 45.8125 8.511719 C 38.148438 8.511719 31.914062 14.757812 31.914062 22.429688 C 31.914062 30.105469 38.148438 36.347656 45.8125 36.347656 Z M 42.109375 65.859375 L 45.8125 45.632812 L 49.519531 65.859375 L 45.8125 71.179688 Z M 57.65625 81.613281 C 57.65625 85.050781 58.847656 88.40625 61.011719 91.066406 C 61.503906 91.671875 61.414062 92.566406 60.808594 93.0625 C 60.542969 93.277344 60.226562 93.382812 59.914062 93.382812 C 59.5 93.382812 59.09375 93.203125 58.8125 92.859375 C 58.019531 91.882812 57.335938 90.828125 56.769531 89.714844 L 24.757812 89.714844 C 20.808594 89.714844 17.59375 86.5 17.59375 82.542969 L 17.59375 64.601562 C 17.59375 57.085938 20.539062 50 25.882812 44.644531 C 29.382812 41.136719 33.632812 38.667969 38.253906 37.375 C 32.816406 34.605469 29.082031 28.945312 29.082031 22.429688 C 29.082031 13.191406 36.585938 5.675781 45.8125 5.675781 C 55.039062 5.675781 62.546875 13.191406 62.546875 22.429688 C 62.546875 28.949219 58.808594 34.609375 53.371094 37.375 C 57.996094 38.667969 62.242188 41.136719 65.742188 44.644531 C 70.910156 49.820312 73.832031 56.613281 74.019531 63.851562 C 76.671875 64.058594 79.207031 64.847656 81.476562 66.15625 L 80.988281 64.621094 C 80.746094 63.871094 81.160156 63.074219 81.90625 62.835938 C 82.652344 62.597656 83.449219 63.007812 83.6875 63.757812 L 85.542969 69.585938 C 85.546875 69.589844 85.546875 69.59375 85.546875 69.597656 C 85.578125 69.695312 85.597656 69.796875 85.605469 69.894531 C 85.605469 69.910156 85.605469 69.929688 85.609375 69.941406 C 85.609375 69.976562 85.609375 70.011719 85.609375 70.046875 C 85.609375 70.0625 85.609375 70.082031 85.609375 70.101562 C 85.605469 70.132812 85.601562 70.164062 85.597656 70.195312 C 85.597656 70.214844 85.59375 70.234375 85.589844 70.25 C 85.585938 70.285156 85.578125 70.316406 85.570312 70.351562 C 85.566406 70.367188 85.5625 70.382812 85.558594 70.398438 C 85.546875 70.4375 85.535156 70.476562 85.519531 70.515625 C 85.515625 70.523438 85.515625 70.53125 85.511719 70.539062 C 85.472656 70.636719 85.425781 70.726562 85.367188 70.816406 C 85.363281 70.816406 85.363281 70.820312 85.363281 70.824219 C 85.355469 70.832031 85.347656 70.839844 85.34375 70.847656 C 85.320312 70.878906 85.296875 70.90625 85.277344 70.933594 C 85.261719 70.949219 85.25 70.964844 85.234375 70.980469 C 85.21875 70.992188 85.207031 71.007812 85.195312 71.023438 C 85.1875 71.03125 85.179688 71.039062 85.167969 71.046875 C 85.15625 71.0625 85.140625 71.074219 85.121094 71.089844 C 85.101562 71.109375 85.074219 71.128906 85.050781 71.148438 C 85.035156 71.160156 85.019531 71.171875 85.003906 71.183594 C 84.976562 71.203125 84.945312 71.21875 84.917969 71.238281 C 84.902344 71.246094 84.890625 71.253906 84.878906 71.261719 C 84.839844 71.28125 84.804688 71.296875 84.769531 71.3125 C 84.761719 71.316406 84.75 71.324219 84.742188 71.328125 C 84.644531 71.367188 84.550781 71.394531 84.449219 71.414062 C 84.433594 71.417969 84.417969 71.417969 84.40625 71.421875 C 84.367188 71.425781 84.335938 71.429688 84.300781 71.429688 C 84.292969 71.433594 84.285156 71.4375 84.277344 71.4375 L 78.175781 71.792969 C 78.148438 71.796875 78.121094 71.796875 78.089844 71.796875 C 77.347656 71.796875 76.722656 71.214844 76.675781 70.460938 C 76.632812 69.675781 77.226562 69.007812 78.007812 68.960938 L 80.402344 68.820312 C 78.078125 67.398438 75.40625 66.636719 72.613281 66.636719 C 64.367188 66.636719 57.65625 73.351562 57.65625 81.613281 Z M 86.4375 90.519531 C 85.820312 90.039062 84.929688 90.152344 84.453125 90.769531 C 83.847656 91.550781 83.167969 92.277344 82.421875 92.921875 C 81.832031 93.4375 81.769531 94.332031 82.28125 94.925781 C 82.5625 95.246094 82.957031 95.414062 83.351562 95.414062 C 83.683594 95.414062 84.011719 95.296875 84.28125 95.0625 C 85.164062 94.296875 85.976562 93.4375 86.691406 92.507812 C 87.171875 91.886719 87.058594 90.996094 86.4375 90.519531 Z M 77.21875 95.871094 C 76.28125 96.171875 75.3125 96.382812 74.332031 96.496094 C 73.554688 96.582031 72.996094 97.289062 73.082031 98.066406 C 73.167969 98.789062 73.777344 99.324219 74.488281 99.324219 C 74.542969 99.324219 74.597656 99.320312 74.652344 99.3125 C 75.820312 99.179688 76.976562 98.929688 78.089844 98.570312 C 78.832031 98.328125 79.242188 97.53125 79 96.785156 C 78.757812 96.039062 77.960938 95.628906 77.21875 95.871094 Z M 69.328125 97.742188 C 69.144531 98.359375 68.582031 98.761719 67.96875 98.761719 C 67.835938 98.761719 67.699219 98.742188 67.566406 98.699219 C 66.445312 98.371094 65.347656 97.921875 64.3125 97.375 C 63.621094 97.007812 63.359375 96.148438 63.722656 95.457031 C 64.089844 94.765625 64.945312 94.5 65.636719 94.867188 C 66.507812 95.324219 67.425781 95.699219 68.371094 95.980469 C 69.121094 96.203125 69.546875 96.988281 69.328125 97.742188 Z M 69.328125 97.742188 " fill-opacity="1" fill-rule="evenodd"/></g></svg>