<svg xmlns="http://www.w3.org/2000/svg" xmlns:xlink="http://www.w3.org/1999/xlink" width="140" zoomAndPan="magnify" viewBox="0 0 104.88 104.999996" height="140" preserveAspectRatio="xMidYMid meet" version="1.0"><defs><clipPath id="a9a6dc6ff8"><path d="M 45 6.230469 L 61 6.230469 L 61 21 L 45 21 Z M 45 6.230469 " clip-rule="nonzero"/></clipPath><clipPath id="f7b100ca2b"><path d="M 6.167969 33 L 99.0625 33 L 99.0625 99.121094 L 6.167969 99.121094 Z M 6.167969 33 " clip-rule="nonzero"/></clipPath></defs><g clip-path="url(#a9a6dc6ff8)"><path fill="#000000" d="M 48.460938 15.429688 L 47.65625 19.632812 C 47.59375 19.96875 47.699219 20.238281 47.980469 20.4375 C 48.25 20.632812 48.535156 20.652344 48.832031 20.492188 L 52.617188 18.441406 L 56.375 20.476562 C 56.671875 20.636719 56.957031 20.617188 57.226562 20.421875 C 57.507812 20.21875 57.613281 19.953125 57.550781 19.613281 L 56.746094 15.414062 L 59.859375 12.484375 C 60.09375 12.257812 60.160156 11.988281 60.070312 11.679688 C 59.964844 11.355469 59.746094 11.175781 59.410156 11.128906 L 55.175781 10.574219 L 53.339844 6.6875 C 53.191406 6.382812 52.953125 6.234375 52.617188 6.234375 C 52.277344 6.234375 52.039062 6.382812 51.890625 6.6875 L 50.046875 10.550781 L 45.8125 11.105469 C 45.480469 11.152344 45.257812 11.332031 45.152344 11.652344 C 45.0625 11.964844 45.132812 12.234375 45.363281 12.460938 Z M 50.691406 12.089844 C 50.980469 12.050781 51.1875 11.898438 51.3125 11.636719 L 52.617188 8.910156 L 53.917969 11.621094 C 54.042969 11.882812 54.25 12.035156 54.539062 12.074219 L 57.535156 12.46875 L 55.34375 14.542969 C 55.128906 14.746094 55.050781 14.988281 55.101562 15.277344 L 55.65625 18.246094 L 53 16.804688 C 52.734375 16.652344 52.464844 16.652344 52.195312 16.804688 L 49.539062 18.246094 L 50.097656 15.277344 C 50.148438 14.988281 50.066406 14.746094 49.855469 14.542969 L 47.664062 12.46875 Z M 50.691406 12.089844 " fill-opacity="1" fill-rule="nonzero"/></g><path fill="#000000" d="M 28.675781 23.953125 L 27.871094 28.15625 C 27.808594 28.488281 27.914062 28.753906 28.1875 28.953125 C 28.464844 29.152344 28.75 29.171875 29.046875 29.007812 L 32.796875 26.972656 L 36.554688 29.007812 C 36.855469 29.171875 37.140625 29.152344 37.414062 28.953125 C 37.6875 28.753906 37.792969 28.488281 37.730469 28.15625 L 36.925781 23.953125 L 40.027344 21.015625 C 40.261719 20.792969 40.332031 20.523438 40.242188 20.210938 C 40.136719 19.890625 39.917969 19.707031 39.582031 19.664062 L 35.339844 19.109375 L 33.503906 15.246094 C 33.359375 14.9375 33.117188 14.78125 32.777344 14.78125 C 32.4375 14.78125 32.191406 14.9375 32.046875 15.246094 L 30.214844 19.109375 L 26.050781 19.671875 C 25.714844 19.714844 25.496094 19.898438 25.390625 20.21875 C 25.300781 20.53125 25.367188 20.796875 25.601562 21.023438 Z M 30.882812 20.613281 C 31.167969 20.574219 31.375 20.425781 31.5 20.164062 L 32.796875 17.433594 L 34.101562 20.164062 C 34.226562 20.425781 34.433594 20.574219 34.722656 20.613281 L 37.722656 21.007812 L 35.550781 23.085938 C 35.339844 23.285156 35.261719 23.53125 35.316406 23.816406 L 35.863281 26.789062 L 33.207031 25.347656 C 32.9375 25.191406 32.671875 25.191406 32.402344 25.347656 L 29.746094 26.789062 L 30.292969 23.816406 C 30.347656 23.53125 30.269531 23.285156 30.058594 23.085938 L 27.902344 21.007812 Z M 30.882812 20.613281 " fill-opacity="1" fill-rule="nonzero"/><path fill="#000000" d="M 68.257812 23.953125 L 67.449219 28.15625 C 67.386719 28.492188 67.496094 28.761719 67.773438 28.960938 C 68.046875 29.15625 68.332031 29.175781 68.625 29.015625 L 72.386719 26.980469 L 76.136719 29.015625 C 76.4375 29.179688 76.722656 29.160156 76.996094 28.960938 C 77.273438 28.757812 77.378906 28.492188 77.3125 28.15625 L 76.507812 23.953125 L 79.613281 21.015625 C 79.847656 20.789062 79.914062 20.519531 79.824219 20.210938 C 79.71875 19.898438 79.503906 19.71875 79.179688 19.671875 L 74.9375 19.117188 L 73.101562 15.253906 C 72.957031 14.945312 72.714844 14.789062 72.375 14.789062 C 72.03125 14.789062 71.789062 14.945312 71.644531 15.253906 L 69.808594 19.117188 L 65.597656 19.671875 C 65.265625 19.714844 65.042969 19.898438 64.941406 20.21875 C 64.847656 20.53125 64.921875 20.800781 65.15625 21.023438 Z M 70.484375 20.613281 C 70.773438 20.574219 70.980469 20.425781 71.105469 20.164062 L 72.410156 17.433594 L 73.707031 20.164062 C 73.832031 20.425781 74.039062 20.574219 74.324219 20.613281 L 77.328125 21.007812 L 75.15625 23.085938 C 74.945312 23.285156 74.867188 23.53125 74.921875 23.816406 L 75.46875 26.789062 L 72.8125 25.347656 C 72.542969 25.191406 72.277344 25.191406 72.007812 25.347656 L 69.351562 26.789062 L 69.898438 23.816406 C 69.953125 23.53125 69.875 23.285156 69.664062 23.085938 L 67.46875 21.007812 Z M 70.484375 20.613281 " fill-opacity="1" fill-rule="nonzero"/><path fill="#000000" d="M 11.949219 38.015625 L 11.144531 42.21875 C 11.078125 42.554688 11.1875 42.824219 11.464844 43.023438 C 11.738281 43.222656 12.023438 43.238281 12.320312 43.082031 L 16.078125 41.035156 L 19.828125 43.082031 C 20.132812 43.269531 20.433594 43.257812 20.722656 43.050781 C 21.015625 42.839844 21.117188 42.558594 21.035156 42.210938 L 20.230469 38.007812 L 23.332031 35.070312 C 23.5625 34.84375 23.632812 34.574219 23.539062 34.265625 C 23.4375 33.941406 23.21875 33.753906 22.878906 33.710938 L 18.644531 33.15625 L 16.800781 29.300781 C 16.65625 28.996094 16.414062 28.84375 16.078125 28.84375 C 15.742188 28.84375 15.5 28.996094 15.351562 29.300781 L 13.511719 33.15625 L 9.277344 33.710938 C 8.9375 33.753906 8.71875 33.941406 8.617188 34.265625 C 8.523438 34.574219 8.59375 34.84375 8.824219 35.070312 Z M 14.179688 34.675781 C 14.464844 34.636719 14.671875 34.488281 14.796875 34.226562 L 16.101562 31.496094 L 17.40625 34.226562 C 17.53125 34.488281 17.738281 34.636719 18.027344 34.675781 L 21.019531 35.070312 L 18.804688 37.15625 C 18.59375 37.355469 18.511719 37.601562 18.566406 37.886719 L 19.121094 40.859375 L 16.464844 39.417969 C 16.195312 39.261719 15.925781 39.261719 15.660156 39.417969 L 13.003906 40.859375 L 13.558594 37.886719 C 13.609375 37.601562 13.53125 37.355469 13.316406 37.15625 L 11.128906 35.070312 Z M 14.179688 34.675781 " fill-opacity="1" fill-rule="nonzero"/><path fill="#000000" d="M 84.976562 38.015625 L 84.171875 42.21875 C 84.101562 42.554688 84.207031 42.828125 84.484375 43.027344 C 84.765625 43.230469 85.054688 43.25 85.355469 43.082031 L 89.105469 41.035156 L 92.863281 43.082031 C 93.160156 43.238281 93.445312 43.222656 93.71875 43.023438 C 93.996094 42.824219 94.101562 42.554688 94.039062 42.21875 L 93.234375 38.015625 L 96.332031 35.078125 C 96.566406 34.851562 96.636719 34.585938 96.542969 34.273438 C 96.441406 33.949219 96.21875 33.765625 95.882812 33.71875 L 91.648438 33.164062 L 89.804688 29.308594 C 89.660156 29.003906 89.417969 28.851562 89.082031 28.851562 C 88.746094 28.851562 88.503906 29.003906 88.355469 29.308594 L 86.511719 33.164062 L 82.277344 33.71875 C 81.941406 33.765625 81.722656 33.949219 81.617188 34.273438 C 81.527344 34.585938 81.597656 34.851562 81.828125 35.078125 Z M 87.230469 34.675781 C 87.515625 34.636719 87.722656 34.488281 87.847656 34.226562 L 89.152344 31.496094 L 90.449219 34.226562 C 90.574219 34.488281 90.78125 34.636719 91.070312 34.675781 L 94.0625 35.070312 L 91.875 37.15625 C 91.660156 37.355469 91.578125 37.601562 91.632812 37.886719 L 92.1875 40.859375 L 89.53125 39.417969 C 89.261719 39.261719 88.996094 39.261719 88.726562 39.417969 L 86.070312 40.859375 L 86.625 37.886719 C 86.679688 37.601562 86.597656 37.355469 86.382812 37.15625 L 84.195312 35.070312 Z M 87.230469 34.675781 " fill-opacity="1" fill-rule="nonzero"/><g clip-path="url(#f7b100ca2b)"><path fill="#000000" d="M 95.84375 56.980469 L 73.542969 56.980469 L 73.542969 39.796875 C 73.542969 39.574219 73.464844 39.382812 73.308594 39.226562 C 73.152344 39.070312 72.960938 38.992188 72.738281 38.992188 L 68.007812 38.992188 L 68.007812 34.046875 C 68.007812 33.824219 67.929688 33.636719 67.769531 33.480469 C 67.613281 33.320312 67.421875 33.242188 67.203125 33.242188 L 38.03125 33.242188 C 37.808594 33.242188 37.617188 33.320312 37.460938 33.480469 C 37.304688 33.636719 37.222656 33.824219 37.222656 34.046875 L 37.222656 38.992188 L 32.492188 38.992188 C 32.269531 38.992188 32.078125 39.070312 31.921875 39.226562 C 31.765625 39.382812 31.6875 39.574219 31.6875 39.796875 L 31.6875 57.023438 L 9.386719 57.023438 C 8.960938 57.023438 8.550781 57.105469 8.15625 57.265625 C 7.761719 57.429688 7.414062 57.664062 7.113281 57.964844 C 6.808594 58.265625 6.578125 58.617188 6.414062 59.011719 C 6.25 59.40625 6.167969 59.816406 6.167969 60.242188 L 6.167969 98.316406 C 6.167969 98.539062 6.246094 98.730469 6.40625 98.886719 C 6.5625 99.042969 6.75 99.121094 6.972656 99.121094 L 98.257812 99.121094 C 98.480469 99.121094 98.667969 99.042969 98.828125 98.886719 C 98.984375 98.730469 99.0625 98.539062 99.0625 98.316406 L 99.0625 60.203125 C 99.0625 59.773438 98.980469 59.363281 98.816406 58.96875 C 98.652344 58.574219 98.421875 58.226562 98.121094 57.925781 C 97.816406 57.625 97.46875 57.390625 97.074219 57.226562 C 96.679688 57.0625 96.269531 56.980469 95.84375 56.980469 Z M 38.835938 34.851562 L 66.398438 34.851562 L 66.398438 38.992188 L 38.835938 38.992188 Z M 7.777344 60.203125 C 7.777344 59.988281 7.820312 59.78125 7.902344 59.585938 C 7.984375 59.386719 8.097656 59.214844 8.25 59.0625 C 8.402344 58.914062 8.574219 58.796875 8.773438 58.714844 C 8.96875 58.632812 9.175781 58.59375 9.386719 58.59375 L 31.6875 58.59375 L 31.6875 97.511719 L 7.777344 97.511719 Z M 33.296875 40.601562 L 71.933594 40.601562 L 71.933594 97.511719 L 61.285156 97.511719 L 61.285156 88.578125 L 66.027344 88.578125 C 66.25 88.578125 66.4375 88.5 66.59375 88.339844 C 66.753906 88.183594 66.832031 87.996094 66.832031 87.773438 C 66.832031 87.550781 66.753906 87.359375 66.59375 87.203125 C 66.4375 87.046875 66.25 86.96875 66.027344 86.96875 L 39.203125 86.96875 C 38.980469 86.96875 38.792969 87.046875 38.636719 87.203125 C 38.476562 87.359375 38.398438 87.550781 38.398438 87.773438 C 38.398438 87.996094 38.476562 88.183594 38.636719 88.339844 C 38.792969 88.5 38.980469 88.578125 39.203125 88.578125 L 44.035156 88.578125 L 44.035156 97.511719 L 33.296875 97.511719 Z M 45.660156 88.578125 L 51.808594 88.578125 L 51.808594 97.511719 L 45.660156 97.511719 Z M 53.421875 97.511719 L 53.421875 88.578125 L 59.675781 88.578125 L 59.675781 97.511719 Z M 97.453125 97.511719 L 73.542969 97.511719 L 73.542969 58.59375 L 95.84375 58.59375 C 96.054688 58.59375 96.261719 58.632812 96.457031 58.714844 C 96.65625 58.796875 96.828125 58.914062 96.980469 59.0625 C 97.132812 59.214844 97.25 59.386719 97.328125 59.585938 C 97.410156 59.78125 97.453125 59.988281 97.453125 60.203125 Z M 97.453125 97.511719 " fill-opacity="1" fill-rule="nonzero"/></g><path fill="#000000" d="M 41.902344 55.089844 L 50.265625 55.089844 C 50.488281 55.089844 50.675781 55.011719 50.835938 54.855469 C 50.992188 54.699219 51.070312 54.507812 51.070312 54.285156 L 51.070312 45.898438 C 51.070312 45.675781 50.992188 45.484375 50.835938 45.328125 C 50.675781 45.171875 50.488281 45.09375 50.265625 45.09375 L 41.902344 45.09375 C 41.679688 45.09375 41.488281 45.171875 41.332031 45.328125 C 41.175781 45.484375 41.097656 45.675781 41.097656 45.898438 L 41.097656 54.285156 C 41.097656 54.507812 41.175781 54.699219 41.332031 54.855469 C 41.488281 55.011719 41.679688 55.089844 41.902344 55.089844 Z M 42.707031 46.726562 L 49.460938 46.726562 L 49.460938 53.480469 L 42.707031 53.480469 Z M 42.707031 46.726562 " fill-opacity="1" fill-rule="nonzero"/><path fill="#000000" d="M 41.902344 68.71875 L 50.265625 68.71875 C 50.488281 68.71875 50.675781 68.640625 50.835938 68.484375 C 50.992188 68.324219 51.070312 68.136719 51.070312 67.914062 L 51.070312 59.550781 C 51.070312 59.328125 50.992188 59.136719 50.835938 58.980469 C 50.675781 58.824219 50.488281 58.746094 50.265625 58.746094 L 41.902344 58.746094 C 41.679688 58.746094 41.488281 58.824219 41.332031 58.980469 C 41.175781 59.136719 41.097656 59.328125 41.097656 59.550781 L 41.097656 67.914062 C 41.097656 68.136719 41.175781 68.324219 41.332031 68.484375 C 41.488281 68.640625 41.679688 68.71875 41.902344 68.71875 Z M 42.707031 60.355469 L 49.460938 60.355469 L 49.460938 67.109375 L 42.707031 67.109375 Z M 42.707031 60.355469 " fill-opacity="1" fill-rule="nonzero"/><path fill="#000000" d="M 41.902344 82.371094 L 50.265625 82.371094 C 50.488281 82.371094 50.675781 82.292969 50.835938 82.136719 C 50.992188 81.976562 51.070312 81.789062 51.070312 81.566406 L 51.070312 73.203125 C 51.070312 72.980469 50.992188 72.789062 50.835938 72.632812 C 50.675781 72.476562 50.488281 72.398438 50.265625 72.398438 L 41.902344 72.398438 C 41.679688 72.398438 41.488281 72.476562 41.332031 72.632812 C 41.175781 72.789062 41.097656 72.980469 41.097656 73.203125 L 41.097656 81.566406 C 41.097656 81.789062 41.175781 81.976562 41.332031 82.136719 C 41.488281 82.292969 41.679688 82.371094 41.902344 82.371094 Z M 42.707031 74.007812 L 49.460938 74.007812 L 49.460938 80.761719 L 42.707031 80.761719 Z M 42.707031 74.007812 " fill-opacity="1" fill-rule="nonzero"/><path fill="#000000" d="M 54.964844 55.089844 L 63.328125 55.089844 C 63.550781 55.089844 63.742188 55.011719 63.898438 54.855469 C 64.054688 54.699219 64.132812 54.507812 64.132812 54.285156 L 64.132812 45.898438 C 64.132812 45.675781 64.054688 45.484375 63.898438 45.328125 C 63.742188 45.171875 63.550781 45.09375 63.328125 45.09375 L 54.964844 45.09375 C 54.742188 45.09375 54.554688 45.171875 54.398438 45.328125 C 54.238281 45.484375 54.160156 45.675781 54.160156 45.898438 L 54.160156 54.285156 C 54.160156 54.507812 54.238281 54.699219 54.398438 54.855469 C 54.554688 55.011719 54.742188 55.089844 54.964844 55.089844 Z M 55.769531 46.726562 L 62.523438 46.726562 L 62.523438 53.480469 L 55.769531 53.480469 Z M 55.769531 46.726562 " fill-opacity="1" fill-rule="nonzero"/><path fill="#000000" d="M 54.964844 68.71875 L 63.328125 68.71875 C 63.550781 68.71875 63.742188 68.640625 63.898438 68.484375 C 64.054688 68.324219 64.132812 68.136719 64.132812 67.914062 L 64.132812 59.550781 C 64.132812 59.328125 64.054688 59.136719 63.898438 58.980469 C 63.742188 58.824219 63.550781 58.746094 63.328125 58.746094 L 54.964844 58.746094 C 54.742188 58.746094 54.554688 58.824219 54.398438 58.980469 C 54.238281 59.136719 54.160156 59.328125 54.160156 59.550781 L 54.160156 67.914062 C 54.160156 68.136719 54.238281 68.324219 54.398438 68.484375 C 54.554688 68.640625 54.742188 68.71875 54.964844 68.71875 Z M 55.769531 60.355469 L 62.523438 60.355469 L 62.523438 67.109375 L 55.769531 67.109375 Z M 55.769531 60.355469 " fill-opacity="1" fill-rule="nonzero"/><path fill="#000000" d="M 54.964844 82.371094 L 63.328125 82.371094 C 63.550781 82.371094 63.742188 82.292969 63.898438 82.136719 C 64.054688 81.976562 64.132812 81.789062 64.132812 81.566406 L 64.132812 73.203125 C 64.132812 72.980469 64.054688 72.789062 63.898438 72.632812 C 63.742188 72.476562 63.550781 72.398438 63.328125 72.398438 L 54.964844 72.398438 C 54.742188 72.398438 54.554688 72.476562 54.398438 72.632812 C 54.238281 72.789062 54.160156 72.980469 54.160156 73.203125 L 54.160156 81.566406 C 54.160156 81.789062 54.238281 81.976562 54.398438 82.136719 C 54.554688 82.292969 54.742188 82.371094 54.964844 82.371094 Z M 55.769531 74.007812 L 62.523438 74.007812 L 62.523438 80.761719 L 55.769531 80.761719 Z M 55.769531 74.007812 " fill-opacity="1" fill-rule="nonzero"/><path fill="#000000" d="M 17.679688 62.929688 L 11.449219 62.929688 C 11.226562 62.929688 11.039062 63.007812 10.878906 63.167969 C 10.722656 63.324219 10.644531 63.511719 10.644531 63.734375 L 10.644531 69.957031 C 10.644531 70.179688 10.722656 70.371094 10.878906 70.527344 C 11.039062 70.683594 11.226562 70.761719 11.449219 70.761719 L 17.679688 70.761719 C 17.902344 70.761719 18.089844 70.683594 18.25 70.527344 C 18.40625 70.371094 18.484375 70.179688 18.484375 69.957031 L 18.484375 63.734375 C 18.484375 63.511719 18.40625 63.324219 18.25 63.167969 C 18.089844 63.007812 17.902344 62.929688 17.679688 62.929688 Z M 16.875 69.152344 L 12.253906 69.152344 L 12.253906 64.539062 L 16.875 64.539062 Z M 16.875 69.152344 " fill-opacity="1" fill-rule="nonzero"/><path fill="#000000" d="M 28.015625 62.929688 L 21.792969 62.929688 C 21.570312 62.929688 21.382812 63.007812 21.222656 63.167969 C 21.066406 63.324219 20.988281 63.511719 20.988281 63.734375 L 20.988281 69.957031 C 20.988281 70.179688 21.066406 70.371094 21.222656 70.527344 C 21.382812 70.683594 21.570312 70.761719 21.792969 70.761719 L 28.015625 70.761719 C 28.238281 70.761719 28.425781 70.683594 28.585938 70.527344 C 28.742188 70.371094 28.820312 70.179688 28.820312 69.957031 L 28.820312 63.734375 C 28.820312 63.511719 28.742188 63.324219 28.585938 63.167969 C 28.425781 63.007812 28.238281 62.929688 28.015625 62.929688 Z M 27.210938 69.152344 L 22.597656 69.152344 L 22.597656 64.539062 L 27.210938 64.539062 Z M 27.210938 69.152344 " fill-opacity="1" fill-rule="nonzero"/><path fill="#000000" d="M 17.679688 74.136719 L 11.449219 74.136719 C 11.226562 74.136719 11.039062 74.214844 10.878906 74.371094 C 10.722656 74.527344 10.644531 74.71875 10.644531 74.941406 L 10.644531 81.164062 C 10.644531 81.386719 10.722656 81.574219 10.878906 81.734375 C 11.039062 81.890625 11.226562 81.96875 11.449219 81.96875 L 17.679688 81.96875 C 17.902344 81.96875 18.089844 81.890625 18.25 81.734375 C 18.40625 81.574219 18.484375 81.386719 18.484375 81.164062 L 18.484375 74.941406 C 18.484375 74.71875 18.40625 74.527344 18.25 74.371094 C 18.089844 74.214844 17.902344 74.136719 17.679688 74.136719 Z M 16.875 80.359375 L 12.253906 80.359375 L 12.253906 75.746094 L 16.875 75.746094 Z M 16.875 80.359375 " fill-opacity="1" fill-rule="nonzero"/><path fill="#000000" d="M 28.015625 74.136719 L 21.792969 74.136719 C 21.570312 74.136719 21.382812 74.214844 21.222656 74.371094 C 21.066406 74.527344 20.988281 74.71875 20.988281 74.941406 L 20.988281 81.164062 C 20.988281 81.386719 21.066406 81.574219 21.222656 81.734375 C 21.382812 81.890625 21.570312 81.96875 21.792969 81.96875 L 28.015625 81.96875 C 28.238281 81.96875 28.425781 81.890625 28.585938 81.734375 C 28.742188 81.574219 28.820312 81.386719 28.820312 81.164062 L 28.820312 74.941406 C 28.820312 74.71875 28.742188 74.527344 28.585938 74.371094 C 28.425781 74.214844 28.238281 74.136719 28.015625 74.136719 Z M 27.210938 80.359375 L 22.597656 80.359375 L 22.597656 75.746094 L 27.210938 75.746094 Z M 27.210938 80.359375 " fill-opacity="1" fill-rule="nonzero"/><path fill="#000000" d="M 17.679688 85.332031 L 11.449219 85.332031 C 11.226562 85.332031 11.039062 85.410156 10.878906 85.570312 C 10.722656 85.726562 10.644531 85.914062 10.644531 86.136719 L 10.644531 92.367188 C 10.644531 92.589844 10.722656 92.78125 10.878906 92.9375 C 11.039062 93.09375 11.226562 93.171875 11.449219 93.171875 L 17.679688 93.171875 C 17.902344 93.171875 18.089844 93.09375 18.25 92.9375 C 18.40625 92.78125 18.484375 92.589844 18.484375 92.367188 L 18.484375 86.136719 C 18.484375 85.914062 18.40625 85.726562 18.25 85.570312 C 18.089844 85.410156 17.902344 85.332031 17.679688 85.332031 Z M 16.875 91.5625 L 12.253906 91.5625 L 12.253906 86.941406 L 16.875 86.941406 Z M 16.875 91.5625 " fill-opacity="1" fill-rule="nonzero"/><path fill="#000000" d="M 28.015625 85.332031 L 21.792969 85.332031 C 21.570312 85.332031 21.382812 85.410156 21.222656 85.570312 C 21.066406 85.726562 20.988281 85.914062 20.988281 86.136719 L 20.988281 92.367188 C 20.988281 92.589844 21.066406 92.78125 21.222656 92.9375 C 21.382812 93.09375 21.570312 93.171875 21.792969 93.171875 L 28.015625 93.171875 C 28.238281 93.171875 28.425781 93.09375 28.585938 92.9375 C 28.742188 92.78125 28.820312 92.589844 28.820312 92.367188 L 28.820312 86.136719 C 28.820312 85.914062 28.742188 85.726562 28.585938 85.570312 C 28.425781 85.410156 28.238281 85.332031 28.015625 85.332031 Z M 27.210938 91.5625 L 22.597656 91.5625 L 22.597656 86.941406 L 27.210938 86.941406 Z M 27.210938 91.5625 " fill-opacity="1" fill-rule="nonzero"/><path fill="#000000" d="M 83.4375 62.929688 L 77.214844 62.929688 C 76.992188 62.929688 76.804688 63.007812 76.644531 63.167969 C 76.488281 63.324219 76.410156 63.511719 76.410156 63.734375 L 76.410156 69.957031 C 76.410156 70.179688 76.488281 70.371094 76.644531 70.527344 C 76.804688 70.683594 76.992188 70.761719 77.214844 70.761719 L 83.4375 70.761719 C 83.660156 70.761719 83.851562 70.683594 84.007812 70.527344 C 84.164062 70.371094 84.242188 70.179688 84.242188 69.957031 L 84.242188 63.734375 C 84.242188 63.511719 84.164062 63.324219 84.007812 63.167969 C 83.851562 63.007812 83.660156 62.929688 83.4375 62.929688 Z M 82.632812 69.152344 L 78.019531 69.152344 L 78.019531 64.539062 L 82.632812 64.539062 Z M 82.632812 69.152344 " fill-opacity="1" fill-rule="nonzero"/><path fill="#000000" d="M 93.78125 62.929688 L 87.550781 62.929688 C 87.328125 62.929688 87.140625 63.007812 86.980469 63.167969 C 86.824219 63.324219 86.746094 63.511719 86.746094 63.734375 L 86.746094 69.957031 C 86.746094 70.179688 86.824219 70.371094 86.980469 70.527344 C 87.140625 70.683594 87.328125 70.761719 87.550781 70.761719 L 93.78125 70.761719 C 94.003906 70.761719 94.195312 70.683594 94.351562 70.527344 C 94.507812 70.371094 94.585938 70.179688 94.585938 69.957031 L 94.585938 63.734375 C 94.585938 63.511719 94.507812 63.324219 94.351562 63.167969 C 94.195312 63.007812 94.003906 62.929688 93.78125 62.929688 Z M 92.976562 69.152344 L 88.355469 69.152344 L 88.355469 64.539062 L 92.976562 64.539062 Z M 92.976562 69.152344 " fill-opacity="1" fill-rule="nonzero"/><path fill="#000000" d="M 83.4375 74.136719 L 77.214844 74.136719 C 76.992188 74.136719 76.804688 74.214844 76.644531 74.371094 C 76.488281 74.527344 76.410156 74.71875 76.410156 74.941406 L 76.410156 81.164062 C 76.410156 81.386719 76.488281 81.574219 76.644531 81.734375 C 76.804688 81.890625 76.992188 81.96875 77.214844 81.96875 L 83.4375 81.96875 C 83.660156 81.96875 83.851562 81.890625 84.007812 81.734375 C 84.164062 81.574219 84.242188 81.386719 84.242188 81.164062 L 84.242188 74.941406 C 84.242188 74.71875 84.164062 74.527344 84.007812 74.371094 C 83.851562 74.214844 83.660156 74.136719 83.4375 74.136719 Z M 82.632812 80.359375 L 78.019531 80.359375 L 78.019531 75.746094 L 82.632812 75.746094 Z M 82.632812 80.359375 " fill-opacity="1" fill-rule="nonzero"/><path fill="#000000" d="M 93.78125 74.136719 L 87.550781 74.136719 C 87.328125 74.136719 87.140625 74.214844 86.980469 74.371094 C 86.824219 74.527344 86.746094 74.71875 86.746094 74.941406 L 86.746094 81.164062 C 86.746094 81.386719 86.824219 81.574219 86.980469 81.734375 C 87.140625 81.890625 87.328125 81.96875 87.550781 81.96875 L 93.78125 81.96875 C 94.003906 81.96875 94.195312 81.890625 94.351562 81.734375 C 94.507812 81.574219 94.585938 81.386719 94.585938 81.164062 L 94.585938 74.941406 C 94.585938 74.71875 94.507812 74.527344 94.351562 74.371094 C 94.195312 74.214844 94.003906 74.136719 93.78125 74.136719 Z M 92.976562 80.359375 L 88.355469 80.359375 L 88.355469 75.746094 L 92.976562 75.746094 Z M 92.976562 80.359375 " fill-opacity="1" fill-rule="nonzero"/><path fill="#000000" d="M 83.4375 85.332031 L 77.214844 85.332031 C 76.992188 85.332031 76.804688 85.410156 76.644531 85.570312 C 76.488281 85.726562 76.410156 85.914062 76.410156 86.136719 L 76.410156 92.367188 C 76.410156 92.589844 76.488281 92.78125 76.644531 92.9375 C 76.804688 93.09375 76.992188 93.171875 77.214844 93.171875 L 83.4375 93.171875 C 83.660156 93.171875 83.851562 93.09375 84.007812 92.9375 C 84.164062 92.78125 84.242188 92.589844 84.242188 92.367188 L 84.242188 86.136719 C 84.242188 85.914062 84.164062 85.726562 84.007812 85.570312 C 83.851562 85.410156 83.660156 85.332031 83.4375 85.332031 Z M 82.632812 91.5625 L 78.019531 91.5625 L 78.019531 86.941406 L 82.632812 86.941406 Z M 82.632812 91.5625 " fill-opacity="1" fill-rule="nonzero"/><path fill="#000000" d="M 93.78125 85.332031 L 87.550781 85.332031 C 87.328125 85.332031 87.140625 85.410156 86.980469 85.570312 C 86.824219 85.726562 86.746094 85.914062 86.746094 86.136719 L 86.746094 92.367188 C 86.746094 92.589844 86.824219 92.78125 86.980469 92.9375 C 87.140625 93.09375 87.328125 93.171875 87.550781 93.171875 L 93.78125 93.171875 C 94.003906 93.171875 94.195312 93.09375 94.351562 92.9375 C 94.507812 92.78125 94.585938 92.589844 94.585938 92.367188 L 94.585938 86.136719 C 94.585938 85.914062 94.507812 85.726562 94.351562 85.570312 C 94.195312 85.410156 94.003906 85.332031 93.78125 85.332031 Z M 92.976562 91.5625 L 88.355469 91.5625 L 88.355469 86.941406 L 92.976562 86.941406 Z M 92.976562 91.5625 " fill-opacity="1" fill-rule="nonzero"/></svg>