<svg xmlns="http://www.w3.org/2000/svg" xmlns:xlink="http://www.w3.org/1999/xlink" width="140" zoomAndPan="magnify" viewBox="0 0 104.88 104.999996" height="140" preserveAspectRatio="xMidYMid meet" version="1.0"><defs><clipPath id="67f47388b9"><path d="M 3.925781 13.449219 L 101.316406 13.449219 L 101.316406 91.363281 L 3.925781 91.363281 Z M 3.925781 13.449219 " clip-rule="nonzero"/></clipPath></defs><path fill="#000000" d="M 56.554688 25.015625 C 53.992188 23.96875 51.175781 23.980469 48.621094 25.042969 C 46.0625 26.105469 44.078125 28.09375 43.027344 30.640625 C 41.976562 33.1875 41.988281 35.988281 43.054688 38.527344 C 44.125 41.066406 46.125 43.039062 48.6875 44.082031 C 49.957031 44.601562 51.289062 44.859375 52.621094 44.859375 C 53.976562 44.859375 55.335938 44.59375 56.625 44.054688 C 59.179688 42.992188 61.164062 41.007812 62.214844 38.460938 C 63.265625 35.914062 63.257812 33.113281 62.1875 30.574219 C 61.117188 28.03125 59.117188 26.058594 56.554688 25.015625 Z M 59.695312 37.433594 C 58.921875 39.308594 57.457031 40.777344 55.574219 41.558594 C 53.6875 42.34375 51.609375 42.351562 49.71875 41.578125 C 47.832031 40.808594 46.355469 39.355469 45.566406 37.480469 C 44.777344 35.609375 44.773438 33.542969 45.546875 31.667969 C 46.320312 29.789062 47.785156 28.324219 49.671875 27.539062 C 50.621094 27.144531 51.621094 26.945312 52.621094 26.945312 C 53.601562 26.945312 54.585938 27.136719 55.523438 27.519531 C 57.414062 28.289062 58.886719 29.746094 59.675781 31.617188 C 60.464844 33.488281 60.472656 35.554688 59.695312 37.433594 Z M 59.695312 37.433594 " fill-opacity="1" fill-rule="nonzero"/><g clip-path="url(#67f47388b9)"><path fill="#000000" d="M 100.316406 64.53125 C 99.675781 63.027344 98.761719 61.679688 97.59375 60.519531 C 96.425781 59.359375 95.070312 58.449219 93.554688 57.8125 C 93.550781 57.8125 93.546875 57.808594 93.542969 57.808594 C 93.769531 57.628906 93.988281 57.433594 94.199219 57.226562 C 95.691406 55.742188 96.511719 53.769531 96.511719 51.671875 C 96.511719 49.574219 95.691406 47.601562 94.199219 46.117188 C 93.046875 44.972656 91.601562 44.226562 90.03125 43.945312 L 90.03125 34.550781 C 90.03125 33.800781 89.421875 33.195312 88.671875 33.195312 L 73.835938 33.195312 L 73.832031 32.027344 C 73.828125 31.453125 73.464844 30.945312 72.921875 30.753906 L 68.730469 29.289062 L 67.699219 26.84375 L 69.59375 22.847656 C 69.839844 22.332031 69.730469 21.714844 69.320312 21.3125 L 65.824219 17.863281 C 65.414062 17.457031 64.796875 17.355469 64.277344 17.601562 L 60.269531 19.511719 L 57.800781 18.503906 L 56.296875 14.351562 C 56.101562 13.8125 55.589844 13.453125 55.015625 13.453125 C 55.011719 13.453125 55.011719 13.453125 55.011719 13.453125 L 50.082031 13.472656 C 49.507812 13.472656 48.996094 13.835938 48.804688 14.375 L 47.332031 18.542969 L 44.867188 19.566406 L 40.847656 17.683594 C 40.328125 17.441406 39.707031 17.546875 39.300781 17.953125 L 35.828125 21.429688 C 35.421875 21.835938 35.320312 22.453125 35.566406 22.96875 L 37.488281 26.949219 L 36.476562 29.402344 L 32.296875 30.898438 C 31.753906 31.089844 31.390625 31.601562 31.394531 32.175781 L 31.398438 33.195312 L 16.632812 33.195312 C 15.882812 33.195312 15.273438 33.800781 15.273438 34.550781 L 15.273438 43.933594 C 13.679688 44.207031 12.210938 44.957031 11.046875 46.117188 C 9.550781 47.601562 8.730469 49.574219 8.730469 51.671875 C 8.730469 53.769531 9.550781 55.742188 11.046875 57.226562 C 11.253906 57.433594 11.472656 57.628906 11.699219 57.808594 C 11.695312 57.808594 11.691406 57.8125 11.6875 57.8125 C 10.175781 58.449219 8.816406 59.359375 7.648438 60.519531 C 6.480469 61.679688 5.566406 63.027344 4.925781 64.535156 C 4.261719 66.089844 3.925781 67.746094 3.925781 69.449219 L 3.925781 73.003906 C 3.925781 73.75 4.535156 74.359375 5.289062 74.359375 L 27.980469 74.359375 C 28.730469 74.359375 29.339844 73.75 29.339844 73.003906 L 29.339844 69.449219 C 29.339844 67.746094 29.003906 66.089844 28.34375 64.535156 C 27.703125 63.03125 26.785156 61.679688 25.621094 60.519531 C 24.453125 59.359375 23.09375 58.449219 21.582031 57.8125 C 21.578125 57.8125 21.574219 57.808594 21.566406 57.808594 C 21.796875 57.628906 22.015625 57.433594 22.222656 57.226562 C 23.714844 55.742188 24.539062 53.769531 24.539062 51.671875 C 24.539062 49.574219 23.714844 47.601562 22.222656 46.117188 C 21.054688 44.957031 19.589844 44.207031 17.996094 43.933594 L 17.996094 35.902344 L 31.40625 35.902344 L 31.410156 37.070312 C 31.414062 37.644531 31.777344 38.152344 32.320312 38.34375 L 36.511719 39.808594 L 37.542969 42.257812 L 35.648438 46.25 C 35.402344 46.769531 35.511719 47.382812 35.921875 47.789062 L 39.417969 51.238281 C 39.828125 51.640625 40.445312 51.746094 40.964844 51.496094 L 44.972656 49.585938 L 47.441406 50.59375 L 48.945312 54.75 C 49.140625 55.285156 49.652344 55.644531 50.226562 55.644531 C 50.230469 55.644531 50.230469 55.644531 50.230469 55.644531 L 51.257812 55.640625 L 51.257812 60.859375 C 51.257812 60.886719 51.257812 60.910156 51.261719 60.933594 C 49.667969 61.207031 48.199219 61.957031 47.03125 63.117188 C 45.539062 64.601562 44.714844 66.574219 44.714844 68.671875 C 44.714844 70.769531 45.539062 72.742188 47.03125 74.226562 C 47.238281 74.433594 47.457031 74.628906 47.6875 74.808594 C 47.679688 74.8125 47.675781 74.8125 47.671875 74.8125 C 46.160156 75.449219 44.800781 76.359375 43.632812 77.519531 C 42.46875 78.679688 41.550781 80.03125 40.910156 81.535156 C 40.25 83.089844 39.914062 84.746094 39.914062 86.449219 L 39.914062 90.003906 C 39.914062 90.753906 40.523438 91.359375 41.273438 91.359375 L 63.964844 91.359375 C 64.71875 91.359375 65.328125 90.753906 65.328125 90.003906 L 65.328125 86.449219 C 65.328125 84.746094 64.992188 83.089844 64.328125 81.535156 C 63.6875 80.03125 62.773438 78.679688 61.605469 77.519531 C 60.4375 76.359375 59.082031 75.449219 57.566406 74.8125 C 57.5625 74.8125 57.558594 74.8125 57.554688 74.808594 C 57.78125 74.628906 58 74.433594 58.207031 74.226562 C 59.703125 72.742188 60.523438 70.769531 60.523438 68.671875 C 60.523438 66.574219 59.703125 64.601562 58.207031 63.117188 C 57.042969 61.957031 55.574219 61.207031 53.980469 60.933594 C 53.980469 60.910156 53.980469 60.886719 53.980469 60.859375 L 53.980469 55.632812 L 55.15625 55.625 C 55.734375 55.625 56.246094 55.261719 56.4375 54.722656 L 57.910156 50.558594 L 60.375 49.535156 L 64.394531 51.414062 C 64.914062 51.660156 65.535156 51.550781 65.941406 51.144531 L 69.410156 47.671875 C 69.816406 47.265625 69.921875 46.648438 69.671875 46.132812 L 67.75 42.152344 L 68.765625 39.695312 L 72.945312 38.199219 C 73.488281 38.007812 73.847656 37.496094 73.847656 36.921875 L 73.84375 35.902344 L 87.308594 35.902344 L 87.308594 43.921875 C 85.691406 44.1875 84.199219 44.945312 83.019531 46.117188 C 81.523438 47.601562 80.703125 49.574219 80.703125 51.671875 C 80.703125 53.769531 81.523438 55.742188 83.019531 57.226562 C 83.226562 57.433594 83.445312 57.628906 83.671875 57.808594 C 83.667969 57.808594 83.664062 57.8125 83.660156 57.8125 C 82.148438 58.449219 80.789062 59.359375 79.621094 60.519531 C 78.453125 61.679688 77.539062 63.03125 76.898438 64.535156 C 76.234375 66.089844 75.898438 67.746094 75.898438 69.449219 L 75.898438 73.003906 C 75.898438 73.753906 76.507812 74.359375 77.261719 74.359375 L 99.953125 74.359375 C 100.703125 74.359375 101.3125 73.753906 101.3125 73.003906 L 101.3125 69.449219 C 101.316406 67.746094 100.980469 66.089844 100.316406 64.53125 Z M 23.695312 62.433594 C 25.582031 64.308594 26.617188 66.796875 26.617188 69.449219 L 26.617188 71.652344 L 6.648438 71.652344 L 6.648438 69.449219 C 6.648438 66.800781 7.6875 64.308594 9.574219 62.433594 C 11.460938 60.558594 13.96875 59.527344 16.632812 59.527344 C 19.300781 59.527344 21.808594 60.558594 23.695312 62.433594 Z M 21.816406 51.671875 C 21.816406 54.511719 19.492188 56.820312 16.632812 56.820312 C 13.777344 56.820312 11.453125 54.511719 11.453125 51.671875 C 11.453125 48.832031 13.777344 46.523438 16.632812 46.523438 C 19.492188 46.523438 21.816406 48.832031 21.816406 51.671875 Z M 59.679688 79.433594 C 61.566406 81.308594 62.605469 83.800781 62.605469 86.449219 L 62.605469 88.652344 L 42.636719 88.652344 L 42.636719 86.449219 C 42.636719 83.800781 43.675781 81.308594 45.5625 79.433594 C 47.445312 77.558594 49.953125 76.527344 52.621094 76.527344 C 55.289062 76.527344 57.796875 77.558594 59.679688 79.433594 Z M 57.800781 68.671875 C 57.800781 71.511719 55.476562 73.820312 52.621094 73.820312 C 49.765625 73.820312 47.441406 71.511719 47.441406 68.671875 C 47.441406 65.832031 49.765625 63.523438 52.621094 63.523438 C 55.476562 63.523438 57.800781 65.832031 57.800781 68.671875 Z M 67.277344 37.351562 C 66.914062 37.480469 66.625 37.757812 66.476562 38.113281 L 65.003906 41.679688 C 64.859375 42.035156 64.871094 42.433594 65.035156 42.777344 L 66.804688 46.441406 L 64.6875 48.558594 L 60.988281 46.828125 C 60.640625 46.664062 60.238281 46.65625 59.882812 46.804688 L 56.304688 48.292969 C 55.949219 48.441406 55.671875 48.730469 55.542969 49.09375 L 54.1875 52.925781 L 51.183594 52.933594 L 49.800781 49.113281 C 49.671875 48.753906 49.394531 48.464844 49.035156 48.320312 L 45.445312 46.855469 C 45.28125 46.789062 45.105469 46.753906 44.929688 46.753906 C 44.726562 46.753906 44.527344 46.796875 44.339844 46.886719 L 40.65625 48.644531 L 38.523438 46.539062 L 40.265625 42.867188 C 40.429688 42.519531 40.4375 42.121094 40.289062 41.765625 L 38.792969 38.207031 C 38.644531 37.855469 38.351562 37.582031 37.988281 37.453125 L 34.132812 36.105469 L 34.121094 33.121094 L 37.96875 31.746094 C 38.328125 31.617188 38.621094 31.339844 38.765625 30.988281 L 40.238281 27.417969 C 40.386719 27.0625 40.375 26.664062 40.207031 26.320312 L 38.441406 22.65625 L 40.554688 20.539062 L 44.253906 22.269531 C 44.601562 22.433594 45.003906 22.441406 45.359375 22.292969 L 48.9375 20.804688 C 49.292969 20.65625 49.570312 20.367188 49.699219 20.007812 L 51.054688 16.175781 L 54.058594 16.164062 L 55.441406 19.988281 C 55.570312 20.347656 55.851562 20.636719 56.207031 20.78125 L 59.796875 22.242188 C 60.152344 22.390625 60.554688 22.378906 60.902344 22.210938 L 64.585938 20.457031 L 66.71875 22.558594 L 64.976562 26.234375 C 64.8125 26.578125 64.804688 26.980469 64.953125 27.332031 L 66.453125 30.890625 C 66.601562 31.242188 66.890625 31.519531 67.257812 31.644531 L 71.113281 32.992188 L 71.121094 35.976562 Z M 83.425781 51.671875 C 83.425781 48.832031 85.75 46.523438 88.609375 46.523438 C 91.464844 46.523438 93.789062 48.832031 93.789062 51.671875 C 93.789062 54.511719 91.464844 56.820312 88.609375 56.820312 C 85.75 56.820312 83.425781 54.511719 83.425781 51.671875 Z M 98.59375 71.652344 L 78.625 71.652344 L 78.625 69.449219 C 78.625 66.800781 79.664062 64.308594 81.546875 62.433594 C 83.433594 60.558594 85.941406 59.527344 88.609375 59.527344 C 91.277344 59.527344 93.78125 60.558594 95.667969 62.433594 C 97.554688 64.308594 98.59375 66.796875 98.59375 69.449219 Z M 98.59375 71.652344 " fill-opacity="1" fill-rule="nonzero"/></g><path fill="#000000" d="M 57.472656 31.84375 L 54.421875 31.984375 L 53.34375 29.144531 C 53.199219 28.761719 52.824219 28.515625 52.414062 28.535156 C 52.003906 28.554688 51.652344 28.832031 51.542969 29.226562 L 50.734375 32.152344 L 47.683594 32.292969 C 47.273438 32.3125 46.921875 32.589844 46.8125 32.984375 C 46.703125 33.378906 46.863281 33.796875 47.207031 34.019531 L 49.757812 35.691406 L 48.949219 38.617188 C 48.839844 39.011719 48.996094 39.429688 49.339844 39.652344 C 49.5 39.757812 49.679688 39.808594 49.863281 39.808594 C 50.070312 39.808594 50.28125 39.738281 50.453125 39.601562 L 52.839844 37.707031 L 55.390625 39.375 C 55.734375 39.601562 56.183594 39.582031 56.503906 39.324219 C 56.824219 39.070312 56.945312 38.640625 56.800781 38.257812 L 55.722656 35.417969 L 58.109375 33.523438 C 58.429688 33.265625 58.546875 32.835938 58.402344 32.453125 C 58.257812 32.070312 57.882812 31.824219 57.472656 31.84375 Z M 54 34.371094 C 53.679688 34.625 53.558594 35.058594 53.703125 35.441406 L 53.996094 36.207031 L 53.308594 35.757812 C 52.964844 35.53125 52.515625 35.550781 52.191406 35.808594 L 51.550781 36.316406 L 51.769531 35.527344 C 51.875 35.136719 51.71875 34.714844 51.375 34.492188 L 50.6875 34.042969 L 51.511719 34.003906 C 51.921875 33.984375 52.273438 33.707031 52.378906 33.3125 L 52.597656 32.523438 L 52.890625 33.289062 C 53.035156 33.671875 53.410156 33.917969 53.820312 33.898438 L 54.644531 33.859375 Z M 54 34.371094 " fill-opacity="1" fill-rule="nonzero"/></svg>