<svg xmlns="http://www.w3.org/2000/svg" xmlns:xlink="http://www.w3.org/1999/xlink" width="140" zoomAndPan="magnify" viewBox="0 0 104.88 104.999996" height="140" preserveAspectRatio="xMidYMid meet" version="1.0"><defs><clipPath id="99015c1dde"><path d="M 3.703125 42 L 33 42 L 33 71 L 3.703125 71 Z M 3.703125 42 " clip-rule="nonzero"/></clipPath><clipPath id="4407b1a86b"><path d="M 72 41 L 101.089844 41 L 101.089844 70 L 72 70 Z M 72 41 " clip-rule="nonzero"/></clipPath><clipPath id="c088ae1a78"><path d="M 22 75 L 83 75 L 83 91.683594 L 22 91.683594 Z M 22 75 " clip-rule="nonzero"/></clipPath><clipPath id="14dbe736c5"><path d="M 18 13.023438 L 74 13.023438 L 74 39 L 18 39 Z M 18 13.023438 " clip-rule="nonzero"/></clipPath></defs><g clip-path="url(#99015c1dde)"><path fill="#000000" d="M 26.996094 66.878906 C 27.289062 66.984375 27.621094 66.894531 27.816406 66.652344 L 29.917969 64.089844 C 30.117188 63.847656 30.140625 63.511719 29.980469 63.242188 L 28.390625 60.617188 L 28.960938 58.75 L 31.734375 57.441406 C 32.015625 57.308594 32.1875 57.015625 32.15625 56.703125 L 31.824219 53.410156 C 31.796875 53.097656 31.570312 52.839844 31.269531 52.765625 L 28.285156 52.03125 L 27.363281 50.3125 L 28.398438 47.429688 C 28.503906 47.136719 28.414062 46.808594 28.171875 46.609375 L 25.601562 44.511719 C 25.359375 44.316406 25.019531 44.292969 24.75 44.453125 L 22.121094 46.035156 L 20.246094 45.472656 L 18.933594 42.703125 C 18.800781 42.421875 18.503906 42.253906 18.191406 42.285156 L 14.890625 42.613281 C 14.578125 42.644531 14.320312 42.867188 14.242188 43.167969 L 13.507812 46.140625 L 11.785156 47.0625 L 8.890625 46.03125 C 8.597656 45.925781 8.269531 46.015625 8.070312 46.257812 L 5.96875 48.816406 C 5.769531 49.058594 5.746094 49.398438 5.90625 49.664062 L 7.496094 52.289062 L 6.929688 54.15625 L 4.152344 55.464844 C 3.871094 55.597656 3.703125 55.894531 3.730469 56.203125 L 4.0625 59.496094 C 4.09375 59.808594 4.316406 60.066406 4.621094 60.140625 L 7.601562 60.875 L 8.527344 62.59375 L 7.488281 65.476562 C 7.382812 65.769531 7.472656 66.101562 7.714844 66.296875 L 10.285156 68.394531 C 10.527344 68.589844 10.867188 68.613281 11.136719 68.453125 L 13.769531 66.871094 L 15.640625 67.4375 L 16.953125 70.203125 C 17.042969 70.398438 17.210938 70.535156 17.40625 70.59375 C 17.5 70.621094 17.59375 70.628906 17.695312 70.621094 L 21 70.292969 C 21.3125 70.261719 21.566406 70.039062 21.644531 69.734375 L 22.378906 66.761719 L 24.105469 65.839844 Z M 22.796875 56.722656 C 22.652344 59.390625 20.363281 61.441406 17.6875 61.296875 C 15.007812 61.152344 12.953125 58.871094 13.097656 56.199219 C 13.242188 53.527344 15.53125 51.476562 18.210938 51.625 C 20.890625 51.769531 22.941406 54.050781 22.796875 56.722656 Z M 22.796875 56.722656 " fill-opacity="1" fill-rule="nonzero"/></g><g clip-path="url(#4407b1a86b)"><path fill="#000000" d="M 100.609375 53.671875 L 97.742188 52.574219 L 97.039062 50.75 L 98.425781 48.019531 C 98.570312 47.742188 98.515625 47.40625 98.300781 47.179688 L 96.015625 44.78125 C 95.800781 44.554688 95.464844 44.488281 95.179688 44.613281 L 92.375 45.855469 L 90.585938 45.0625 L 89.632812 42.152344 C 89.535156 41.859375 89.261719 41.65625 88.949219 41.644531 L 85.628906 41.5625 C 85.316406 41.550781 85.03125 41.742188 84.921875 42.03125 L 83.816406 44.890625 L 81.988281 45.59375 L 79.25 44.207031 C 78.972656 44.066406 78.636719 44.117188 78.40625 44.332031 L 76 46.609375 C 75.773438 46.824219 75.707031 47.160156 75.835938 47.445312 L 77.082031 50.242188 L 76.285156 52.027344 L 73.367188 52.976562 C 73.070312 53.074219 72.867188 53.347656 72.859375 53.660156 L 72.773438 56.96875 C 72.765625 57.28125 72.957031 57.5625 73.246094 57.675781 L 76.113281 58.777344 L 76.816406 60.597656 L 75.429688 63.328125 C 75.285156 63.605469 75.339844 63.941406 75.554688 64.167969 L 77.839844 66.570312 C 78.054688 66.796875 78.390625 66.863281 78.675781 66.734375 L 81.480469 65.492188 L 83.269531 66.285156 L 84.222656 69.195312 C 84.289062 69.398438 84.4375 69.558594 84.625 69.636719 C 84.714844 69.679688 84.808594 69.699219 84.90625 69.703125 L 88.226562 69.785156 C 88.539062 69.796875 88.824219 69.605469 88.933594 69.316406 L 90.039062 66.457031 L 91.867188 65.753906 L 94.605469 67.140625 C 94.882812 67.28125 95.21875 67.230469 95.449219 67.015625 L 97.855469 64.738281 C 98.082031 64.523438 98.148438 64.1875 98.019531 63.902344 L 96.773438 61.105469 L 97.570312 59.324219 L 100.488281 58.371094 C 100.785156 58.273438 100.988281 58.003906 100.996094 57.6875 L 101.082031 54.378906 C 101.089844 54.066406 100.898438 53.785156 100.609375 53.671875 Z M 91.707031 56.535156 C 91.230469 59.167969 88.703125 60.914062 86.0625 60.4375 C 83.421875 59.960938 81.671875 57.441406 82.152344 54.808594 C 82.628906 52.175781 85.15625 50.429688 87.796875 50.90625 C 90.433594 51.382812 92.1875 53.90625 91.707031 56.535156 Z M 91.707031 56.535156 " fill-opacity="1" fill-rule="nonzero"/></g><path fill="#000000" d="M 74.914062 50.332031 C 75.296875 49.992188 75.417969 49.445312 75.222656 48.972656 L 73.140625 43.960938 C 72.945312 43.488281 72.472656 43.191406 71.960938 43.21875 L 66.929688 43.472656 L 64.660156 41.210938 L 64.917969 36.195312 C 64.945312 35.683594 64.644531 35.214844 64.171875 35.015625 L 59.144531 32.941406 C 58.671875 32.746094 58.121094 32.867188 57.78125 33.25 L 54.40625 36.976562 L 51.195312 36.976562 L 47.820312 33.25 C 47.476562 32.867188 46.929688 32.746094 46.457031 32.941406 L 41.429688 35.015625 C 40.957031 35.214844 40.65625 35.683594 40.683594 36.195312 L 40.941406 41.210938 L 38.671875 43.472656 L 33.640625 43.21875 C 33.128906 43.191406 32.65625 43.488281 32.460938 43.960938 L 30.378906 48.972656 C 30.179688 49.445312 30.304688 49.992188 30.6875 50.332031 L 34.425781 53.699219 L 34.425781 56.902344 L 30.6875 60.269531 C 30.304688 60.609375 30.183594 61.15625 30.378906 61.628906 L 32.460938 66.640625 C 32.65625 67.113281 33.128906 67.410156 33.640625 67.382812 L 38.671875 67.128906 L 40.941406 69.390625 L 40.683594 74.40625 C 40.65625 74.917969 40.957031 75.390625 41.429688 75.585938 L 46.457031 77.660156 C 46.929688 77.855469 47.476562 77.734375 47.820312 77.351562 L 51.195312 73.625 L 54.40625 73.625 L 57.78125 77.351562 C 58.015625 77.613281 58.34375 77.75 58.679688 77.75 C 58.835938 77.75 58.992188 77.722656 59.144531 77.660156 L 64.171875 75.585938 C 64.644531 75.390625 64.945312 74.917969 64.917969 74.40625 L 64.660156 69.390625 L 66.929688 67.128906 L 71.960938 67.382812 C 72.472656 67.410156 72.945312 67.113281 73.140625 66.640625 L 75.222656 61.628906 C 75.421875 61.15625 75.296875 60.609375 74.914062 60.269531 L 71.175781 56.902344 L 71.175781 53.699219 Z M 52.796875 68.34375 C 45.570312 68.34375 39.714844 62.503906 39.714844 55.300781 C 39.714844 48.097656 45.570312 42.257812 52.796875 42.257812 C 60.019531 42.257812 65.878906 48.097656 65.878906 55.300781 C 65.878906 62.503906 60.019531 68.34375 52.796875 68.34375 Z M 52.796875 68.34375 " fill-opacity="1" fill-rule="nonzero"/><path fill="#000000" d="M 55.066406 53.804688 C 56.308594 53.027344 57.136719 51.652344 57.136719 50.082031 C 57.136719 47.660156 55.164062 45.695312 52.734375 45.695312 C 50.304688 45.695312 48.335938 47.660156 48.335938 50.082031 C 48.335938 51.652344 49.164062 53.027344 50.40625 53.804688 C 47.148438 54.800781 44.785156 57.816406 44.785156 61.390625 C 44.785156 61.902344 45.148438 62.332031 45.632812 62.433594 C 46.339844 63.15625 49.257812 63.695312 52.746094 63.695312 C 56.238281 63.695312 59.15625 63.152344 59.859375 62.433594 C 60.335938 62.324219 60.691406 61.898438 60.691406 61.390625 C 60.691406 57.816406 58.324219 54.800781 55.066406 53.804688 Z M 55.066406 53.804688 " fill-opacity="1" fill-rule="nonzero"/><path fill="#000000" d="M 77.003906 38.871094 L 77.003906 33.148438 C 77.003906 32.613281 76.566406 32.179688 76.027344 32.179688 L 72.785156 32.179688 C 72.246094 32.179688 71.8125 32.613281 71.8125 33.148438 L 71.8125 38.871094 C 71.8125 39.410156 72.246094 39.84375 72.785156 39.84375 L 76.027344 39.84375 C 76.566406 39.84375 77.003906 39.410156 77.003906 38.871094 Z M 77.003906 38.871094 " fill-opacity="1" fill-rule="nonzero"/><path fill="#000000" d="M 80.140625 29.15625 C 79.601562 29.15625 79.167969 29.59375 79.167969 30.128906 L 79.167969 38.871094 C 79.167969 39.410156 79.605469 39.84375 80.140625 39.84375 L 83.386719 39.84375 C 83.925781 39.84375 84.359375 39.40625 84.359375 38.871094 L 84.359375 30.128906 C 84.359375 29.589844 83.921875 29.15625 83.386719 29.15625 Z M 80.140625 29.15625 " fill-opacity="1" fill-rule="nonzero"/><path fill="#000000" d="M 86.527344 24.515625 L 86.527344 38.871094 C 86.527344 39.410156 86.960938 39.84375 87.5 39.84375 L 90.746094 39.84375 C 91.285156 39.84375 91.71875 39.40625 91.71875 38.871094 L 91.71875 24.515625 C 91.71875 23.980469 91.28125 23.546875 90.746094 23.546875 L 87.503906 23.546875 C 86.960938 23.546875 86.527344 23.980469 86.527344 24.515625 Z M 86.527344 24.515625 " fill-opacity="1" fill-rule="nonzero"/><path fill="#000000" d="M 74.175781 27.632812 C 74.277344 27.636719 74.378906 27.632812 74.480469 27.632812 L 74.785156 27.632812 C 74.890625 27.628906 74.988281 27.625 75.09375 27.621094 C 75.195312 27.613281 75.300781 27.613281 75.398438 27.605469 L 75.703125 27.582031 C 75.808594 27.570312 75.910156 27.566406 76.011719 27.554688 L 76.316406 27.515625 C 76.367188 27.511719 76.421875 27.503906 76.472656 27.5 L 76.625 27.476562 C 77.441406 27.355469 78.253906 27.160156 79.054688 26.898438 C 79.851562 26.632812 80.628906 26.296875 81.378906 25.898438 C 82.886719 25.097656 84.269531 24.019531 85.449219 22.71875 C 86.441406 21.625 87.285156 20.375 87.9375 19.011719 L 89.175781 19.367188 C 89.488281 19.457031 89.773438 19.144531 89.644531 18.84375 L 87.824219 14.484375 C 87.726562 14.253906 87.441406 14.171875 87.238281 14.316406 L 83.363281 17.027344 C 83.09375 17.214844 83.164062 17.628906 83.476562 17.722656 L 84.597656 18.042969 C 84.300781 19.09375 83.859375 20.113281 83.277344 21.070312 C 82.527344 22.304688 81.550781 23.4375 80.382812 24.378906 C 79.800781 24.847656 79.175781 25.273438 78.507812 25.648438 C 77.839844 26.015625 77.136719 26.332031 76.40625 26.589844 L 76.273438 26.636719 C 76.226562 26.652344 76.179688 26.667969 76.132812 26.683594 L 75.851562 26.769531 C 75.757812 26.800781 75.664062 26.824219 75.570312 26.851562 L 75.289062 26.929688 C 75.195312 26.953125 75.097656 26.976562 75.003906 26.996094 C 74.910156 27.019531 74.8125 27.042969 74.71875 27.0625 L 74.429688 27.121094 C 74.332031 27.140625 74.234375 27.160156 74.136719 27.175781 L 71.769531 27.582031 Z M 74.175781 27.632812 " fill-opacity="1" fill-rule="nonzero"/><g clip-path="url(#c088ae1a78)"><path fill="#000000" d="M 81.847656 76.003906 C 81.265625 75.527344 80.40625 75.605469 79.925781 76.1875 C 73.195312 84.300781 63.285156 88.957031 52.734375 88.957031 C 45.496094 88.957031 38.542969 86.785156 32.621094 82.679688 C 32.5 82.59375 32.371094 82.535156 32.238281 82.496094 L 34.878906 79.859375 C 35.175781 79.566406 35.289062 79.140625 35.183594 78.742188 C 35.078125 78.34375 34.765625 78.03125 34.367188 77.917969 L 24.003906 75.058594 C 23.597656 74.949219 23.164062 75.0625 22.867188 75.359375 C 22.570312 75.65625 22.457031 76.085938 22.566406 76.492188 L 25.433594 86.824219 C 25.546875 87.222656 25.859375 87.53125 26.261719 87.636719 C 26.359375 87.664062 26.460938 87.675781 26.558594 87.675781 C 26.867188 87.675781 27.164062 87.558594 27.382812 87.335938 L 30.535156 84.195312 C 30.621094 84.476562 30.796875 84.734375 31.0625 84.914062 C 37.441406 89.339844 44.933594 91.679688 52.730469 91.679688 C 55.625 91.679688 58.507812 91.351562 61.300781 90.710938 C 64.019531 90.085938 66.671875 89.160156 69.1875 87.953125 C 71.65625 86.769531 74.003906 85.308594 76.164062 83.617188 C 78.3125 81.9375 80.285156 80.019531 82.023438 77.925781 C 82.507812 77.339844 82.425781 76.484375 81.847656 76.003906 Z M 27.152344 84.273438 L 25.367188 77.847656 L 31.8125 79.628906 Z M 27.152344 84.273438 " fill-opacity="1" fill-rule="nonzero"/></g><g clip-path="url(#14dbe736c5)"><path fill="#000000" d="M 19.589844 38.160156 C 19.789062 38.265625 20.003906 38.3125 20.214844 38.3125 C 20.707031 38.3125 21.183594 38.046875 21.429688 37.582031 C 27.53125 25.886719 39.527344 18.625 52.734375 18.625 C 56.023438 18.625 59.273438 19.074219 62.398438 19.960938 L 60.703125 22.941406 C 60.5 23.300781 60.5 23.742188 60.710938 24.101562 C 60.921875 24.460938 61.304688 24.679688 61.71875 24.679688 L 72.316406 24.679688 C 72.730469 24.679688 73.117188 24.460938 73.328125 24.101562 C 73.535156 23.746094 73.539062 23.304688 73.332031 22.941406 L 68.035156 13.613281 C 67.828125 13.25 67.441406 13.023438 67.019531 13.023438 C 66.597656 13.023438 66.210938 13.25 66.003906 13.613281 L 63.78125 17.53125 C 60.214844 16.453125 56.5 15.90625 52.734375 15.90625 C 49.144531 15.90625 45.585938 16.402344 42.167969 17.386719 C 38.855469 18.34375 35.683594 19.75 32.742188 21.5625 C 26.917969 25.167969 22.167969 30.269531 19.007812 36.324219 C 18.664062 36.988281 18.921875 37.8125 19.589844 38.160156 Z M 67.019531 16.546875 L 70.316406 22.351562 L 63.722656 22.351562 Z M 67.019531 16.546875 " fill-opacity="1" fill-rule="nonzero"/></g></svg>