<svg xmlns="http://www.w3.org/2000/svg" xmlns:xlink="http://www.w3.org/1999/xlink" width="140" zoomAndPan="magnify" viewBox="0 0 104.88 104.999996" height="140" preserveAspectRatio="xMidYMid meet" version="1.0"><defs><clipPath id="d78459e6d7"><path d="M 7.402344 7.460938 L 97.300781 7.460938 L 97.300781 97.359375 L 7.402344 97.359375 Z M 7.402344 7.460938 " clip-rule="nonzero"/></clipPath></defs><g clip-path="url(#d78459e6d7)"><path fill="#000000" d="M 90.3125 35.433594 C 89.1875 35.433594 88.136719 35.699219 87.195312 36.167969 L 59.277344 15.371094 C 59.316406 15.074219 59.347656 14.757812 59.347656 14.449219 C 59.347656 10.597656 56.210938 7.460938 52.359375 7.460938 C 48.511719 7.460938 45.375 10.597656 45.375 14.449219 C 45.375 14.757812 45.40625 15.074219 45.445312 15.371094 L 17.515625 36.167969 C 16.574219 35.699219 15.511719 35.433594 14.398438 35.433594 C 10.550781 35.433594 7.414062 38.570312 7.414062 42.421875 C 7.414062 45.894531 9.964844 48.785156 13.308594 49.316406 L 24.320312 84.101562 C 22 85.234375 20.398438 87.613281 20.398438 90.371094 C 20.398438 94.222656 23.53125 97.359375 27.382812 97.359375 C 30.898438 97.359375 33.808594 94.753906 34.300781 91.363281 L 70.421875 91.363281 C 70.914062 94.746094 73.8125 97.359375 77.339844 97.359375 C 81.191406 97.359375 84.324219 94.222656 84.324219 90.371094 C 84.324219 87.613281 82.722656 85.234375 80.402344 84.101562 L 91.414062 49.316406 C 94.757812 48.785156 97.308594 45.902344 97.308594 42.421875 C 97.308594 38.570312 94.171875 35.433594 90.324219 35.433594 Z M 85.480469 37.382812 C 84.152344 38.660156 83.324219 40.449219 83.324219 42.429688 C 83.324219 42.929688 83.375 43.421875 83.476562 43.890625 L 73.546875 47.546875 C 70.199219 39.558594 62.464844 33.859375 53.363281 33.472656 L 53.363281 21.375 C 55.730469 21.039062 57.703125 19.515625 58.683594 17.421875 L 85.480469 37.394531 Z M 73.332031 56.414062 C 73.332031 67.980469 63.925781 77.386719 52.359375 77.386719 C 40.796875 77.386719 31.386719 67.980469 31.386719 56.414062 C 31.386719 44.851562 40.796875 35.441406 52.359375 35.441406 C 63.925781 35.441406 73.332031 44.851562 73.332031 56.414062 Z M 52.351562 9.464844 C 55.109375 9.464844 57.347656 11.703125 57.347656 14.460938 C 57.347656 17.21875 55.109375 19.457031 52.351562 19.457031 C 49.59375 19.457031 47.355469 17.21875 47.355469 14.460938 C 47.355469 11.703125 49.59375 9.464844 52.351562 9.464844 Z M 46.027344 17.414062 C 47.007812 19.496094 48.980469 21.027344 51.351562 21.367188 L 51.351562 33.460938 C 42.246094 33.847656 34.503906 39.539062 31.164062 47.539062 L 21.234375 43.882812 C 21.335938 43.410156 21.386719 42.921875 21.386719 42.421875 C 21.386719 40.4375 20.558594 38.652344 19.230469 37.375 Z M 9.40625 42.421875 C 9.40625 39.660156 11.640625 37.425781 14.398438 37.425781 C 17.160156 37.425781 19.394531 39.660156 19.394531 42.421875 C 19.394531 45.179688 17.160156 47.414062 14.398438 47.414062 C 11.640625 47.414062 9.40625 45.179688 9.40625 42.421875 Z M 15.402344 49.335938 C 17.628906 49.019531 19.519531 47.652344 20.550781 45.75 L 30.480469 49.417969 C 29.785156 51.625 29.386719 53.972656 29.386719 56.40625 C 29.386719 63.628906 32.746094 70.085938 37.96875 74.292969 L 30.683594 84.203125 C 29.691406 83.671875 28.578125 83.375 27.382812 83.375 C 26.984375 83.375 26.597656 83.414062 26.21875 83.488281 L 15.390625 49.335938 Z M 27.382812 95.367188 C 24.625 95.367188 22.390625 93.128906 22.390625 90.371094 C 22.390625 87.613281 24.625 85.375 27.382812 85.375 C 30.140625 85.375 32.378906 87.613281 32.378906 90.371094 C 32.378906 93.128906 30.140625 95.367188 27.382812 95.367188 Z M 70.414062 89.371094 L 34.289062 89.371094 C 34.066406 87.816406 33.339844 86.4375 32.277344 85.398438 L 39.5625 75.488281 C 43.21875 77.949219 47.609375 79.378906 52.351562 79.378906 C 57.089844 79.378906 61.484375 77.941406 65.140625 75.488281 L 72.425781 85.398438 C 71.363281 86.4375 70.636719 87.828125 70.414062 89.371094 Z M 82.324219 90.371094 C 82.324219 93.128906 80.085938 95.367188 77.328125 95.367188 C 74.570312 95.367188 72.332031 93.128906 72.332031 90.371094 C 72.332031 87.613281 74.570312 85.375 77.328125 85.375 C 80.085938 85.375 82.324219 87.613281 82.324219 90.371094 Z M 78.503906 83.488281 C 78.125 83.414062 77.738281 83.375 77.339844 83.375 C 76.152344 83.375 75.03125 83.671875 74.039062 84.203125 L 66.753906 74.292969 C 71.976562 70.074219 75.335938 63.628906 75.335938 56.40625 C 75.335938 53.964844 74.949219 51.625 74.242188 49.417969 L 84.171875 45.75 C 85.203125 47.652344 87.09375 49.019531 89.320312 49.335938 Z M 90.324219 47.414062 C 87.5625 47.414062 85.328125 45.179688 85.328125 42.421875 C 85.328125 39.660156 87.5625 37.425781 90.324219 37.425781 C 93.082031 37.425781 95.316406 39.660156 95.316406 42.421875 C 95.316406 45.179688 93.082031 47.414062 90.324219 47.414062 Z M 90.324219 47.414062 " fill-opacity="1" fill-rule="nonzero"/></g><path fill="#000000" d="M 57.480469 52.410156 L 56.804688 52.410156 C 57.753906 51.347656 58.347656 49.949219 58.347656 48.417969 C 58.347656 45.105469 55.660156 42.421875 52.351562 42.421875 C 49.042969 42.421875 46.355469 45.105469 46.355469 48.417969 C 46.355469 49.960938 46.945312 51.347656 47.898438 52.410156 L 47.222656 52.410156 C 42.890625 52.410156 39.355469 55.933594 39.355469 60.277344 L 39.355469 65.273438 C 39.355469 67 40.757812 68.398438 42.484375 68.398438 L 62.199219 68.398438 C 63.925781 68.398438 65.324219 67 65.324219 65.273438 L 65.324219 60.277344 C 65.324219 55.945312 61.800781 52.410156 57.457031 52.410156 Z M 52.351562 44.421875 C 54.558594 44.421875 56.34375 46.210938 56.34375 48.417969 C 56.34375 50.625 54.558594 52.410156 52.351562 52.410156 C 50.144531 52.410156 48.355469 50.625 48.355469 48.417969 C 48.355469 46.210938 50.144531 44.421875 52.351562 44.421875 Z M 63.34375 65.273438 C 63.34375 65.90625 62.84375 66.394531 62.21875 66.394531 L 59.746094 66.394531 L 59.746094 62.402344 C 59.746094 61.851562 59.296875 61.402344 58.746094 61.402344 C 58.195312 61.402344 57.746094 61.851562 57.746094 62.402344 L 57.746094 66.394531 L 46.957031 66.394531 L 46.957031 62.402344 C 46.957031 61.851562 46.507812 61.402344 45.957031 61.402344 C 45.40625 61.402344 44.953125 61.851562 44.953125 62.402344 L 44.953125 66.394531 L 42.484375 66.394531 C 41.847656 66.394531 41.359375 65.894531 41.359375 65.273438 L 41.359375 60.277344 C 41.359375 57.039062 43.984375 54.414062 47.222656 54.414062 L 57.46875 54.414062 C 60.707031 54.414062 63.332031 57.039062 63.332031 60.277344 L 63.332031 65.273438 Z M 63.34375 65.273438 " fill-opacity="1" fill-rule="nonzero"/></svg>