<svg xmlns="http://www.w3.org/2000/svg" xmlns:xlink="http://www.w3.org/1999/xlink" width="140" zoomAndPan="magnify" viewBox="0 0 104.88 104.999996" height="140" preserveAspectRatio="xMidYMid meet" version="1.0"><defs><clipPath id="bdd9a9ccee"><path d="M 7.65625 8.222656 L 97 8.222656 L 97 96.621094 L 7.65625 96.621094 Z M 7.65625 8.222656 " clip-rule="nonzero"/></clipPath></defs><g clip-path="url(#bdd9a9ccee)"><path fill="#000000" d="M 14.996094 70.992188 C 15.742188 70.992188 17.335938 70.933594 18.042969 71.0625 C 18.273438 70.644531 18.71875 70.355469 19.230469 70.355469 L 23.878906 70.355469 C 24.582031 70.355469 25.160156 70.898438 25.21875 71.582031 L 28.691406 69.632812 C 30.3125 68.722656 32.136719 68.632812 33.828125 69.378906 L 36.070312 70.359375 L 39.855469 70.359375 L 37.828125 66.261719 C 37.078125 64.746094 37.703125 62.910156 39.222656 62.160156 L 41.453125 61.070312 L 33.632812 61.070312 C 32.886719 61.070312 32.289062 60.46875 32.289062 59.734375 C 32.289062 58.992188 32.886719 58.394531 33.632812 58.394531 L 46.902344 58.394531 L 51.773438 56.007812 C 49.878906 54.707031 49.621094 51.300781 49.9375 49.105469 L 44.886719 49.105469 C 44.144531 49.105469 43.542969 48.507812 43.542969 47.773438 C 43.542969 47.03125 44.148438 46.433594 44.886719 46.433594 L 50.65625 46.433594 C 51.265625 44.921875 52.242188 43.503906 53.675781 42.425781 C 53.707031 42.402344 53.734375 42.382812 53.765625 42.367188 C 55.203125 41.457031 56.664062 40.554688 58.140625 39.667969 L 58.140625 35.847656 C 55.582031 37.742188 52.40625 38.867188 48.960938 38.867188 C 46.402344 38.867188 43.988281 38.242188 41.859375 37.144531 L 36.570312 37.144531 C 35.828125 37.144531 35.226562 36.546875 35.226562 35.804688 C 35.226562 35.066406 35.832031 34.46875 36.570312 34.46875 L 38.160156 34.46875 C 36.054688 32.398438 34.542969 29.742188 33.902344 26.757812 L 16.671875 26.757812 C 15.757812 26.757812 15 27.503906 15 28.414062 L 15 70.992188 Z M 21.019531 73.035156 C 21.167969 73.257812 21.292969 73.484375 21.398438 73.730469 L 22.636719 73.035156 Z M 21.78125 76.574219 L 21.828125 90.3125 L 25.6875 90.902344 L 25.6875 90.910156 L 41.683594 93.757812 C 42.445312 93.894531 43.164062 93.867188 43.855469 93.503906 L 65.902344 82.0625 C 67.765625 81.097656 68.675781 79.996094 68.847656 79.070312 C 68.945312 78.5 68.726562 78.039062 68.238281 77.738281 C 67.4375 77.246094 66.046875 77.179688 64.214844 77.875 L 46.214844 84.726562 C 45.921875 84.84375 45.589844 84.847656 45.273438 84.734375 L 32.128906 79.910156 C 31.429688 79.65625 31.070312 78.894531 31.328125 78.199219 C 31.582031 77.503906 32.359375 77.148438 33.054688 77.402344 L 45.613281 82.007812 C 47.160156 81.03125 47.613281 79.882812 46.296875 78.441406 C 45.652344 77.726562 44.648438 77.050781 43.328125 76.476562 L 32.75 71.820312 C 31.824219 71.414062 30.886719 71.457031 30.007812 71.949219 Z M 21.523438 92.972656 C 20.851562 94.695312 19.175781 95.882812 17.257812 95.886719 L 12.433594 95.902344 C 9.914062 95.914062 7.847656 93.871094 7.84375 91.359375 L 7.78125 75.578125 C 7.777344 73.085938 9.796875 71.042969 12.304688 71.003906 L 12.304688 28.414062 C 12.304688 26.023438 14.265625 24.078125 16.667969 24.078125 L 33.574219 24.078125 C 33.273438 15.410156 40.257812 8.230469 48.964844 8.230469 C 57.472656 8.230469 64.367188 15.089844 64.367188 23.546875 C 64.367188 27.261719 63.042969 30.65625 60.835938 33.3125 L 60.835938 38.074219 C 65.511719 35.347656 70.972656 32.363281 75.699219 30.0625 L 75.710938 30.054688 C 76.714844 29.488281 77.71875 28.941406 78.722656 28.414062 C 79.496094 28.007812 80.257812 27.617188 81.007812 27.25 C 81.050781 25.972656 81.785156 24.78125 82.988281 24.1875 L 86.144531 22.644531 C 87.902344 21.78125 90.042969 22.503906 90.910156 24.253906 L 96.59375 35.734375 C 97.460938 37.484375 96.730469 39.613281 94.96875 40.476562 L 91.816406 42.019531 C 90.355469 42.734375 88.609375 42.367188 87.566406 41.175781 C 87.070312 41.628906 86.632812 42.144531 86.253906 42.699219 C 85.660156 43.570312 85.214844 44.554688 84.945312 45.613281 C 85.128906 47.125 84.96875 48.46875 84.46875 49.65625 C 83.917969 50.929688 82.992188 51.972656 81.683594 52.78125 C 81.597656 52.835938 81.507812 52.878906 81.414062 52.914062 C 80.351562 53.371094 79.4375 53.859375 78.667969 54.363281 L 83.457031 64.03125 C 84.210938 65.542969 83.582031 67.378906 82.0625 68.125 L 68.265625 74.898438 C 72.46875 75.96875 73.195312 81.292969 67.148438 84.429688 L 45.097656 95.871094 C 43.839844 96.527344 42.582031 96.628906 41.210938 96.386719 L 25.289062 93.546875 L 25.285156 93.554688 Z M 17.183594 73.652344 L 12.359375 73.667969 C 11.324219 73.667969 10.464844 74.53125 10.464844 75.574219 L 10.519531 91.355469 C 10.523438 92.386719 11.390625 93.242188 12.4375 93.238281 L 17.257812 93.21875 C 18.304688 93.21875 19.152344 92.347656 19.152344 91.3125 L 19.101562 75.535156 C 19.101562 74.507812 18.238281 73.652344 17.183594 73.652344 Z M 44.746094 74.175781 C 47.359375 75.402344 50.066406 77.632812 49.734375 80.519531 L 54.097656 78.863281 L 58.808594 76.550781 C 58.871094 76.519531 58.925781 76.492188 58.984375 76.464844 L 80.875 65.726562 C 81.066406 65.636719 81.148438 65.398438 81.050781 65.207031 L 76.578125 56.195312 C 76.0625 56.863281 75.761719 57.554688 75.6875 58.28125 C 75.679688 58.351562 75.671875 58.417969 75.648438 58.480469 C 74.695312 62.078125 72.828125 65.390625 69.285156 66.179688 C 69.226562 66.191406 69.160156 66.203125 69.09375 66.207031 L 69.101562 66.214844 C 69.074219 66.214844 69.050781 66.214844 69.027344 66.21875 C 68.496094 71.5625 63.1875 75.0625 58.011719 73.195312 C 55.964844 72.460938 54.195312 70.953125 53.132812 68.824219 C 51.042969 64.652344 52.585938 59.496094 56.808594 57.417969 C 58.765625 56.460938 60.921875 56.355469 62.882812 56.957031 C 63.808594 57.238281 64.691406 57.683594 65.488281 58.277344 C 65.75 56.386719 66.226562 54.136719 66.925781 51.546875 L 60.167969 54.863281 C 60.113281 54.894531 60.054688 54.921875 59.992188 54.949219 L 47.886719 60.886719 C 47.835938 60.917969 47.773438 60.945312 47.714844 60.972656 L 40.410156 64.554688 C 40.21875 64.652344 40.136719 64.890625 40.226562 65.078125 Z M 45.59375 29.722656 C 45.011719 29.269531 44.914062 28.429688 45.371094 27.84375 C 45.828125 27.265625 46.671875 27.167969 47.257812 27.621094 C 48.726562 28.769531 51.289062 27.957031 51.289062 26.527344 C 51.289062 23.664062 43.960938 26.34375 43.960938 20.566406 C 43.960938 18.480469 45.609375 16.898438 47.605469 16.410156 L 47.605469 15.609375 C 47.605469 14.863281 48.191406 14.269531 48.988281 14.269531 L 48.988281 14.277344 C 49.746094 14.277344 50.34375 14.894531 50.328125 15.632812 L 50.3125 16.410156 C 51.351562 16.660156 52.304688 17.203125 52.988281 17.996094 C 53.464844 18.550781 53.398438 19.390625 52.839844 19.875 C 52.277344 20.351562 51.429688 20.285156 50.949219 19.726562 C 49.6875 18.265625 46.648438 18.976562 46.648438 20.566406 C 46.648438 23.429688 53.976562 20.75 53.976562 26.527344 C 53.976562 28.625 52.308594 30.210938 50.304688 30.6875 L 50.292969 31.484375 C 50.292969 32.226562 49.6875 32.824219 48.945312 32.824219 C 48.203125 32.824219 47.601562 32.226562 47.601562 31.484375 L 47.601562 30.679688 C 46.863281 30.5 46.175781 30.171875 45.59375 29.722656 Z M 48.964844 10.90625 C 41.949219 10.90625 36.253906 16.5625 36.253906 23.546875 C 36.253906 30.53125 41.949219 36.1875 48.964844 36.1875 C 56.003906 36.1875 61.679688 30.511719 61.679688 23.546875 C 61.679688 16.566406 55.988281 10.90625 48.964844 10.90625 Z M 86.238281 38.777344 L 81.816406 29.832031 C 81.183594 30.144531 80.566406 30.46875 79.96875 30.773438 C 78.96875 31.300781 77.992188 31.832031 77.03125 32.375 C 76.988281 32.398438 76.945312 32.425781 76.894531 32.457031 C 73.113281 34.332031 69.441406 36.265625 65.890625 38.257812 C 64.015625 39.308594 62.144531 40.394531 60.261719 41.515625 C 60.214844 41.554688 60.152344 41.585938 60.101562 41.617188 C 58.480469 42.582031 56.867188 43.574219 55.25 44.59375 C 54.082031 45.492188 53.332031 46.738281 52.917969 48.042969 C 52.90625 48.121094 52.882812 48.195312 52.855469 48.265625 C 52.558594 49.296875 52.460938 50.355469 52.523438 51.304688 C 52.566406 52.050781 52.785156 53.277344 53.214844 53.738281 L 58.820312 51.03125 C 58.875 50.996094 58.933594 50.96875 58.996094 50.945312 L 68.941406 46.136719 C 70.054688 45.574219 71.203125 46.609375 70.855469 47.714844 C 68.757812 54.355469 67.761719 59.179688 67.984375 61.898438 C 68.039062 62.496094 68.171875 63.644531 68.8125 63.550781 C 69.71875 63.324219 70.507812 62.789062 71.167969 61.949219 C 71.9375 60.988281 72.554688 59.640625 73.03125 57.898438 C 73.222656 56.351562 73.96875 54.945312 75.265625 53.664062 L 76.171875 52.875 C 77.261719 52.007812 78.644531 51.210938 80.316406 50.480469 C 81.117188 49.972656 81.671875 49.347656 81.988281 48.609375 C 82.328125 47.820312 82.414062 46.863281 82.25 45.738281 L 82.253906 45.738281 C 82.234375 45.589844 82.234375 45.425781 82.269531 45.265625 C 82.839844 42.710938 84.246094 40.433594 86.238281 38.777344 Z M 87.328125 25.039062 L 84.175781 26.582031 C 83.746094 26.792969 83.566406 27.324219 83.773438 27.746094 L 89.453125 39.226562 C 89.667969 39.648438 90.199219 39.832031 90.625 39.621094 L 93.777344 38.078125 C 94.210938 37.867188 94.386719 37.339844 94.183594 36.914062 L 88.5 25.433594 C 88.289062 25.011719 87.753906 24.824219 87.328125 25.039062 Z M 66.386719 65.167969 C 65.292969 63.90625 65.335938 62 65.285156 61.863281 C 64.492188 60.707031 63.355469 59.894531 62.09375 59.507812 C 59.152344 58.601562 56.109375 60.199219 55.175781 63.121094 C 54.195312 66.191406 55.878906 69.59375 58.929688 70.691406 C 62.714844 72.054688 66.519531 69.210938 66.386719 65.167969 Z M 60.847656 69.574219 C 60.109375 69.53125 59.546875 68.902344 59.589844 68.164062 C 59.632812 67.429688 60.261719 66.863281 61.003906 66.90625 C 61.578125 66.941406 61.957031 66.402344 61.910156 66.300781 C 61.855469 66.203125 61.425781 66.316406 60.996094 66.4375 C 59.496094 66.839844 58 67.242188 56.96875 65.164062 C 56.425781 64.058594 56.722656 62.796875 57.535156 61.90625 C 57.203125 61.214844 57.523438 60.421875 58.199219 60.113281 C 58.859375 59.808594 59.632812 60.082031 59.960938 60.714844 C 60.203125 60.699219 60.445312 60.703125 60.679688 60.738281 C 61.417969 60.835938 61.933594 61.507812 61.835938 62.238281 C 61.738281 62.96875 61.0625 63.476562 60.328125 63.378906 C 59.777344 63.304688 59.320312 63.863281 59.378906 63.984375 C 59.429688 64.085938 59.863281 63.972656 60.292969 63.851562 C 61.792969 63.445312 63.289062 63.046875 64.316406 65.121094 C 64.863281 66.234375 64.558594 67.503906 63.738281 68.398438 L 63.742188 68.402344 C 64.050781 69.058594 63.769531 69.839844 63.117188 70.15625 C 62.457031 70.484375 61.664062 70.21875 61.328125 69.566406 C 61.164062 69.582031 61.003906 69.582031 60.847656 69.574219 Z M 19.230469 37.140625 C 18.492188 37.140625 17.886719 36.546875 17.886719 35.804688 C 17.886719 35.066406 18.492188 34.464844 19.230469 34.464844 L 30.050781 34.464844 C 30.796875 34.464844 31.398438 35.066406 31.398438 35.804688 C 31.398438 36.546875 30.796875 37.140625 30.050781 37.140625 Z M 19.230469 49.101562 C 18.492188 49.101562 17.886719 48.507812 17.886719 47.769531 C 17.886719 47.027344 18.492188 46.433594 19.230469 46.433594 L 40.660156 46.433594 C 41.40625 46.433594 42.007812 47.027344 42.007812 47.769531 C 42.007812 48.507812 41.40625 49.101562 40.660156 49.101562 Z M 29.082031 58.394531 C 29.828125 58.394531 30.425781 58.992188 30.425781 59.734375 C 30.425781 60.46875 29.828125 61.070312 29.082031 61.070312 L 19.230469 61.070312 C 18.492188 61.070312 17.886719 60.46875 17.886719 59.734375 C 17.886719 58.992188 18.492188 58.394531 19.230469 58.394531 Z M 29.082031 58.394531 " fill-opacity="1" fill-rule="nonzero"/></g></svg>