<svg xmlns="http://www.w3.org/2000/svg" xmlns:xlink="http://www.w3.org/1999/xlink" width="140" zoomAndPan="magnify" viewBox="0 0 104.88 104.999996" height="140" preserveAspectRatio="xMidYMid meet" version="1.0"><defs><clipPath id="d0dc8cd7fe"><path d="M 34 9.234375 L 71 9.234375 L 71 55 L 34 55 Z M 34 9.234375 " clip-rule="nonzero"/></clipPath><clipPath id="6e03940651"><path d="M 11.171875 49 L 93.578125 49 L 93.578125 96.132812 L 11.171875 96.132812 Z M 11.171875 49 " clip-rule="nonzero"/></clipPath></defs><path fill="#000000" d="M 73.335938 72.371094 C 72.59375 72.371094 71.984375 72.980469 71.984375 73.730469 L 71.984375 75.085938 L 69.285156 75.085938 C 68.542969 75.085938 67.9375 75.699219 67.9375 76.445312 C 67.9375 77.191406 68.542969 77.800781 69.285156 77.800781 L 80.085938 77.800781 C 80.828125 77.800781 81.4375 77.191406 81.4375 76.445312 C 81.4375 75.699219 80.828125 75.085938 80.085938 75.085938 L 74.6875 75.085938 L 74.6875 73.730469 C 74.6875 72.980469 74.078125 72.371094 73.335938 72.371094 Z M 73.335938 72.371094 " fill-opacity="1" fill-rule="nonzero"/><path fill="#000000" d="M 24.734375 75.085938 C 23.992188 75.085938 23.382812 75.699219 23.382812 76.445312 C 23.382812 77.191406 23.992188 77.800781 24.734375 77.800781 L 35.535156 77.800781 C 36.277344 77.800781 36.886719 77.191406 36.886719 76.445312 C 36.886719 75.699219 36.277344 75.085938 35.535156 75.085938 Z M 24.734375 75.085938 " fill-opacity="1" fill-rule="nonzero"/><g clip-path="url(#d0dc8cd7fe)"><path fill="#000000" d="M 52.140625 54.039062 C 54.976562 54.039062 57.742188 53.089844 60.105469 51.054688 C 64.964844 46.914062 68.207031 40.460938 69.824219 34.214844 C 70.296875 32.316406 70.570312 30.277344 70.570312 28.308594 C 70.636719 17.785156 62.46875 9.234375 52.410156 9.234375 C 47.484375 9.234375 43.027344 11.269531 39.789062 14.597656 C 36.34375 18.058594 34.183594 22.878906 34.183594 28.308594 C 34.183594 35.371094 37.085938 43.519531 41.542969 48.882812 C 44.308594 52.207031 48.226562 54.039062 52.140625 54.039062 Z M 41.675781 16.496094 C 44.578125 13.578125 48.359375 11.949219 52.410156 11.949219 C 60.984375 11.949219 67.9375 19.28125 67.9375 28.308594 C 67.9375 30.007812 67.734375 31.773438 67.261719 33.539062 C 65.574219 39.988281 62.332031 45.621094 58.351562 49.015625 C 56.59375 50.511719 54.433594 51.324219 52.140625 51.324219 C 48.96875 51.324219 45.796875 49.761719 43.566406 47.117188 C 39.585938 42.296875 36.886719 34.757812 36.886719 28.308594 C 36.886719 23.761719 38.574219 19.621094 41.675781 16.496094 Z M 41.675781 16.496094 " fill-opacity="1" fill-rule="nonzero"/></g><g clip-path="url(#6e03940651)"><path fill="#000000" d="M 72.457031 55.601562 C 68.609375 54.921875 66.449219 52.207031 65.304688 49.628906 C 65.101562 49.832031 64.964844 50.035156 64.761719 50.308594 L 55.515625 58.726562 C 55.179688 59.132812 54.976562 59.609375 54.839844 60.152344 L 49.507812 60.152344 C 49.371094 59.742188 49.171875 59.335938 48.898438 58.996094 L 39.113281 49.96875 L 38.574219 51.054688 C 38.167969 51.800781 37.695312 52.546875 37.15625 53.15625 C 35.941406 54.3125 34.453125 55.261719 32.429688 55.601562 C 32.429688 55.601562 12.246094 58.929688 11.300781 74.746094 C 11.300781 74.746094 11.300781 83.84375 11.300781 91.515625 C 11.234375 94.097656 13.257812 96.132812 15.6875 96.132812 L 47.414062 96.132812 C 47.414062 96.132812 44.851562 93.554688 44.714844 93.417969 L 15.6875 93.417969 C 14.742188 93.417969 14 92.601562 14 91.515625 C 14 84.320312 14 75.765625 14 74.816406 C 14.878906 61.441406 32.699219 58.25 32.902344 58.25 C 33.644531 58.113281 34.320312 57.910156 34.925781 57.707031 L 42.421875 68.976562 C 42.824219 69.859375 43.433594 70.335938 44.109375 70.335938 C 44.648438 70.335938 45.1875 70.0625 45.660156 69.453125 L 47.550781 66.261719 L 48.832031 68.707031 L 45.796875 87.851562 C 45.523438 89.277344 46.066406 90.972656 47.011719 91.925781 L 50.453125 95.320312 C 50.992188 95.863281 51.734375 96.132812 52.546875 96.132812 C 53.289062 96.132812 54.03125 95.863281 54.636719 95.320312 L 58.082031 91.925781 C 59.027344 90.972656 59.5 89.277344 59.226562 87.851562 L 55.582031 68.910156 L 57.136719 66.191406 L 58.890625 69.179688 C 59.363281 69.792969 59.902344 70.0625 60.441406 70.0625 C 61.117188 70.0625 61.726562 69.585938 62.128906 68.707031 L 69.625 57.503906 C 70.367188 57.84375 71.242188 58.046875 72.121094 58.25 C 72.324219 58.25 90.078125 61.441406 91.023438 74.816406 C 91.023438 75.765625 91.023438 84.386719 91.023438 91.515625 C 91.023438 92.535156 90.277344 93.351562 89.335938 93.351562 L 60.171875 93.351562 C 60.039062 93.484375 57.472656 96.066406 57.472656 96.066406 L 89.132812 96.066406 C 91.5625 96.066406 93.519531 94.027344 93.519531 91.515625 C 93.519531 83.980469 93.519531 74.746094 93.519531 74.746094 C 92.574219 58.929688 72.457031 55.601562 72.457031 55.601562 Z M 50.925781 66.941406 L 49.101562 63.476562 C 49.238281 63.273438 49.371094 63.070312 49.441406 62.867188 L 55.109375 62.867188 C 55.246094 63.070312 55.3125 63.273438 55.515625 63.476562 L 53.492188 66.941406 Z M 46.605469 62.390625 L 44.109375 66.667969 L 37.355469 56.550781 C 37.828125 56.214844 38.300781 55.804688 38.707031 55.332031 C 39.042969 54.992188 39.382812 54.652344 39.71875 54.246094 L 46.875 60.828125 C 47.078125 61.167969 47.078125 61.78125 46.808594 62.050781 L 46.671875 62.1875 Z M 56.054688 89.957031 L 52.613281 93.351562 C 52.546875 93.417969 52.34375 93.417969 52.273438 93.351562 L 48.832031 89.957031 C 48.5625 89.683594 48.292969 88.867188 48.425781 88.257812 L 51.332031 69.65625 L 52.816406 69.65625 L 56.394531 88.324219 C 56.527344 88.867188 56.324219 89.683594 56.054688 89.957031 Z M 60.308594 66.398438 L 57.8125 62.121094 L 57.675781 61.917969 L 57.539062 61.78125 C 57.339844 61.507812 57.269531 60.898438 57.472656 60.558594 L 64.628906 53.972656 C 65.304688 54.855469 66.113281 55.601562 66.992188 56.28125 Z M 60.308594 66.398438 " fill-opacity="1" fill-rule="nonzero"/></g></svg>