<svg xmlns="http://www.w3.org/2000/svg" xmlns:xlink="http://www.w3.org/1999/xlink" width="140" zoomAndPan="magnify" viewBox="0 0 104.88 104.999996" height="140" preserveAspectRatio="xMidYMid meet" version="1.0"><defs><clipPath id="37606e89f9"><path d="M 51 4.914062 L 65 4.914062 L 65 16 L 51 16 Z M 51 4.914062 " clip-rule="nonzero"/></clipPath><clipPath id="2b2ddf8fb5"><path d="M 16 48 L 99.996094 48 L 99.996094 57 L 16 57 Z M 16 48 " clip-rule="nonzero"/></clipPath><clipPath id="1d2b963c20"><path d="M 4.851562 67 L 22 67 L 22 100 L 4.851562 100 Z M 4.851562 67 " clip-rule="nonzero"/></clipPath></defs><path fill="#000000" d="M 93.015625 50.398438 C 92.410156 50.398438 91.9375 49.925781 91.9375 49.320312 C 91.9375 30.589844 76.707031 15.359375 57.976562 15.359375 C 39.246094 15.359375 24.015625 30.589844 24.015625 49.320312 C 24.015625 49.925781 23.539062 50.398438 22.933594 50.398438 C 22.332031 50.398438 21.855469 49.925781 21.855469 49.320312 C 21.855469 29.402344 38.058594 13.199219 57.976562 13.199219 C 77.894531 13.199219 94.097656 29.402344 94.097656 49.320312 C 94.097656 49.925781 93.621094 50.398438 93.015625 50.398438 Z M 93.015625 50.398438 " fill-opacity="1" fill-rule="nonzero"/><g clip-path="url(#37606e89f9)"><path fill="#000000" d="M 61.996094 15.597656 C 61.757812 15.597656 61.519531 15.511719 61.304688 15.359375 C 60.847656 14.992188 60.761719 14.300781 61.152344 13.847656 C 61.734375 13.113281 62.082031 12.203125 62.082031 11.253906 C 62.082031 8.984375 60.246094 7.148438 57.976562 7.148438 C 55.707031 7.148438 53.871094 8.984375 53.871094 11.253906 C 53.871094 12.203125 54.195312 13.113281 54.800781 13.847656 C 55.1875 14.300781 55.101562 14.992188 54.648438 15.359375 C 54.195312 15.746094 53.503906 15.660156 53.136719 15.207031 C 52.230469 14.105469 51.734375 12.703125 51.734375 11.253906 C 51.734375 7.796875 54.542969 4.988281 57.996094 4.988281 C 61.453125 4.988281 64.261719 7.796875 64.261719 11.253906 C 64.261719 12.703125 63.765625 14.105469 62.859375 15.207031 C 62.621094 15.464844 62.316406 15.597656 61.996094 15.597656 Z M 61.996094 15.597656 " fill-opacity="1" fill-rule="nonzero"/></g><g clip-path="url(#2b2ddf8fb5)"><path fill="#000000" d="M 95.910156 56.363281 L 20.0625 56.363281 C 17.816406 56.363281 16 54.546875 16 52.300781 C 16 50.054688 17.816406 48.238281 20.0625 48.238281 L 95.933594 48.238281 C 98.179688 48.238281 99.996094 50.054688 99.996094 52.300781 C 99.972656 54.546875 98.160156 56.363281 95.910156 56.363281 Z M 20.0625 50.398438 C 19.023438 50.398438 18.160156 51.242188 18.160156 52.300781 C 18.160156 53.335938 19.003906 54.203125 20.0625 54.203125 L 95.933594 54.203125 C 96.96875 54.203125 97.835938 53.359375 97.835938 52.300781 C 97.835938 51.242188 96.992188 50.398438 95.933594 50.398438 Z M 20.0625 50.398438 " fill-opacity="1" fill-rule="nonzero"/></g><path fill="#000000" d="M 31.683594 38.324219 C 31.535156 38.324219 31.402344 38.300781 31.253906 38.238281 C 30.710938 38 30.453125 37.371094 30.691406 36.8125 C 35.378906 25.792969 44.148438 22.703125 44.515625 22.574219 C 45.078125 22.378906 45.707031 22.683594 45.878906 23.242188 C 46.074219 23.804688 45.769531 24.410156 45.207031 24.605469 C 45.101562 24.648438 36.957031 27.566406 32.65625 37.652344 C 32.484375 38.0625 32.09375 38.324219 31.683594 38.324219 Z M 31.683594 38.324219 " fill-opacity="1" fill-rule="nonzero"/><path fill="#000000" d="M 20.816406 94.210938 C 20.449219 94.210938 20.082031 94.015625 19.867188 93.671875 C 19.566406 93.152344 19.757812 92.484375 20.277344 92.203125 L 24.902344 89.609375 C 27.277344 88.269531 29.957031 87.535156 32.679688 87.449219 L 58.601562 86.691406 L 58.625 86.691406 C 60.742188 86.691406 62.816406 86.132812 64.652344 85.03125 C 69.035156 82.414062 77.332031 77.488281 83.574219 73.773438 L 88.113281 71.074219 C 88.71875 70.707031 89.128906 70.125 89.234375 69.433594 C 89.34375 68.742188 89.148438 68.027344 88.695312 67.488281 L 88.652344 67.445312 C 88.027344 66.710938 87.011719 66.449219 86.125 66.796875 L 64.390625 75.199219 C 63.332031 75.609375 62.210938 75.804688 61.066406 75.761719 L 40.023438 75.070312 C 39.484375 75.046875 39.050781 74.636719 38.988281 74.121094 C 38.921875 73.601562 39.269531 73.082031 39.765625 72.953125 L 57.15625 68.136719 C 57.824219 67.941406 58.277344 67.335938 58.277344 66.644531 C 58.277344 66.386719 58.214844 66.125 58.085938 65.890625 C 57.804688 65.371094 57.21875 65.066406 56.636719 65.109375 L 32.636719 66.753906 C 31.316406 66.839844 30.042969 67.164062 28.832031 67.683594 L 17.492188 72.695312 C 16.953125 72.929688 16.304688 72.695312 16.066406 72.132812 C 15.828125 71.59375 16.066406 70.945312 16.628906 70.707031 L 27.992188 65.695312 C 29.4375 65.066406 30.949219 64.699219 32.503906 64.59375 L 56.507812 62.949219 C 57.910156 62.84375 59.273438 63.578125 59.984375 64.808594 C 60.308594 65.371094 60.480469 65.996094 60.480469 66.644531 C 60.480469 68.308594 59.359375 69.777344 57.761719 70.210938 L 47.21875 73.125 L 61.171875 73.578125 C 62.015625 73.601562 62.859375 73.472656 63.65625 73.148438 L 85.390625 64.742188 C 87.140625 64.074219 89.105469 64.570312 90.316406 65.996094 L 90.359375 66.039062 C 91.246094 67.078125 91.613281 68.417969 91.394531 69.757812 C 91.179688 71.074219 90.402344 72.21875 89.234375 72.910156 L 84.699219 75.609375 C 78.457031 79.328125 70.183594 84.25 65.773438 86.867188 C 63.613281 88.140625 61.171875 88.832031 58.667969 88.832031 L 32.742188 89.585938 C 30.367188 89.652344 28.011719 90.300781 25.960938 91.46875 L 21.335938 94.058594 C 21.1875 94.167969 21.011719 94.210938 20.816406 94.210938 Z M 20.816406 94.210938 " fill-opacity="1" fill-rule="nonzero"/><g clip-path="url(#1d2b963c20)"><path fill="#000000" d="M 10.511719 99.980469 C 10.296875 99.980469 10.082031 99.914062 9.886719 99.785156 C 9.648438 99.613281 9.476562 99.351562 9.433594 99.070312 L 4.941406 70.230469 C 4.851562 69.667969 5.222656 69.128906 5.78125 69 L 12.457031 67.640625 C 13.734375 67.378906 15.050781 67.640625 16.128906 68.375 C 17.210938 69.109375 17.921875 70.230469 18.160156 71.527344 L 21.898438 92.9375 C 22.351562 95.484375 20.644531 97.96875 18.097656 98.488281 L 10.730469 99.957031 C 10.644531 99.957031 10.578125 99.980469 10.511719 99.980469 Z M 7.230469 70.921875 L 11.398438 97.625 L 17.664062 96.371094 C 19.070312 96.089844 19.996094 94.730469 19.757812 93.324219 L 16.023438 71.917969 C 15.894531 71.203125 15.503906 70.597656 14.898438 70.1875 C 14.292969 69.777344 13.582031 69.625 12.867188 69.777344 Z M 7.230469 70.921875 " fill-opacity="1" fill-rule="nonzero"/></g></svg>