<svg xmlns="http://www.w3.org/2000/svg" xmlns:xlink="http://www.w3.org/1999/xlink" width="140" zoomAndPan="magnify" viewBox="0 0 104.88 104.999996" height="140" preserveAspectRatio="xMidYMid meet" version="1.0"><defs><clipPath id="b0997eb95d"><path d="M 6.097656 9.691406 L 98.988281 9.691406 L 98.988281 95.09375 L 6.097656 95.09375 Z M 6.097656 9.691406 " clip-rule="nonzero"/></clipPath></defs><g clip-path="url(#b0997eb95d)"><path fill="#000000" d="M 98.679688 71.988281 C 98.679688 70.550781 98.066406 69.179688 97.035156 68.257812 C 96.382812 66.761719 95.164062 65.542969 93.886719 64.496094 C 94.929688 63.773438 95.40625 62.453125 95.292969 61.164062 C 95.292969 53.441406 88.980469 47.160156 81.222656 47.160156 L 60.660156 47.160156 C 60.917969 45.074219 61.171875 42.992188 61.425781 40.898438 C 61.457031 40.632812 61.371094 40.363281 61.191406 40.160156 C 60.824219 39.636719 59.449219 39.898438 58.800781 39.84375 L 58.09375 34.800781 C 57.878906 33.292969 56.664062 32.195312 55.207031 32.195312 L 52.484375 32.195312 L 52.484375 30.695312 C 52.488281 29.789062 51.722656 29.085938 50.839844 29.144531 L 51.730469 21.53125 L 61.679688 13.914062 C 62.074219 13.609375 62.164062 13.054688 61.890625 12.640625 L 60.324219 10.289062 C 60.039062 9.839844 59.371094 9.730469 58.949219 10.0625 C 58.949219 10.0625 48.203125 18.296875 48.203125 18.296875 C 47.691406 18.691406 47.367188 19.273438 47.289062 19.933594 L 46.210938 29.148438 L 45.460938 29.148438 C 44.628906 29.148438 43.949219 29.839844 43.949219 30.695312 L 43.949219 32.195312 L 25.300781 32.195312 C 23.863281 32.195312 22.621094 33.316406 22.410156 34.804688 L 21.707031 39.84375 L 20.023438 39.84375 C 19.472656 39.828125 19 40.355469 19.082031 40.902344 C 19.289062 42.605469 19.578125 45 19.785156 46.679688 L 17.394531 47.71875 L 16.773438 42.199219 C 16.714844 41.460938 15.75 41.085938 15.203125 41.589844 C 15.203125 41.589844 11.835938 44.507812 11.835938 44.507812 C 11.613281 44.699219 11.496094 44.980469 11.507812 45.273438 L 11.660156 48.097656 C 11.609375 48.082031 11.5625 48.058594 11.511719 48.050781 L 7.230469 47.382812 C 6.933594 47.335938 6.621094 47.4375 6.40625 47.652344 C 6.191406 47.871094 6.09375 48.175781 6.144531 48.476562 L 8.617188 63.230469 L 7.847656 63.242188 C 7.269531 63.242188 6.796875 63.824219 6.933594 64.386719 C 7.601562 67.558594 12.269531 89.410156 12.8125 91.972656 C 13.191406 93.769531 14.738281 95.074219 16.492188 95.074219 C 16.492188 95.074219 30.34375 95.074219 30.34375 95.074219 C 30.371094 95.070312 50.21875 95.074219 50.253906 95.070312 C 51.570312 95.070312 52.796875 94.398438 53.566406 93.324219 C 55.535156 94.464844 57.746094 95.074219 60.046875 95.074219 L 81.679688 95.074219 C 88.390625 95.074219 94.003906 89.917969 95.074219 82.953125 C 98.984375 82.5 96.914062 78.839844 94.808594 76.796875 C 97.058594 76.4375 98.71875 74.269531 98.679688 71.988281 Z M 95.261719 68.945312 C 95.585938 69.644531 95.25 70.445312 94.398438 70.386719 C 93.707031 70.355469 93.101562 70 92.523438 69.65625 C 89.210938 67.558594 85.632812 70.566406 82.183594 68.878906 C 74.820312 66 75.316406 73.53125 69.824219 70.066406 C 68.128906 69.132812 66.347656 68.421875 64.441406 69.21875 C 63.636719 69.558594 62.90625 70.039062 62.109375 70.394531 C 60.335938 71.183594 58.746094 70.628906 57.03125 69.980469 C 55.1875 69.234375 53.222656 68.777344 51.226562 68.875 C 49.917969 68.875 48.210938 69.773438 47.046875 69.210938 C 47.164062 68.46875 48.226562 67.109375 50.210938 65.167969 L 91.644531 65.167969 C 93.066406 66.207031 94.5625 67.457031 95.261719 68.945312 Z M 44.746094 74.6875 C 45.4375 75.761719 46.574219 76.574219 47.84375 76.804688 C 46.761719 77.777344 45.585938 79.03125 45.222656 80.507812 L 36.46875 80.507812 C 36.996094 78.023438 38.484375 71.035156 38.988281 68.671875 C 39.167969 67.828125 39.347656 66.988281 39.527344 66.144531 C 39.789062 65.011719 40.578125 63.007812 38.511719 63.234375 L 39.621094 52.339844 C 39.621094 52.339844 49.640625 52.339844 49.640625 52.339844 C 49.273438 52.339844 48.359375 54.179688 48.1875 54.496094 C 46.8125 57.328125 44.890625 62.316406 48.054688 64.636719 C 46.75 65.875 45.875 67.261719 45.070312 68.804688 C 43.910156 70.621094 43.511719 72.785156 44.746094 74.6875 Z M 37.136719 52.242188 C 37.105469 51.71875 36.273438 51.328125 35.921875 51.039062 C 36.078125 50.3125 36.464844 48.71875 36.726562 47.703125 C 37.101562 47.425781 37.933594 46.800781 38.300781 46.53125 C 37.980469 49.664062 36.933594 59.902344 36.597656 63.199219 L 36.171875 63.191406 L 37.148438 52.488281 C 37.152344 52.40625 37.152344 52.320312 37.136719 52.242188 Z M 60.550781 49.058594 L 81.21875 49.058594 C 88.15625 49.039062 93.699219 54.882812 93.386719 61.757812 C 93.386719 62.589844 92.707031 63.269531 91.867188 63.273438 L 49.902344 63.273438 C 48.980469 63.28125 48.324219 62.449219 48.382812 61.574219 C 48.335938 54.84375 53.625 49.003906 60.550781 49.058594 Z M 49.175781 20.15625 C 49.195312 20.003906 49.261719 19.878906 49.367188 19.796875 L 59.300781 12.183594 L 59.8125 12.953125 L 50.253906 20.277344 C 50.050781 20.429688 49.917969 20.664062 49.886719 20.917969 L 48.925781 29.148438 L 48.128906 29.148438 Z M 45.851562 31.042969 L 50.582031 31.042969 L 50.582031 32.195312 L 45.851562 32.195312 Z M 24.296875 35.066406 C 24.375 34.511719 24.808594 34.089844 25.300781 34.089844 L 55.207031 34.089844 C 55.707031 34.089844 56.128906 34.5 56.210938 35.066406 L 56.882812 39.84375 L 23.628906 39.84375 Z M 22.519531 41.738281 C 22.519531 41.746094 57.96875 41.738281 57.972656 41.738281 C 57.988281 41.730469 59.390625 41.738281 59.40625 41.738281 C 59.1875 43.570312 58.964844 45.402344 58.738281 47.230469 C 56.070312 47.511719 53.523438 48.632812 51.464844 50.445312 L 39.816406 50.445312 L 40.414062 44.570312 C 40.523438 43.777344 39.519531 43.214844 38.894531 43.714844 C 38.164062 44.257812 36.011719 45.871094 35.316406 46.386719 C 35.140625 46.515625 35.015625 46.703125 34.960938 46.914062 C 34.636719 48.191406 34.398438 49.128906 34.230469 49.832031 L 33.488281 49.300781 C 32.941406 48.886719 32.082031 49.246094 31.988281 49.921875 C 31.988281 49.921875 31.902344 50.445312 31.902344 50.445312 L 30.890625 50.445312 L 31.007812 44.492188 C 31.042969 43.753906 30.136719 43.253906 29.527344 43.683594 C 29.527344 43.683594 25.476562 46.355469 25.476562 46.355469 C 25.246094 46.507812 25.097656 46.746094 25.058594 47.015625 C 25.019531 47.265625 24.597656 50.296875 24.574219 50.445312 L 22.257812 50.445312 C 22.214844 49.761719 22.089844 47.792969 22.042969 47.085938 C 22.023438 46.808594 21.878906 46.5625 21.664062 46.394531 C 21.484375 44.933594 21.28125 43.207031 21.101562 41.738281 Z M 33.621094 51.734375 C 34.035156 52.03125 34.785156 52.554688 35.203125 52.855469 L 34.261719 63.15625 C 33.738281 63.195312 32.640625 62.949219 32.257812 63.4375 C 32.160156 63.539062 31.648438 64.097656 31.5625 64.183594 Z M 30.753906 57.414062 L 30.851562 52.339844 L 31.59375 52.339844 Z M 26.917969 52.867188 L 26.195312 52.558594 C 26.375 51.300781 26.707031 48.976562 26.886719 47.699219 L 29.066406 46.261719 L 28.671875 66.789062 L 26.53125 66.789062 L 27.492188 53.804688 C 27.523438 53.402344 27.292969 53.027344 26.917969 52.867188 Z M 25.546875 54.339844 L 24.625 66.792969 L 22.78125 66.792969 C 22.996094 64.871094 23.988281 55.878906 24.222656 53.777344 Z M 22.464844 52.339844 L 22.410156 52.84375 L 22.378906 52.339844 Z M 20.230469 48.554688 C 20.242188 48.734375 21.15625 63.070312 21.199219 63.765625 C 21.199219 63.765625 20.863281 66.792969 20.863281 66.792969 L 19.539062 66.792969 L 17.617188 49.691406 Z M 15.082031 44.207031 C 15.453125 47.503906 17.207031 63.09375 17.613281 66.707031 L 15.03125 63.929688 L 15.007812 63.804688 L 14.15625 59.09375 L 13.433594 45.636719 Z M 8.238281 49.457031 L 10.546875 49.816406 C 11.042969 52.542969 12.488281 60.554688 12.957031 63.152344 L 10.542969 63.191406 Z M 32.160156 91.578125 C 31.957031 92.511719 31.1875 93.179688 30.324219 93.179688 C 30.324219 93.179688 16.492188 93.179688 16.492188 93.179688 C 15.632812 93.179688 14.871094 92.507812 14.675781 91.582031 L 13.984375 88.339844 L 32.851562 88.339844 Z M 13.578125 86.445312 L 9.03125 65.117188 L 13.46875 65.039062 C 14.011719 65.617188 15.996094 67.761719 16.578125 68.382812 C 16.757812 68.574219 17.011719 68.683594 17.277344 68.683594 L 29.554688 68.683594 C 30.074219 68.707031 30.492188 68.109375 30.808594 67.785156 C 30.808594 67.785156 33.363281 65.039062 33.363281 65.039062 C 33.785156 65.042969 37.484375 65.109375 37.792969 65.117188 C 36.960938 69.046875 34.136719 82.300781 33.253906 86.441406 L 13.578125 86.441406 Z M 50.253906 93.175781 L 33.550781 93.175781 C 34.09375 92.445312 34.703125 88.496094 34.957031 87.589844 C 34.976562 87.503906 36.050781 82.480469 36.066406 82.398438 L 45.390625 82.398438 C 45.675781 82.996094 46.171875 83.488281 46.789062 83.761719 C 47.410156 87 49.449219 90.277344 52 92.261719 C 51.582031 92.824219 50.9375 93.175781 50.253906 93.175781 Z M 81.679688 93.179688 C 81.679688 93.179688 60.050781 93.179688 60.046875 93.179688 C 54.613281 93.183594 50.074219 89.003906 48.777344 83.90625 C 49.957031 83.65625 50.882812 82.828125 52.023438 82.484375 C 53.894531 82.082031 55.570312 83.171875 57.496094 83.074219 C 59.785156 83.152344 62.140625 81.425781 64.289062 81.925781 C 64.953125 82.109375 65.554688 82.5625 66.195312 83.039062 C 67.792969 84.234375 69.421875 85 71.441406 84.378906 C 73.964844 83.46875 75.785156 81.292969 78.503906 83.289062 C 79.183594 83.675781 79.953125 84.113281 80.875 84.320312 C 83.359375 84.851562 85.53125 83.527344 87.726562 82.886719 C 89.507812 82.339844 91.390625 82.363281 93.1875 82.796875 C 92.207031 88.777344 87.398438 93.179688 81.679688 93.179688 Z M 94.976562 80.996094 C 94.691406 81.113281 94.167969 81.058594 93.5 80.898438 C 90.617188 80.21875 87.820312 80.816406 85.089844 81.804688 C 83.375 82.425781 81.707031 82.683594 79.992188 81.929688 C 78.347656 81.203125 77.09375 80.25 75.171875 80.683594 C 73.34375 81.09375 71.652344 82.914062 69.722656 82.726562 C 68.441406 82.601562 67.511719 81.566406 66.46875 80.925781 C 65.398438 80.265625 64.207031 79.875 62.9375 79.972656 C 61.058594 80.121094 59.375 81.117188 57.484375 81.183594 C 55.457031 81.175781 53.300781 80.019531 51.257812 80.753906 C 50.160156 81.128906 49.085938 82.210938 47.859375 82.089844 C 47.28125 82.066406 46.929688 81.488281 47.078125 80.945312 C 47.523438 79.042969 49.375 77.984375 50.789062 76.871094 C 50.789062 76.871094 92.222656 76.871094 92.222656 76.871094 C 92.859375 77.570312 95.984375 80.320312 94.976562 80.996094 Z M 95.953125 74.125 C 95.457031 74.660156 94.773438 74.980469 94.046875 74.980469 C 94.03125 74.972656 50.496094 74.992188 50.480469 74.972656 C 50.480469 74.972656 48.585938 74.972656 48.585938 74.972656 C 46.671875 75.027344 45.3125 72.703125 46.054688 70.878906 C 47.203125 71.523438 48.523438 71.257812 49.738281 70.992188 C 52.046875 70.496094 54.1875 70.933594 56.355469 71.753906 C 57.925781 72.347656 59.707031 73.019531 61.558594 72.613281 C 63.464844 72.265625 64.773438 70.492188 66.664062 70.777344 C 68.640625 71.113281 70.085938 72.757812 72.160156 72.90625 C 73.753906 73.019531 75.011719 72.25 76.234375 71.335938 C 77.371094 70.484375 78.3125 69.964844 79.777344 70.21875 C 80.867188 70.40625 81.90625 70.796875 82.980469 71.074219 C 84.578125 71.492188 86.003906 71.347656 87.59375 71 C 88.550781 70.789062 89.59375 70.523438 90.558594 70.820312 C 91.773438 71.195312 92.789062 72.132812 94.074219 72.265625 C 95.152344 72.375 96.082031 72.03125 96.695312 71.269531 C 96.933594 72.273438 96.652344 73.402344 95.953125 74.125 Z M 56.351562 54.742188 C 56.085938 54.289062 56.238281 53.710938 56.691406 53.445312 L 58.324219 52.496094 C 58.78125 52.234375 59.363281 52.386719 59.628906 52.835938 C 59.890625 53.289062 59.738281 53.867188 59.285156 54.132812 L 57.652344 55.082031 C 57.203125 55.34375 56.617188 55.199219 56.351562 54.742188 Z M 64.175781 57.832031 C 63.910156 57.378906 64.0625 56.800781 64.515625 56.535156 L 66.152344 55.585938 C 66.605469 55.324219 67.1875 55.476562 67.453125 55.925781 C 67.71875 56.378906 67.566406 56.957031 67.109375 57.222656 L 65.476562 58.171875 C 65.03125 58.433594 64.441406 58.285156 64.175781 57.832031 Z M 70.101562 50.96875 C 70.28125 50.476562 70.832031 50.226562 71.324219 50.40625 L 73.082031 51.046875 C 73.578125 51.230469 73.828125 51.773438 73.648438 52.265625 C 73.46875 52.757812 72.90625 53.007812 72.425781 52.824219 C 72.425781 52.824219 70.664062 52.183594 70.664062 52.183594 C 70.171875 52.003906 69.921875 51.457031 70.101562 50.96875 Z M 73.605469 56.957031 C 73.785156 56.464844 74.332031 56.214844 74.824219 56.394531 L 76.582031 57.039062 C 77.078125 57.21875 77.328125 57.761719 77.148438 58.253906 C 76.96875 58.75 76.40625 58.996094 75.925781 58.816406 C 75.925781 58.816406 74.167969 58.171875 74.167969 58.171875 C 73.675781 57.992188 73.421875 57.449219 73.605469 56.957031 Z M 81.949219 53.046875 C 82.128906 52.558594 82.679688 52.304688 83.167969 52.488281 L 84.929688 53.128906 C 85.421875 53.308594 85.675781 53.855469 85.492188 54.34375 C 85.3125 54.839844 84.753906 55.085938 84.273438 54.90625 C 84.273438 54.90625 82.511719 54.265625 82.511719 54.265625 C 82.019531 54.082031 81.765625 53.539062 81.949219 53.046875 Z M 29.773438 72.890625 L 17.058594 72.890625 C 16.347656 72.890625 15.773438 73.46875 15.773438 74.175781 L 15.773438 77.761719 C 15.773438 78.46875 16.347656 79.042969 17.058594 79.042969 L 29.773438 79.042969 C 30.484375 79.042969 31.0625 78.46875 31.0625 77.761719 L 31.0625 74.175781 C 31.0625 73.464844 30.484375 72.890625 29.773438 72.890625 Z M 29.160156 77.148438 L 17.671875 77.148438 L 17.671875 74.785156 L 29.160156 74.785156 Z M 29.160156 77.148438 " fill-opacity="1" fill-rule="nonzero"/></g></svg>